{
DisplayStrings = (
"/tta-deva/u0930_u094D.blwf/tta-deva/rashtrasign_uMatra-deva/tta-deva/rashtrasign_uuMatra-deva",
"/rashtrasign-deva"
);
copyright = "Copyright \U00A9 2014 by Dan Reynolds. All rights reserved.";
customParameters = (
{
name = license;
value = "This Font Software is licensed under the SIL Open Font License\012Version 1.1. This license is available with a FAQ at: http://scripts.sil.org/OFL";
},
{
name = licenseURL;
value = "http://scripts.sil.org/OFL";
},
{
name = vendorID;
value = toff;
}
);
date = "2014-06-27 07:47:25 +0000";
designer = "Dan Reynolds";
designerURL = "http://www.typeoff.de";
familyName = "Martel Devanagari";
featurePrefixes = (
{
automatic = 1;
code = "languagesystem DFLT dflt;\012languagesystem dev2 dflt;\012";
name = Languagesystems;
}
);
features = (
{
automatic = 1;
code = "feature locl;\012feature pres;\012feature abvs;\012feature akhn;\012feature rphf;\012feature rkrf;\012feature blwf;\012feature blws;\012feature half;\012feature nukt;\012feature cjct;\012feature psts;\012feature ccmp;\012feature vatu;\012";
name = aalt;
},
{
code = "script deva;\012script dev2;\012language NEP exclude_dflt;\012sub [jha-deva five-deva eight-deva] by [jha-deva.NEP five-deva.NEP eight-deva.NEP];\012sub ka-deva ra-deva halant-deva by k_ra-deva.NEP;\012";
name = locl;
},
{

glyphs = (
{
glyphname = "aShort-deva";
lastChange = "2014-06-27 10:25:37 +0100";
layers = (
{
layerId = "39185045-6A8C-415A-8312-7B8F11386A4C";
name = Regular;
paths = (
{
closed = 1;
nodes = (
"843 575 LINE",
"843 590 LINE",
"811 650 LINE",
"709 650 LINE",
"712 664 OFFCURVE",
"717 684 OFFCURVE",
"717 703 CURVE SMOOTH",
"717 737 OFFCURVE",
"695 774 OFFCURVE",
"669 806 CURVE SMOOTH",
"636 844 OFFCURVE",
"592 875 OFFCURVE",
"538 875 CURVE SMOOTH",
"492 875 OFFCURVE",
"314 859 OFFCURVE",
"274 859 CURVE SMOOTH",
"225 859 OFFCURVE",
"191 874 OFFCURVE",
"191 910 CURVE SMOOTH",
"191 931 OFFCURVE",
"199 958 OFFCURVE",
"209 984 CURVE",
"160 991 LINE",
"152 971 OFFCURVE",
"137 931 OFFCURVE",
"137 893 CURVE SMOOTH",
"137 841 OFFCURVE",
"246 772 OFFCURVE",
"360 772 CURVE SMOOTH",
"414 772 OFFCURVE",
"508 787 OFFCURVE",
"555 787 CURVE SMOOTH",
"640 787 OFFCURVE",
"664 733 OFFCURVE",
"664 684 CURVE SMOOTH",
"664 671 OFFCURVE",
"661 660 OFFCURVE",
"656 650 CURVE",
"467 650 LINE",
"467 634 LINE",
"499 575 LINE",
"645 575 LINE",
"645 327 LINE",
"618 310 OFFCURVE",
"589 296 OFFCURVE",
"545 296 CURVE SMOOTH",
"492 296 OFFCURVE",
"432 320 OFFCURVE",
"397 339 CURVE",
"429 368 OFFCURVE",
"451 419 OFFCURVE",
"451 461 CURVE SMOOTH",
"451 557 OFFCURVE",
"336 665 OFFCURVE",
"256 667 CURVE SMOOTH",
"219 667 OFFCURVE",
"133 630 OFFCURVE",
"96 603 CURVE",
"142 516 LINE",
"183 553 OFFCURVE",
"234 586 OFFCURVE",
"290 586 CURVE SMOOTH",
"342 586 OFFCURVE",
"388 544 OFFCURVE",
"388 497 CURVE SMOOTH",
"388 450 OFFCURVE",
"360 425 OFFCURVE",
"328 407 CURVE SMOOTH",
"292 388 OFFCURVE",
"233 382 OFFCURVE",
"197 380 CURVE",
"186 353 LINE",
"221 289 LINE",
"252 293 OFFCURVE",
"315 303 OFFCURVE",
"355 316 CURVE",
"386 290 OFFCURVE",
"399 247 OFFCURVE",
"399 210 CURVE SMOOTH",
"399 150 OFFCURVE",
"350 98 OFFCURVE",
"280 98 CURVE SMOOTH",
"186 98 OFFCURVE",
"93 199 OFFCURVE",
"42 284 CURVE",
"8 262 LINE",
"57 173 OFFCURVE",
"153 18 OFFCURVE",
"317 18 CURVE SMOOTH",
"414 18 OFFCURVE",
"478 77 OFFCURVE",
"478 173 CURVE SMOOTH",
"478 209 OFFCURVE",
"469 240 OFFCURVE",
"455 267 CURVE",
"460 270 LINE",
"498 240 OFFCURVE",
"537 220 OFFCURVE",
"585 220 CURVE SMOOTH",
"609 220 OFFCURVE",
"630 225 OFFCURVE",
"643 232 CURVE",
"645 232 LINE",
"645 -1 LINE",
"717 -42 LINE",
"733 -42 LINE",
"733 575 LINE"
);
}
);
width = 843;
}
);
unicode = 0904;
},
{
glyphname = "a-deva";
lastChange = "2014-06-27 10:25:37 +0100";
layers = (
{
layerId = "39185045-6A8C-415A-8312-7B8F11386A4C";
name = Regular;
paths = (
{
closed = 1;
nodes = (
"843 575 LINE",
"843 590 LINE",
"811 650 LINE",
"467 650 LINE",
"467 634 LINE",
"499 575 LINE",
"645 575 LINE",
"645 327 LINE",
"618 310 OFFCURVE",
"589 296 OFFCURVE",
"545 296 CURVE SMOOTH",
"492 296 OFFCURVE",
"432 320 OFFCURVE",
"397 339 CURVE",
"429 368 OFFCURVE",
"451 419 OFFCURVE",
"451 461 CURVE SMOOTH",
"451 557 OFFCURVE",
"336 665 OFFCURVE",
"256 667 CURVE SMOOTH",
"219 667 OFFCURVE",
"133 630 OFFCURVE",
"96 603 CURVE",
"142 516 LINE",
"183 553 OFFCURVE",
"234 586 OFFCURVE",
"290 586 CURVE SMOOTH",
"342 586 OFFCURVE",
"388 544 OFFCURVE",
"388 497 CURVE SMOOTH",
"388 450 OFFCURVE",
"360 425 OFFCURVE",
"328 407 CURVE SMOOTH",
"292 388 OFFCURVE",
"233 382 OFFCURVE",
"197 380 CURVE",
"186 353 LINE",
"221 289 LINE",
"252 293 OFFCURVE",
"315 303 OFFCURVE",
"355 316 CURVE",
"386 290 OFFCURVE",
"399 247 OFFCURVE",
"399 210 CURVE SMOOTH",
"399 150 OFFCURVE",
"350 98 OFFCURVE",
"280 98 CURVE SMOOTH",
"186 98 OFFCURVE",
"93 199 OFFCURVE",
"42 284 CURVE",
"8 262 LINE",
"57 173 OFFCURVE",
"153 18 OFFCURVE",
"317 18 CURVE SMOOTH",
"414 18 OFFCURVE",
"478 77 OFFCURVE",
"478 173 CURVE SMOOTH",
"478 209 OFFCURVE",
"469 240 OFFCURVE",
"455 267 CURVE",
"460 270 LINE",
"498 240 OFFCURVE",
"537 220 OFFCURVE",
"585 220 CURVE SMOOTH",
"609 220 OFFCURVE",
"630 225 OFFCURVE",
"643 232 CURVE",
"645 232 LINE",
"645 -1 LINE",
"717 -42 LINE",
"733 -42 LINE",
"733 575 LINE"
);
}
);
width = 843;
}
);
unicode = 0905;
},
{
glyphname = "aa-deva";
lastChange = "2014-06-27 10:25:37 +0100";
layers = (
{
layerId = "39185045-6A8C-415A-8312-7B8F11386A4C";
name = Regular;
paths = (
{
closed = 1;
nodes = (
"953 -1 LINE",
"1025 -42 LINE",
"1040 -42 LINE",
"1040 575 LINE",
"1150 575 LINE",
"1150 590 LINE",
"1118 650 LINE",
"467 650 LINE",
"467 634 LINE",
"499 575 LINE",
"645 575 LINE",
"645 327 LINE",
"618 310 OFFCURVE",
"589 296 OFFCURVE",
"545 296 CURVE SMOOTH",
"492 296 OFFCURVE",
"432 320 OFFCURVE",
"397 339 CURVE",
"429 368 OFFCURVE",
"451 419 OFFCURVE",
"451 461 CURVE SMOOTH",
"451 557 OFFCURVE",
"336 665 OFFCURVE",
"256 667 CURVE SMOOTH",
"219 667 OFFCURVE",
"133 630 OFFCURVE",
"96 603 CURVE",
"142 516 LINE",
"183 553 OFFCURVE",
"234 586 OFFCURVE",
"290 586 CURVE SMOOTH",
"342 586 OFFCURVE",
"388 544 OFFCURVE",
"388 497 CURVE SMOOTH",
"388 450 OFFCURVE",
"360 425 OFFCURVE",
"328 407 CURVE SMOOTH",
"292 388 OFFCURVE",
"233 382 OFFCURVE",
"197 380 CURVE",
"186 353 LINE",
"221 289 LINE",
"252 293 OFFCURVE",
"315 303 OFFCURVE",
"355 316 CURVE",
"386 290 OFFCURVE",
"399 247 OFFCURVE",
"399 210 CURVE SMOOTH",
"399 150 OFFCURVE",
"350 98 OFFCURVE",
"280 98 CURVE SMOOTH",
"186 98 OFFCURVE",
"93 199 OFFCURVE",
"42 284 CURVE",
"8 262 LINE",
"57 173 OFFCURVE",
"153 18 OFFCURVE",
"317 18 CURVE SMOOTH",
"414 18 OFFCURVE",
"478 77 OFFCURVE",
"478 173 CURVE SMOOTH",
"478 209 OFFCURVE",
"469 240 OFFCURVE",
"455 267 CURVE",
"460 270 LINE",
"498 240 OFFCURVE",
"537 220 OFFCURVE",
"585 220 CURVE SMOOTH",
"609 220 OFFCURVE",
"630 225 OFFCURVE",
"643 232 CURVE",
"645 232 LINE",
"645 -1 LINE",
"717 -42 LINE",
"733 -42 LINE",
"733 575 LINE",
"953 575 LINE"
);
}
);
width = 1150;
}
);
unicode = 0906;
},
{
glyphname = "i-deva";
lastChange = "2014-06-27 10:25:37 +0100";
layers = (
{
layerId = "39185045-6A8C-415A-8312-7B8F11386A4C";
name = Regular;
paths = (
{
closed = 1;
nodes = (
"517 575 LINE",
"517 590 LINE",
"485 650 LINE",
"-31 650 LINE",
"-31 634 LINE",
"0 575 LINE",
"319 575 LINE",
"319 495 LINE",
"175 495 LINE SMOOTH",
"116 495 OFFCURVE",
"82 447 OFFCURVE",
"82 373 CURVE SMOOTH",
"82 305 OFFCURVE",
"180 214 OFFCURVE",
"226 214 CURVE SMOOTH",
"275 214 OFFCURVE",
"339 244 OFFCURVE",
"372 244 CURVE",
"388 237 OFFCURVE",
"397 201 OFFCURVE",
"397 177 CURVE SMOOTH",
"397 104 OFFCURVE",
"289 72 OFFCURVE",
"175 72 CURVE",
"187 147 LINE",
"180 150 OFFCURVE",
"166 152 OFFCURVE",
"154 152 CURVE SMOOTH",
"119 152 OFFCURVE",
"61 136 OFFCURVE",
"61 81 CURVE SMOOTH",
"61 46 OFFCURVE",
"97 22 OFFCURVE",
"139 10 CURVE",
"294 -168 LINE",
"340 -134 LINE",
"199 -2 LINE",
"207 -3 OFFCURVE",
"215 -3 OFFCURVE",
"222 -3 CURVE SMOOTH",
"336 -3 OFFCURVE",
"441 67 OFFCURVE",
"441 149 CURVE SMOOTH",
"441 223 OFFCURVE",
"391 319 OFFCURVE",
"334 319 CURVE SMOOTH",
"296 319 OFFCURVE",
"231 289 OFFCURVE",
"180 289 CURVE SMOOTH",
"161 289 OFFCURVE",
"139 317 OFFCURVE",
"139 346 CURVE SMOOTH",
"139 374 OFFCURVE",
"151 415 OFFCURVE",
"198 415 CURVE SMOOTH",
"407 415 LINE",
"407 575 LINE"
);
}
);
width = 517;
}
);
unicode = 0907;
},
{
glyphname = "ii-deva";
lastChange = "2014-06-27 10:25:37 +0100";
layers = (
{
layerId = "39185045-6A8C-415A-8312-7B8F11386A4C";
name = Regular;
paths = (
{
closed = 1;
nodes = (
"517 575 LINE",
"517 590 LINE",
"485 650 LINE",
"382 650 LINE",
"342 687 OFFCURVE",
"294 754 OFFCURVE",
"294 814 CURVE SMOOTH",
"294 878 OFFCURVE",
"334 909 OFFCURVE",
"383 909 CURVE SMOOTH",
"427 909 OFFCURVE",
"480 883 OFFCURVE",
"502 866 CURVE",
"528 908 LINE",
"485 953 OFFCURVE",
"427 983 OFFCURVE",
"368 983 CURVE SMOOTH",
"281 983 OFFCURVE",
"199 928 OFFCURVE",
"199 841 CURVE SMOOTH",
"199 774 OFFCURVE",
"252 703 OFFCURVE",
"317 652 CURVE",
"317 650 LINE",
"-31 650 LINE",
"-31 634 LINE",
"0 575 LINE",
"319 575 LINE",
"319 495 LINE",
"175 495 LINE SMOOTH",
"116 495 OFFCURVE",
"82 447 OFFCURVE",
"82 373 CURVE SMOOTH",
"82 305 OFFCURVE",
"180 214 OFFCURVE",
"226 214 CURVE SMOOTH",
"275 214 OFFCURVE",
"339 244 OFFCURVE",
"372 244 CURVE",
"388 237 OFFCURVE",
"397 201 OFFCURVE",
"397 177 CURVE SMOOTH",
"397 104 OFFCURVE",
"289 72 OFFCURVE",
"175 72 CURVE",
"187 147 LINE",
"180 150 OFFCURVE",
"166 152 OFFCURVE",
"154 152 CURVE SMOOTH",
"119 152 OFFCURVE",
"61 136 OFFCURVE",
"61 81 CURVE SMOOTH",
"61 46 OFFCURVE",
"97 22 OFFCURVE",
"139 10 CURVE",
"294 -168 LINE",
"340 -134 LINE",
"199 -2 LINE",
"207 -3 OFFCURVE",
"215 -3 OFFCURVE",
"222 -3 CURVE SMOOTH",
"336 -3 OFFCURVE",
"441 67 OFFCURVE",
"441 149 CURVE SMOOTH",
"441 223 OFFCURVE",
"391 319 OFFCURVE",
"334 319 CURVE SMOOTH",
"296 319 OFFCURVE",
"231 289 OFFCURVE",
"180 289 CURVE SMOOTH",
"161 289 OFFCURVE",
"139 317 OFFCURVE",
"139 346 CURVE SMOOTH",
"139 374 OFFCURVE",
"151 415 OFFCURVE",
"198 415 CURVE SMOOTH",
"407 415 LINE",
"407 575 LINE"
);
}
);
width = 517;
}
);
unicode = 0908;
},
{
glyphname = "u-deva";
lastChange = "2014-06-27 10:25:37 +0100";
layers = (
{
layerId = "39185045-6A8C-415A-8312-7B8F11386A4C";
name = Regular;
paths = (
{
closed = 1;
nodes = (
"25 268 LINE",
"74 180 OFFCURVE",
"208 -10 OFFCURVE",
"382 -10 CURVE SMOOTH",
"483 -10 OFFCURVE",
"542 80 OFFCURVE",
"542 150 CURVE SMOOTH",
"542 223 OFFCURVE",
"476 284 OFFCURVE",
"422 325 CURVE",
"455 350 OFFCURVE",
"478 386 OFFCURVE",
"478 434 CURVE SMOOTH",
"478 470 OFFCURVE",
"442 528 OFFCURVE",
"405 575 CURVE",
"604 575 LINE",
"604 590 LINE",
"573 650 LINE",
"-31 650 LINE",
"-31 634 LINE",
"0 575 LINE",
"334 575 LINE",
"363 554 OFFCURVE",
"410 509 OFFCURVE",
"410 470 CURVE SMOOTH",
"410 415 OFFCURVE",
"364 380 OFFCURVE",
"275 380 CURVE SMOOTH",
"245 380 OFFCURVE",
"209 386 OFFCURVE",
"191 388 CURVE",
"182 371 LINE",
"214 299 LINE",
"239 291 OFFCURVE",
"268 286 OFFCURVE",
"303 286 CURVE SMOOTH",
"326 286 OFFCURVE",
"350 291 OFFCURVE",
"374 299 CURVE",
"411 273 OFFCURVE",
"464 234 OFFCURVE",
"464 179 CURVE SMOOTH",
"464 128 OFFCURVE",
"419 70 OFFCURVE",
"345 70 CURVE SMOOTH",
"237 70 OFFCURVE",
"110 199 OFFCURVE",
"60 294 CURVE"
);
}
);
width = 604;
}
);
unicode = 0909;
},
{
glyphname = "uu-deva";
lastChange = "2014-06-27 10:25:37 +0100";
layers = (
{
layerId = "39185045-6A8C-415A-8312-7B8F11386A4C";
name = Regular;
paths = (
{
closed = 1;
nodes = (
"25 268 LINE",
"74 180 OFFCURVE",
"208 -10 OFFCURVE",
"382 -10 CURVE SMOOTH",
"483 -10 OFFCURVE",
"542 80 OFFCURVE",
"542 150 CURVE SMOOTH",
"542 172 OFFCURVE",
"536 192 OFFCURVE",
"526 212 CURVE",
"578 267 OFFCURVE",
"631 313 OFFCURVE",
"683 313 CURVE SMOOTH",
"724 313 OFFCURVE",
"754 291 OFFCURVE",
"754 243 CURVE SMOOTH",
"754 180 OFFCURVE",
"682 103 OFFCURVE",
"654 72 CURVE",
"749 22 LINE",
"778 71 OFFCURVE",
"805 162 OFFCURVE",
"805 218 CURVE SMOOTH",
"805 315 OFFCURVE",
"724 388 OFFCURVE",
"667 388 CURVE SMOOTH",
"598 388 OFFCURVE",
"521 329 OFFCURVE",
"468 287 CURVE",
"452 301 OFFCURVE",
"436 313 OFFCURVE",
"422 325 CURVE",
"455 350 OFFCURVE",
"478 386 OFFCURVE",
"478 434 CURVE SMOOTH",
"478 470 OFFCURVE",
"442 528 OFFCURVE",
"405 575 CURVE",
"859 575 LINE",
"859 590 LINE",
"827 650 LINE",
"-31 650 LINE",
"-31 634 LINE",
"0 575 LINE",
"334 575 LINE",
"363 554 OFFCURVE",
"410 509 OFFCURVE",
"410 470 CURVE SMOOTH",
"410 415 OFFCURVE",
"364 380 OFFCURVE",
"275 380 CURVE SMOOTH",
"245 380 OFFCURVE",
"209 386 OFFCURVE",
"191 388 CURVE",
"182 371 LINE",
"214 299 LINE",
"239 291 OFFCURVE",
"268 286 OFFCURVE",
"303 286 CURVE SMOOTH",
"326 286 OFFCURVE",
"350 291 OFFCURVE",
"374 299 CURVE",
"411 273 OFFCURVE",
"464 234 OFFCURVE",
"464 179 CURVE SMOOTH",
"464 128 OFFCURVE",
"419 70 OFFCURVE",
"345 70 CURVE SMOOTH",
"237 70 OFFCURVE",
"110 199 OFFCURVE",
"60 294 CURVE"
);
}
);
width = 859;
}
);
unicode = 090A;
},
{
glyphname = "rVocalic-deva";
lastChange = "2014-06-27 10:25:37 +0100";
layers = (
{
layerId = "39185045-6A8C-415A-8312-7B8F11386A4C";
name = Regular;
paths = (
{
closed = 1;
nodes = (
"687 207 LINE",
"630 173 OFFCURVE",
"597 128 OFFCURVE",
"597 88 CURVE SMOOTH",
"597 16 OFFCURVE",
"704 -62 OFFCURVE",
"776 -62 CURVE SMOOTH",
"804 -62 OFFCURVE",
"843 -50 OFFCURVE",
"870 -35 CURVE",
"822 36 LINE",
"794 20 OFFCURVE",
"753 10 OFFCURVE",
"727 10 CURVE SMOOTH",
"685 10 OFFCURVE",
"663 37 OFFCURVE",
"663 60 CURVE SMOOTH",
"663 99 OFFCURVE",
"698 128 OFFCURVE",
"767 164 CURVE",
"695 339 LINE",
"711 355 OFFCURVE",
"719 374 OFFCURVE",
"719 395 CURVE SMOOTH",
"719 437 OFFCURVE",
"686 465 OFFCURVE",
"642 465 CURVE SMOOTH",
"621 465 OFFCURVE",
"596 453 OFFCURVE",
"588 444 CURVE",
"617 369 LINE",
"581 344 OFFCURVE",
"537 333 OFFCURVE",
"489 334 CURVE",
"489 575 LINE",
"870 575 LINE",
"870 590 LINE",
"838 650 LINE",
"-31 650 LINE",
"-31 634 LINE",
"0 575 LINE",
"401 575 LINE",
"401 361 LINE",
"331 417 OFFCURVE",
"251 466 OFFCURVE",
"185 466 CURVE SMOOTH",
"138 466 OFFCURVE",
"55 440 OFFCURVE",
"34 432 CURVE",
"82 346 LINE",
"112 357 OFFCURVE",
"173 381 OFFCURVE",
"224 381 CURVE SMOOTH",
"276 381 OFFCURVE",
"333 367 OFFCURVE",
"399 310 CURVE",
"84 105 LINE",
"144 38 LINE",
"402 225 LINE",
"403 222 LINE",
"399 0 LINE",
"473 -42 LINE",
"489 -42 LINE",
"489 270 LINE",
"541 264 OFFCURVE",
"601 278 OFFCURVE",
"648 304 CURVE"
);
}
);
width = 870;
}
);
unicode = 090B;
},
{
glyphname = "lVocalic-deva";
lastChange = "2014-06-27 10:25:37 +0100";
layers = (
{
layerId = "39185045-6A8C-415A-8312-7B8F11386A4C";
name = Regular;
paths = (
{
closed = 1;
nodes = (
"622 180 OFFCURVE",
"450 114 OFFCURVE",
"450 34 CURVE SMOOTH",
"450 -39 OFFCURVE",
"563 -104 OFFCURVE",
"619 -104 CURVE SMOOTH",
"674 -104 OFFCURVE",
"719 -81 OFFCURVE",
"779 -29 CURVE",
"716 29 LINE",
"686 -8 OFFCURVE",
"643 -54 OFFCURVE",
"594 -54 CURVE SMOOTH",
"556 -54 OFFCURVE",
"533 -32 OFFCURVE",
"533 -1 CURVE SMOOTH",
"533 75 OFFCURVE",
"705 156 OFFCURVE",
"705 273 CURVE SMOOTH",
"705 342 OFFCURVE",
"632 403 OFFCURVE",
"571 427 CURVE",
"571 575 LINE",
"757 575 LINE",
"757 590 LINE",
"726 650 LINE",
"-31 650 LINE",
"-31 634 LINE",
"0 575 LINE",
"483 575 LINE",
"483 434 LINE",
"435 424 OFFCURVE",
"397 392 OFFCURVE",
"368 353 CURVE",
"322 407 OFFCURVE",
"250 454 OFFCURVE",
"186 454 CURVE SMOOTH",
"105 454 OFFCURVE",
"45 389 OFFCURVE",
"45 303 CURVE SMOOTH",
"45 180 OFFCURVE",
"139 51 OFFCURVE",
"191 -17 CURVE",
"226 3 LINE",
"180 67 OFFCURVE",
"124 149 OFFCURVE",
"124 265 CURVE SMOOTH",
"124 331 OFFCURVE",
"168 375 OFFCURVE",
"223 375 CURVE SMOOTH",
"256 375 OFFCURVE",
"309 350 OFFCURVE",
"343 315 CURVE",
"320 276 OFFCURVE",
"305 233 OFFCURVE",
"296 193 CURVE",
"294 193 OFFCURVE",
"381 156 OFFCURVE",
"381 156 CURVE",
"398 236 OFFCURVE",
"440 386 OFFCURVE",
"547 386 CURVE SMOOTH",
"565 386 OFFCURVE",
"622 360 OFFCURVE",
"622 308 CURVE SMOOTH"
);
}
);
width = 757;
}
);
unicode = 090C;
},
{
glyphname = "eCandra-deva";
lastChange = "2014-06-27 10:25:37 +0100";
layers = (
{
layerId = "39185045-6A8C-415A-8312-7B8F11386A4C";
name = Regular;
paths = (
{
closed = 1;
nodes = (
"399 325 LINE SMOOTH",
"399 281 OFFCURVE",
"362 263 OFFCURVE",
"319 244 CURVE",
"319 233 LINE",
"384 189 LINE",
"427 204 OFFCURVE",
"487 242 OFFCURVE",
"487 342 CURVE SMOOTH",
"487 575 LINE",
"588 575 LINE",
"588 590 LINE",
"556 650 LINE",
"-31 650 LINE",
"-31 634 LINE",
"0 575 LINE",
"91 575 LINE",
"91 279 LINE SMOOTH",
"91 232 OFFCURVE",
"103 211 OFFCURVE",
"199 147 CURVE SMOOTH",
"559 -95 LINE",
"505 -154 LINE",
"505 -156 LINE",
"514 -176 OFFCURVE",
"536 -202 OFFCURVE",
"573 -202 CURVE SMOOTH",
"613 -202 OFFCURVE",
"647 -180 OFFCURVE",
"647 -136 CURVE SMOOTH",
"647 -101 OFFCURVE",
"625 -73 OFFCURVE",
"529 -10 CURVE SMOOTH",
"224 197 LINE SMOOTH",
"186 223 OFFCURVE",
"180 240 OFFCURVE",
"180 268 CURVE SMOOTH",
"180 575 LINE",
"399 575 LINE"
);
},
{
closed = 1;
nodes = (
"433 918 LINE",
"406 874 OFFCURVE",
"345 818 OFFCURVE",
"257 818 CURVE SMOOTH",
"191 818 OFFCURVE",
"139 867 OFFCURVE",
"98 925 CURVE",
"65 911 LINE",
"104 843 OFFCURVE",
"183 752 OFFCURVE",
"295 752 CURVE SMOOTH",
"392 752 OFFCURVE",
"451 798 OFFCURVE",
"498 857 CURVE"
);
}
);
width = 588;
}
);
unicode = 090D;
},
{
glyphname = "eShort-deva";
lastChange = "2014-06-27 10:25:37 +0100";
layers = (
{
layerId = "39185045-6A8C-415A-8312-7B8F11386A4C";
name = Regular;
paths = (
{
closed = 1;
nodes = (
"399 325 LINE SMOOTH",
"399 281 OFFCURVE",
"362 263 OFFCURVE",
"319 244 CURVE",
"319 233 LINE",
"384 189 LINE",
"427 204 OFFCURVE",
"487 242 OFFCURVE",
"487 342 CURVE SMOOTH",
"487 575 LINE",
"588 575 LINE",
"588 590 LINE",
"556 650 LINE",
"468 650 LINE",
"472 664 OFFCURVE",
"477 684 OFFCURVE",
"477 703 CURVE SMOOTH",
"477 737 OFFCURVE",
"455 774 OFFCURVE",
"427 806 CURVE SMOOTH",
"396 844 OFFCURVE",
"351 875 OFFCURVE",
"297 875 CURVE SMOOTH",
"252 875 OFFCURVE",
"74 859 OFFCURVE",
"33 859 CURVE SMOOTH",
"-15 859 OFFCURVE",
"-49 874 OFFCURVE",
"-49 910 CURVE SMOOTH",
"-49 931 OFFCURVE",
"-41 958 OFFCURVE",
"-31 984 CURVE",
"-81 991 LINE",
"-88 971 OFFCURVE",
"-104 931 OFFCURVE",
"-104 893 CURVE SMOOTH",
"-104 841 OFFCURVE",
"6 772 OFFCURVE",
"120 772 CURVE SMOOTH",
"174 772 OFFCURVE",
"268 787 OFFCURVE",
"314 787 CURVE SMOOTH",
"400 787 OFFCURVE",
"424 733 OFFCURVE",
"424 684 CURVE SMOOTH",
"424 671 OFFCURVE",
"421 660 OFFCURVE",
"416 650 CURVE",
"-31 650 LINE",
"-31 634 LINE",
"0 575 LINE",
"91 575 LINE",
"91 279 LINE SMOOTH",
"91 232 OFFCURVE",
"103 211 OFFCURVE",
"199 147 CURVE SMOOTH",
"559 -95 LINE",
"505 -154 LINE",
"505 -156 LINE",
"514 -176 OFFCURVE",
"536 -202 OFFCURVE",
"573 -202 CURVE SMOOTH",
"613 -202 OFFCURVE",
"647 -180 OFFCURVE",
"647 -136 CURVE SMOOTH",
"647 -101 OFFCURVE",
"625 -73 OFFCURVE",
"529 -10 CURVE SMOOTH",
"224 197 LINE SMOOTH",
"186 223 OFFCURVE",
"180 240 OFFCURVE",
"180 268 CURVE SMOOTH",
"180 575 LINE",
"399 575 LINE"
);
}
);
width = 588;
}
);
unicode = 090E;
},
{
glyphname = "e-deva";
lastChange = "2014-06-27 10:25:37 +0100";
layers = (
{
layerId = "39185045-6A8C-415A-8312-7B8F11386A4C";
name = Regular;
paths = (
{
closed = 1;
nodes = (
"399 325 LINE SMOOTH",
"399 281 OFFCURVE",
"362 263 OFFCURVE",
"319 244 CURVE",
"319 233 LINE",
"384 189 LINE",
"427 204 OFFCURVE",
"487 242 OFFCURVE",
"487 342 CURVE SMOOTH",
"487 575 LINE",
"588 575 LINE",
"588 590 LINE",
"556 650 LINE",
"-31 650 LINE",
"-31 634 LINE",
"0 575 LINE",
"91 575 LINE",
"91 279 LINE SMOOTH",
"91 232 OFFCURVE",
"103 211 OFFCURVE",
"199 147 CURVE SMOOTH",
"559 -95 LINE",
"505 -154 LINE",
"505 -156 LINE",
"514 -176 OFFCURVE",
"536 -202 OFFCURVE",
"573 -202 CURVE SMOOTH",
"613 -202 OFFCURVE",
"647 -180 OFFCURVE",
"647 -136 CURVE SMOOTH",
"647 -101 OFFCURVE",
"625 -73 OFFCURVE",
"529 -10 CURVE SMOOTH",
"224 197 LINE SMOOTH",
"186 223 OFFCURVE",
"180 240 OFFCURVE",
"180 268 CURVE SMOOTH",
"180 575 LINE",
"399 575 LINE"
);
}
);
width = 588;
}
);
unicode = 090F;
},
{
glyphname = "ai-deva";
lastChange = "2014-06-27 10:25:37 +0100";
layers = (
{
layerId = "39185045-6A8C-415A-8312-7B8F11386A4C";
name = Regular;
paths = (
{
closed = 1;
nodes = (
"399 325 LINE SMOOTH",
"399 281 OFFCURVE",
"362 263 OFFCURVE",
"319 244 CURVE",
"319 233 LINE",
"384 189 LINE",
"427 204 OFFCURVE",
"487 242 OFFCURVE",
"487 342 CURVE SMOOTH",
"487 575 LINE",
"588 575 LINE",
"588 590 LINE",
"556 650 LINE",
"465 650 LINE",
"446 692 OFFCURVE",
"410 765 OFFCURVE",
"391 801 CURVE SMOOTH",
"327 924 OFFCURVE",
"262 1018 OFFCURVE",
"164 1018 CURVE SMOOTH",
"121 1018 OFFCURVE",
"93 996 OFFCURVE",
"93 956 CURVE SMOOTH",
"93 928 OFFCURVE",
"109 900 OFFCURVE",
"128 885 CURVE",
"247 921 LINE",
"269 910 OFFCURVE",
"309 844 OFFCURVE",
"360 753 CURVE SMOOTH",
"369 738 OFFCURVE",
"396 682 OFFCURVE",
"411 650 CURVE",
"-31 650 LINE",
"-31 634 LINE",
"0 575 LINE",
"91 575 LINE",
"91 279 LINE SMOOTH",
"91 232 OFFCURVE",
"103 211 OFFCURVE",
"199 147 CURVE SMOOTH",
"559 -95 LINE",
"505 -154 LINE",
"505 -156 LINE",
"514 -176 OFFCURVE",
"536 -202 OFFCURVE",
"573 -202 CURVE SMOOTH",
"613 -202 OFFCURVE",
"647 -180 OFFCURVE",
"647 -136 CURVE SMOOTH",
"647 -101 OFFCURVE",
"625 -73 OFFCURVE",
"529 -10 CURVE SMOOTH",
"224 197 LINE SMOOTH",
"186 223 OFFCURVE",
"180 240 OFFCURVE",
"180 268 CURVE SMOOTH",
"180 575 LINE",
"399 575 LINE"
);
}
);
width = 588;
}
);
unicode = 0910;
},
{
glyphname = "oCandra-deva";
lastChange = "2014-06-27 10:25:37 +0100";
layers = (
{
layerId = "39185045-6A8C-415A-8312-7B8F11386A4C";
name = Regular;
paths = (
{
closed = 1;
nodes = (
"953 -1 LINE",
"1025 -42 LINE",
"1040 -42 LINE",
"1040 575 LINE",
"1150 575 LINE",
"1150 590 LINE",
"1118 650 LINE",
"467 650 LINE",
"467 634 LINE",
"499 575 LINE",
"645 575 LINE",
"645 327 LINE",
"618 310 OFFCURVE",
"589 296 OFFCURVE",
"545 296 CURVE SMOOTH",
"492 296 OFFCURVE",
"432 320 OFFCURVE",
"397 339 CURVE",
"429 368 OFFCURVE",
"451 419 OFFCURVE",
"451 461 CURVE SMOOTH",
"451 557 OFFCURVE",
"336 665 OFFCURVE",
"256 667 CURVE SMOOTH",
"219 667 OFFCURVE",
"133 630 OFFCURVE",
"96 603 CURVE",
"142 516 LINE",
"183 553 OFFCURVE",
"234 586 OFFCURVE",
"290 586 CURVE SMOOTH",
"342 586 OFFCURVE",
"388 544 OFFCURVE",
"388 497 CURVE SMOOTH",
"388 450 OFFCURVE",
"360 425 OFFCURVE",
"328 407 CURVE SMOOTH",
"292 388 OFFCURVE",
"233 382 OFFCURVE",
"197 380 CURVE",
"186 353 LINE",
"221 289 LINE",
"252 293 OFFCURVE",
"315 303 OFFCURVE",
"355 316 CURVE",
"386 290 OFFCURVE",
"399 247 OFFCURVE",
"399 210 CURVE SMOOTH",
"399 150 OFFCURVE",
"350 98 OFFCURVE",
"280 98 CURVE SMOOTH",
"186 98 OFFCURVE",
"93 199 OFFCURVE",
"42 284 CURVE",
"8 262 LINE",
"57 173 OFFCURVE",
"153 18 OFFCURVE",
"317 18 CURVE SMOOTH",
"414 18 OFFCURVE",
"478 77 OFFCURVE",
"478 173 CURVE SMOOTH",
"478 209 OFFCURVE",
"469 240 OFFCURVE",
"455 267 CURVE",
"460 270 LINE",
"498 240 OFFCURVE",
"537 220 OFFCURVE",
"585 220 CURVE SMOOTH",
"609 220 OFFCURVE",
"630 225 OFFCURVE",
"643 232 CURVE",
"645 232 LINE",
"645 -1 LINE",
"717 -42 LINE",
"733 -42 LINE",
"733 575 LINE",
"953 575 LINE"
);
},
{
closed = 1;
nodes = (
"1147 918 LINE",
"1119 874 OFFCURVE",
"1058 818 OFFCURVE",
"971 818 CURVE SMOOTH",
"905 818 OFFCURVE",
"852 867 OFFCURVE",
"811 925 CURVE",
"779 911 LINE",
"819 843 OFFCURVE",
"897 752 OFFCURVE",
"1009 752 CURVE SMOOTH",
"1107 752 OFFCURVE",
"1165 798 OFFCURVE",
"1211 857 CURVE"
);
}
);
width = 1150;
}
);
unicode = 0911;
},
{
glyphname = "oShort-deva";
lastChange = "2014-06-27 10:25:37 +0100";
layers = (
{
layerId = "39185045-6A8C-415A-8312-7B8F11386A4C";
name = Regular;
paths = (
{
closed = 1;
nodes = (
"953 -1 LINE",
"1025 -42 LINE",
"1040 -42 LINE",
"1040 575 LINE",
"1150 575 LINE",
"1150 590 LINE",
"1118 650 LINE",
"1015 650 LINE",
"1020 664 OFFCURVE",
"1025 684 OFFCURVE",
"1025 703 CURVE SMOOTH",
"1025 737 OFFCURVE",
"1002 774 OFFCURVE",
"976 806 CURVE SMOOTH",
"944 844 OFFCURVE",
"900 875 OFFCURVE",
"844 875 CURVE SMOOTH",
"799 875 OFFCURVE",
"622 859 OFFCURVE",
"581 859 CURVE SMOOTH",
"533 859 OFFCURVE",
"499 874 OFFCURVE",
"499 910 CURVE SMOOTH",
"499 931 OFFCURVE",
"507 958 OFFCURVE",
"516 984 CURVE",
"467 991 LINE",
"460 971 OFFCURVE",
"444 931 OFFCURVE",
"444 893 CURVE SMOOTH",
"444 841 OFFCURVE",
"553 772 OFFCURVE",
"668 772 CURVE SMOOTH",
"721 772 OFFCURVE",
"816 787 OFFCURVE",
"862 787 CURVE SMOOTH",
"948 787 OFFCURVE",
"971 733 OFFCURVE",
"971 684 CURVE SMOOTH",
"971 671 OFFCURVE",
"968 660 OFFCURVE",
"963 650 CURVE",
"467 650 LINE",
"467 634 LINE",
"499 575 LINE",
"645 575 LINE",
"645 327 LINE",
"618 310 OFFCURVE",
"589 296 OFFCURVE",
"545 296 CURVE SMOOTH",
"492 296 OFFCURVE",
"432 320 OFFCURVE",
"397 339 CURVE",
"429 368 OFFCURVE",
"451 419 OFFCURVE",
"451 461 CURVE SMOOTH",
"451 557 OFFCURVE",
"336 665 OFFCURVE",
"256 667 CURVE SMOOTH",
"219 667 OFFCURVE",
"133 630 OFFCURVE",
"96 603 CURVE",
"142 516 LINE",
"183 553 OFFCURVE",
"234 586 OFFCURVE",
"290 586 CURVE SMOOTH",
"342 586 OFFCURVE",
"388 544 OFFCURVE",
"388 497 CURVE SMOOTH",
"388 450 OFFCURVE",
"360 425 OFFCURVE",
"328 407 CURVE SMOOTH",
"292 388 OFFCURVE",
"233 382 OFFCURVE",
"197 380 CURVE",
"186 353 LINE",
"221 289 LINE",
"252 293 OFFCURVE",
"315 303 OFFCURVE",
"355 316 CURVE",
"386 290 OFFCURVE",
"399 247 OFFCURVE",
"399 210 CURVE SMOOTH",
"399 150 OFFCURVE",
"350 98 OFFCURVE",
"280 98 CURVE SMOOTH",
"186 98 OFFCURVE",
"93 199 OFFCURVE",
"42 284 CURVE",
"8 262 LINE",
"57 173 OFFCURVE",
"153 18 OFFCURVE",
"317 18 CURVE SMOOTH",
"414 18 OFFCURVE",
"478 77 OFFCURVE",
"478 173 CURVE SMOOTH",
"478 209 OFFCURVE",
"469 240 OFFCURVE",
"455 267 CURVE",
"460 270 LINE",
"498 240 OFFCURVE",
"537 220 OFFCURVE",
"585 220 CURVE SMOOTH",
"609 220 OFFCURVE",
"630 225 OFFCURVE",
"643 232 CURVE",
"645 232 LINE",
"645 -1 LINE",
"717 -42 LINE",
"733 -42 LINE",
"733 575 LINE",
"953 575 LINE"
);
}
);
width = 1150;
}
);
unicode = 0912;
},
{
glyphname = "o-deva";
lastChange = "2014-06-27 10:25:37 +0100";
layers = (
{
layerId = "39185045-6A8C-415A-8312-7B8F11386A4C";
name = Regular;
paths = (
{
closed = 1;
nodes = (
"953 -1 LINE",
"1025 -42 LINE",
"1040 -42 LINE",
"1040 575 LINE",
"1150 575 LINE",
"1150 590 LINE",
"1118 650 LINE",
"1003 650 LINE",
"985 692 OFFCURVE",
"949 765 OFFCURVE",
"930 801 CURVE SMOOTH",
"865 924 OFFCURVE",
"800 1018 OFFCURVE",
"703 1018 CURVE SMOOTH",
"659 1018 OFFCURVE",
"631 996 OFFCURVE",
"631 956 CURVE SMOOTH",
"631 928 OFFCURVE",
"648 900 OFFCURVE",
"667 885 CURVE",
"786 921 LINE",
"807 910 OFFCURVE",
"847 844 OFFCURVE",
"899 753 CURVE SMOOTH",
"908 738 OFFCURVE",
"935 682 OFFCURVE",
"950 650 CURVE",
"467 650 LINE",
"467 634 LINE",
"499 575 LINE",
"645 575 LINE",
"645 327 LINE",
"618 310 OFFCURVE",
"589 296 OFFCURVE",
"545 296 CURVE SMOOTH",
"492 296 OFFCURVE",
"432 320 OFFCURVE",
"397 339 CURVE",
"429 368 OFFCURVE",
"451 419 OFFCURVE",
"451 461 CURVE SMOOTH",
"451 557 OFFCURVE",
"336 665 OFFCURVE",
"256 667 CURVE SMOOTH",
"219 667 OFFCURVE",
"133 630 OFFCURVE",
"96 603 CURVE",
"142 516 LINE",
"183 553 OFFCURVE",
"234 586 OFFCURVE",
"290 586 CURVE SMOOTH",
"342 586 OFFCURVE",
"388 544 OFFCURVE",
"388 497 CURVE SMOOTH",
"388 450 OFFCURVE",
"360 425 OFFCURVE",
"328 407 CURVE SMOOTH",
"292 388 OFFCURVE",
"233 382 OFFCURVE",
"197 380 CURVE",
"186 353 LINE",
"221 289 LINE",
"252 293 OFFCURVE",
"315 303 OFFCURVE",
"355 316 CURVE",
"386 290 OFFCURVE",
"399 247 OFFCURVE",
"399 210 CURVE SMOOTH",
"399 150 OFFCURVE",
"350 98 OFFCURVE",
"280 98 CURVE SMOOTH",
"186 98 OFFCURVE",
"93 199 OFFCURVE",
"42 284 CURVE",
"8 262 LINE",
"57 173 OFFCURVE",
"153 18 OFFCURVE",
"317 18 CURVE SMOOTH",
"414 18 OFFCURVE",
"478 77 OFFCURVE",
"478 173 CURVE SMOOTH",
"478 209 OFFCURVE",
"469 240 OFFCURVE",
"455 267 CURVE",
"460 270 LINE",
"498 240 OFFCURVE",
"537 220 OFFCURVE",
"585 220 CURVE SMOOTH",
"609 220 OFFCURVE",
"630 225 OFFCURVE",
"643 232 CURVE",
"645 232 LINE",
"645 -1 LINE",
"717 -42 LINE",
"733 -42 LINE",
"733 575 LINE",
"953 575 LINE"
);
}
);
width = 1150;
}
);
unicode = 0913;
},
{
glyphname = "au-deva";
lastChange = "2014-06-27 10:25:37 +0100";
layers = (
{
layerId = "39185045-6A8C-415A-8312-7B8F11386A4C";
name = Regular;
paths = (
{
closed = 1;
nodes = (
"953 -1 LINE",
"1025 -42 LINE",
"1040 -42 LINE",
"1040 575 LINE",
"1150 575 LINE",
"1150 590 LINE",
"1118 650 LINE",
"1024 650 LINE",
"1008 698 OFFCURVE",
"978 765 OFFCURVE",
"962 801 CURVE SMOOTH",
"908 928 OFFCURVE",
"837 1045 OFFCURVE",
"721 1045 CURVE SMOOTH",
"677 1045 OFFCURVE",
"650 1023 OFFCURVE",
"650 983 CURVE SMOOTH",
"650 956 OFFCURVE",
"667 927 OFFCURVE",
"685 913 CURVE",
"687 913 LINE",
"822 950 LINE",
"846 927 OFFCURVE",
"900 840 OFFCURVE",
"945 749 CURVE SMOOTH",
"954 732 OFFCURVE",
"974 684 OFFCURVE",
"989 650 CURVE",
"957 650 LINE",
"887 760 OFFCURVE",
"802 869 OFFCURVE",
"703 869 CURVE SMOOTH",
"664 869 OFFCURVE",
"635 846 OFFCURVE",
"635 811 CURVE SMOOTH",
"635 793 OFFCURVE",
"648 769 OFFCURVE",
"667 754 CURVE",
"669 754 LINE",
"812 772 LINE",
"826 765 OFFCURVE",
"888 691 OFFCURVE",
"920 650 CURVE",
"467 650 LINE",
"467 634 LINE",
"499 575 LINE",
"645 575 LINE",
"645 327 LINE",
"618 310 OFFCURVE",
"589 296 OFFCURVE",
"545 296 CURVE SMOOTH",
"492 296 OFFCURVE",
"432 320 OFFCURVE",
"397 339 CURVE",
"429 368 OFFCURVE",
"451 419 OFFCURVE",
"451 461 CURVE SMOOTH",
"451 557 OFFCURVE",
"336 665 OFFCURVE",
"256 667 CURVE SMOOTH",
"219 667 OFFCURVE",
"133 630 OFFCURVE",
"96 603 CURVE",
"142 516 LINE",
"183 553 OFFCURVE",
"234 586 OFFCURVE",
"290 586 CURVE SMOOTH",
"342 586 OFFCURVE",
"388 544 OFFCURVE",
"388 497 CURVE SMOOTH",
"388 450 OFFCURVE",
"360 425 OFFCURVE",
"328 407 CURVE SMOOTH",
"292 388 OFFCURVE",
"233 382 OFFCURVE",
"197 380 CURVE",
"186 353 LINE",
"221 289 LINE",
"252 293 OFFCURVE",
"315 303 OFFCURVE",
"355 316 CURVE",
"386 290 OFFCURVE",
"399 247 OFFCURVE",
"399 210 CURVE SMOOTH",
"399 150 OFFCURVE",
"350 98 OFFCURVE",
"280 98 CURVE SMOOTH",
"186 98 OFFCURVE",
"93 199 OFFCURVE",
"42 284 CURVE",
"8 262 LINE",
"57 173 OFFCURVE",
"153 18 OFFCURVE",
"317 18 CURVE SMOOTH",
"414 18 OFFCURVE",
"478 77 OFFCURVE",
"478 173 CURVE SMOOTH",
"478 209 OFFCURVE",
"469 240 OFFCURVE",
"455 267 CURVE",
"460 270 LINE",
"498 240 OFFCURVE",
"537 220 OFFCURVE",
"585 220 CURVE SMOOTH",
"609 220 OFFCURVE",
"630 225 OFFCURVE",
"643 232 CURVE",
"645 232 LINE",
"645 -1 LINE",
"717 -42 LINE",
"733 -42 LINE",
"733 575 LINE",
"953 575 LINE"
);
}
);
width = 1150;
}
);
unicode = 0914;
},
{
glyphname = "rrVocalic-deva";
lastChange = "2014-06-27 10:25:37 +0100";
layers = (
{
layerId = "39185045-6A8C-415A-8312-7B8F11386A4C";
name = Regular;
paths = (
{
closed = 1;
nodes = (
"687 207 LINE",
"630 173 OFFCURVE",
"597 128 OFFCURVE",
"597 88 CURVE SMOOTH",
"597 42 OFFCURVE",
"636 -4 OFFCURVE",
"685 -30 CURVE",
"672 -52 OFFCURVE",
"669 -76 OFFCURVE",
"669 -96 CURVE SMOOTH",
"669 -168 OFFCURVE",
"771 -242 OFFCURVE",
"843 -242 CURVE SMOOTH",
"872 -242 OFFCURVE",
"911 -230 OFFCURVE",
"938 -216 CURVE",
"889 -143 LINE",
"862 -160 OFFCURVE",
"822 -171 OFFCURVE",
"794 -171 CURVE SMOOTH",
"752 -171 OFFCURVE",
"730 -141 OFFCURVE",
"730 -118 CURVE SMOOTH",
"730 -96 OFFCURVE",
"739 -71 OFFCURVE",
"761 -55 CURVE",
"767 -55 LINE SMOOTH",
"794 -55 OFFCURVE",
"834 -43 OFFCURVE",
"861 -28 CURVE",
"812 44 LINE",
"786 28 OFFCURVE",
"745 17 OFFCURVE",
"717 17 CURVE SMOOTH",
"675 17 OFFCURVE",
"663 37 OFFCURVE",
"663 60 CURVE SMOOTH",
"663 99 OFFCURVE",
"698 128 OFFCURVE",
"767 164 CURVE",
"695 339 LINE",
"711 355 OFFCURVE",
"719 374 OFFCURVE",
"719 395 CURVE SMOOTH",
"719 437 OFFCURVE",
"686 465 OFFCURVE",
"642 465 CURVE SMOOTH",
"621 465 OFFCURVE",
"596 453 OFFCURVE",
"588 444 CURVE",
"617 369 LINE",
"581 344 OFFCURVE",
"537 333 OFFCURVE",
"489 334 CURVE",
"489 575 LINE",
"870 575 LINE",
"870 590 LINE",
"838 650 LINE",
"-31 650 LINE",
"-31 634 LINE",
"0 575 LINE",
"401 575 LINE",
"401 361 LINE",
"331 417 OFFCURVE",
"251 466 OFFCURVE",
"185 466 CURVE SMOOTH",
"138 466 OFFCURVE",
"55 440 OFFCURVE",
"34 432 CURVE",
"82 346 LINE",
"112 357 OFFCURVE",
"173 381 OFFCURVE",
"224 381 CURVE SMOOTH",
"276 381 OFFCURVE",
"333 367 OFFCURVE",
"399 310 CURVE",
"84 105 LINE",
"144 38 LINE",
"402 225 LINE",
"403 222 LINE",
"399 0 LINE",
"473 -42 LINE",
"489 -42 LINE",
"489 270 LINE",
"541 264 OFFCURVE",
"601 278 OFFCURVE",
"648 304 CURVE"
);
}
);
width = 870;
}
);
unicode = 0960;
},
{
glyphname = "llVocalic-deva";
lastChange = "2014-06-27 10:25:37 +0100";
layers = (
{
layerId = "39185045-6A8C-415A-8312-7B8F11386A4C";
name = Regular;
paths = (
{
closed = 1;
nodes = (
"622 180 OFFCURVE",
"450 114 OFFCURVE",
"450 34 CURVE SMOOTH",
"450 -30 OFFCURVE",
"539 -89 OFFCURVE",
"597 -102 CURVE",
"590 -114 OFFCURVE",
"587 -126 OFFCURVE",
"587 -137 CURVE SMOOTH",
"587 -210 OFFCURVE",
"691 -248 OFFCURVE",
"747 -248 CURVE SMOOTH",
"802 -248 OFFCURVE",
"846 -224 OFFCURVE",
"906 -173 CURVE",
"843 -113 LINE",
"813 -150 OFFCURVE",
"770 -197 OFFCURVE",
"721 -197 CURVE SMOOTH",
"683 -197 OFFCURVE",
"660 -176 OFFCURVE",
"660 -143 CURVE SMOOTH",
"660 -126 OFFCURVE",
"674 -105 OFFCURVE",
"691 -89 CURVE",
"719 -76 OFFCURVE",
"747 -57 OFFCURVE",
"779 -29 CURVE",
"716 29 LINE",
"686 -8 OFFCURVE",
"643 -54 OFFCURVE",
"594 -54 CURVE SMOOTH",
"556 -54 OFFCURVE",
"533 -32 OFFCURVE",
"533 -1 CURVE SMOOTH",
"533 75 OFFCURVE",
"705 156 OFFCURVE",
"705 273 CURVE SMOOTH",
"705 342 OFFCURVE",
"632 403 OFFCURVE",
"571 427 CURVE",
"571 575 LINE",
"757 575 LINE",
"757 590 LINE",
"726 650 LINE",
"-31 650 LINE",
"-31 634 LINE",
"0 575 LINE",
"483 575 LINE",
"483 434 LINE",
"435 424 OFFCURVE",
"397 392 OFFCURVE",
"368 353 CURVE",
"322 407 OFFCURVE",
"250 454 OFFCURVE",
"186 454 CURVE SMOOTH",
"105 454 OFFCURVE",
"45 389 OFFCURVE",
"45 303 CURVE SMOOTH",
"45 180 OFFCURVE",
"139 51 OFFCURVE",
"191 -17 CURVE",
"226 3 LINE",
"180 67 OFFCURVE",
"124 149 OFFCURVE",
"124 265 CURVE SMOOTH",
"124 331 OFFCURVE",
"168 375 OFFCURVE",
"223 375 CURVE SMOOTH",
"256 375 OFFCURVE",
"309 350 OFFCURVE",
"343 315 CURVE",
"320 276 OFFCURVE",
"305 233 OFFCURVE",
"296 193 CURVE",
"294 193 OFFCURVE",
"381 156 OFFCURVE",
"381 156 CURVE",
"398 236 OFFCURVE",
"440 386 OFFCURVE",
"547 386 CURVE SMOOTH",
"565 386 OFFCURVE",
"622 360 OFFCURVE",
"622 308 CURVE SMOOTH"
);
}
);
width = 757;
}
);
unicode = 0961;
},
{
glyphname = "ka-deva";
lastChange = "2014-06-27 10:25:37 +0100";
layers = (
{
anchors = (
{
name = _nukta;
position = "{232, 120}";
},
{
name = bottom;
position = "{445, 0}";
},
{
name = top;
position = "{445, 650}";
}
);
background = {
paths = (
{
closed = 1;
nodes = (
"227 -102 LINE",
"305 -23 LINE",
"226 55 LINE",
"149 -24 LINE"
);
},
{
closed = 1;
nodes = (
"-31 650 LINE",
"-31 634 LINE",
"0 575 LINE",
"401 575 LINE",
"401 185 LINE",
"403 184 LINE",
"399 0 LINE",
"473 -42 LINE",
"489 -42 LINE",
"489 575 LINE",
"851 575 LINE",
"851 590 LINE",
"820 650 LINE"
);
},
{
closed = 1;
nodes = (
"114 464 OFFCURVE",
"54 378 OFFCURVE",
"54 293 CURVE SMOOTH",
"54 178 OFFCURVE",
"134 111 OFFCURVE",
"233 111 CURVE SMOOTH",
"316 111 OFFCURVE",
"365 157 OFFCURVE",
"423 206 CURVE SMOOTH",
"471 249 LINE",
"527 303 OFFCURVE",
"592 360 OFFCURVE",
"658 360 CURVE SMOOTH",
"709 360 OFFCURVE",
"749 318 OFFCURVE",
"749 262 CURVE SMOOTH",
"749 203 OFFCURVE",
"692 128 OFFCURVE",
"665 98 CURVE",
"733 26 LINE",
"766 76 OFFCURVE",
"799 181 OFFCURVE",
"799 237 CURVE SMOOTH",
"799 352 OFFCURVE",
"746 434 OFFCURVE",
"632 434 CURVE SMOOTH",
"571 434 OFFCURVE",
"507 385 OFFCURVE",
"464 340 CURVE SMOOTH",
"423 305 LINE",
"377 253 OFFCURVE",
"294 188 OFFCURVE",
"199 188 CURVE SMOOTH",
"155 188 OFFCURVE",
"102 217 OFFCURVE",
"102 269 CURVE SMOOTH",
"102 342 OFFCURVE",
"181 374 OFFCURVE",
"243 374 CURVE SMOOTH",
"312 374 OFFCURVE",
"382 319 OFFCURVE",
"408 276 CURVE",
"414 315 LINE",
"375 383 OFFCURVE",
"321 464 OFFCURVE",
"210 464 CURVE SMOOTH"
);
}
);
};
layerId = "39185045-6A8C-415A-8312-7B8F11386A4C";
name = Regular;
paths = (
{
closed = 1;
nodes = (
"851 575 LINE",
"851 590 LINE",
"820 650 LINE",
"-31 650 LINE",
"-31 634 LINE",
"0 575 LINE",
"401 575 LINE",
"401 338 LINE",
"399 338 LINE",
"369 385 OFFCURVE",
"320 464 OFFCURVE",
"209 464 CURVE SMOOTH",
"113 464 OFFCURVE",
"53 378 OFFCURVE",
"53 293 CURVE SMOOTH",
"53 178 OFFCURVE",
"133 111 OFFCURVE",
"232 111 CURVE SMOOTH",
"308 111 OFFCURVE",
"353 149 OFFCURVE",
"399 186 CURVE",
"403 184 LINE",
"399 0 LINE",
"473 -42 LINE",
"489 -42 LINE",
"489 265 LINE",
"529 305 OFFCURVE",
"591 360 OFFCURVE",
"657 360 CURVE SMOOTH",
"708 360 OFFCURVE",
"748 318 OFFCURVE",
"748 262 CURVE SMOOTH",
"748 203 OFFCURVE",
"691 128 OFFCURVE",
"664 98 CURVE",
"732 26 LINE",
"765 76 OFFCURVE",
"798 181 OFFCURVE",
"798 237 CURVE SMOOTH",
"798 352 OFFCURVE",
"745 434 OFFCURVE",
"631 434 CURVE SMOOTH",
"571 434 OFFCURVE",
"511 386 OFFCURVE",
"489 365 CURVE",
"489 575 LINE"
);
},
{
closed = 1;
nodes = (
"401 283 LINE",
"363 248 OFFCURVE",
"292 188 OFFCURVE",
"198 188 CURVE SMOOTH",
"154 188 OFFCURVE",
"102 217 OFFCURVE",
"102 269 CURVE SMOOTH",
"102 342 OFFCURVE",
"180 374 OFFCURVE",
"242 374 CURVE SMOOTH",
"311 374 OFFCURVE",
"375 321 OFFCURVE",
"401 285 CURVE"
);
}
);
width = 851;
}
);
unicode = 0915;
},
{
glyphname = "kha-deva";
lastChange = "2014-06-27 12:05:22 +0100";
layers = (
{
anchors = (
{
name = _nukta;
position = "{194, 111}";
},
{
name = bottom;
position = "{707, 0}";
},
{
name = top;
position = "{707, 650}";
}
);
background = {
paths = (
{
closed = 1;
nodes = (
"195 -111 LINE",
"272 -32 LINE",
"194 46 LINE",
"117 -33 LINE"
);
},
{
closed = 1;
nodes = (
"861 575 LINE",
"861 590 LINE",
"829 650 LINE",
"-31 650 LINE",
"-31 634 LINE",
"0 575 LINE",
"180 575 LINE",
"185 535 OFFCURVE",
"189 482 OFFCURVE",
"189 450 CURVE SMOOTH",
"189 407 OFFCURVE",
"176 358 OFFCURVE",
"164 340 CURVE",
"111 382 LINE",
"109 382 LINE",
"90 370 OFFCURVE",
"58 340 OFFCURVE",
"58 306 CURVE SMOOTH",
"58 271 OFFCURVE",
"84 242 OFFCURVE",
"135 186 CURVE SMOOTH",
"213 101 OFFCURVE",
"335 -9 OFFCURVE",
"443 -9 CURVE SMOOTH",
"518 -9 OFFCURVE",
"612 29 OFFCURVE",
"664 62 CURVE",
"661 0 LINE",
"735 -42 LINE",
"751 -42 LINE",
"751 575 LINE"
);
},
{
closed = 1;
nodes = (
"413 507 OFFCURVE",
"341 445 OFFCURVE",
"341 346 CURVE SMOOTH",
"341 249 OFFCURVE",
"426 180 OFFCURVE",
"513 180 CURVE SMOOTH",
"571 180 OFFCURVE",
"616 219 OFFCURVE",
"661 255 CURVE",
"665 253 LINE",
"665 155 LINE",
"610 102 OFFCURVE",
"506 59 OFFCURVE",
"442 59 CURVE SMOOTH",
"324 59 OFFCURVE",
"219 166 OFFCURVE",
"179 211 CURVE",
"222 252 OFFCURVE",
"271 307 OFFCURVE",
"271 404 CURVE SMOOTH",
"271 448 OFFCURVE",
"264 519 OFFCURVE",
"254 575 CURVE",
"663 575 LINE",
"663 426 LINE",
"661 426 LINE",
"631 456 OFFCURVE",
"582 507 OFFCURVE",
"505 507 CURVE SMOOTH"
);
},
{
closed = 1;
nodes = (
"427 251 OFFCURVE",
"388 284 OFFCURVE",
"388 318 CURVE SMOOTH",
"388 376 OFFCURVE",
"454 427 OFFCURVE",
"533 427 CURVE SMOOTH",
"577 427 OFFCURVE",
"631 409 OFFCURVE",
"663 365 CURVE",
"663 363 LINE",
"615 302 OFFCURVE",
"543 251 OFFCURVE",
"482 251 CURVE SMOOTH"
);
}
);
};
layerId = "39185045-6A8C-415A-8312-7B8F11386A4C";
name = Regular;
paths = (
{
closed = 1;
nodes = (
"861 575 LINE",
"861 590 LINE",
"829 650 LINE",
"-31 650 LINE",
"-31 634 LINE",
"0 575 LINE",
"180 575 LINE",
"185 535 OFFCURVE",
"189 482 OFFCURVE",
"189 450 CURVE SMOOTH",
"189 407 OFFCURVE",
"176 358 OFFCURVE",
"164 340 CURVE",
"111 382 LINE",
"109 382 LINE",
"90 370 OFFCURVE",
"58 340 OFFCURVE",
"58 306 CURVE SMOOTH",
"58 271 OFFCURVE",
"84 242 OFFCURVE",
"135 186 CURVE SMOOTH",
"213 101 OFFCURVE",
"335 -9 OFFCURVE",
"443 -9 CURVE SMOOTH",
"518 -9 OFFCURVE",
"612 29 OFFCURVE",
"664 62 CURVE",
"661 0 LINE",
"735 -42 LINE",
"751 -42 LINE",
"751 575 LINE"
);
},
{
closed = 1;
nodes = (
"413 507 OFFCURVE",
"341 445 OFFCURVE",
"341 346 CURVE SMOOTH",
"341 249 OFFCURVE",
"426 180 OFFCURVE",
"513 180 CURVE SMOOTH",
"571 180 OFFCURVE",
"616 219 OFFCURVE",
"661 255 CURVE",
"665 253 LINE",
"665 155 LINE",
"610 102 OFFCURVE",
"506 59 OFFCURVE",
"442 59 CURVE SMOOTH",
"324 59 OFFCURVE",
"219 166 OFFCURVE",
"179 211 CURVE",
"222 252 OFFCURVE",
"271 307 OFFCURVE",
"271 404 CURVE SMOOTH",
"271 448 OFFCURVE",
"264 519 OFFCURVE",
"254 575 CURVE",
"663 575 LINE",
"663 426 LINE",
"661 426 LINE",
"631 456 OFFCURVE",
"582 507 OFFCURVE",
"505 507 CURVE SMOOTH"
);
},
{
closed = 1;
nodes = (
"427 251 OFFCURVE",
"388 284 OFFCURVE",
"388 318 CURVE SMOOTH",
"388 376 OFFCURVE",
"454 427 OFFCURVE",
"533 427 CURVE SMOOTH",
"577 427 OFFCURVE",
"631 409 OFFCURVE",
"663 365 CURVE",
"663 363 LINE",
"615 302 OFFCURVE",
"543 251 OFFCURVE",
"482 251 CURVE SMOOTH"
);
}
);
width = 861;
}
);
unicode = 0916;
},
{
glyphname = "ga-deva";
lastChange = "2014-06-27 12:05:00 +0100";
layers = (
{
anchors = (
{
name = _nukta;
position = "{255, 184}";
},
{
name = bottom;
position = "{472, 0}";
},
{
name = top;
position = "{473, 650}";
}
);
background = {
paths = (
{
closed = 1;
nodes = (
"256 -28 LINE",
"332 51 LINE",
"255 129 LINE",
"178 50 LINE"
);
},
{
closed = 1;
nodes = (
"429 -1 LINE",
"502 -42 LINE",
"518 -42 LINE",
"518 575 LINE",
"628 575 LINE",
"628 590 LINE",
"596 650 LINE",
"-31 650 LINE",
"-31 634 LINE",
"0 575 LINE",
"143 575 LINE",
"143 328 LINE",
"45 341 LINE",
"41 330 OFFCURVE",
"39 316 OFFCURVE",
"39 300 CURVE SMOOTH",
"39 256 OFFCURVE",
"73 177 OFFCURVE",
"153 177 CURVE SMOOTH",
"225 177 OFFCURVE",
"236 248 OFFCURVE",
"236 284 CURVE SMOOTH",
"236 372 OFFCURVE",
"229 485 OFFCURVE",
"220 575 CURVE",
"429 575 LINE"
);
}
);
};
layerId = "39185045-6A8C-415A-8312-7B8F11386A4C";
name = Regular;
paths = (
{
closed = 1;
nodes = (
"429 -1 LINE",
"502 -42 LINE",
"518 -42 LINE",
"518 575 LINE",
"628 575 LINE",
"628 590 LINE",
"596 650 LINE",
"-31 650 LINE",
"-31 634 LINE",
"0 575 LINE",
"143 575 LINE",
"143 328 LINE",
"45 341 LINE",
"41 330 OFFCURVE",
"39 316 OFFCURVE",
"39 300 CURVE SMOOTH",
"39 256 OFFCURVE",
"73 177 OFFCURVE",
"153 177 CURVE SMOOTH",
"225 177 OFFCURVE",
"236 248 OFFCURVE",
"236 284 CURVE SMOOTH",
"236 372 OFFCURVE",
"229 485 OFFCURVE",
"220 575 CURVE",
"429 575 LINE"
);
}
);
width = 628;
}
);
unicode = 0917;
},
{
glyphname = "gha-deva";
lastChange = "2014-06-27 10:25:37 +0100";
layers = (
{
anchors = (
{
name = bottom;
position = "{521, 0}";
},
{
name = top;
position = "{521, 650}";
}
);
background = {
paths = (
{
closed = 0;
nodes = (
"66 575 LINE",
"63 557 OFFCURVE",
"61 540 OFFCURVE",
"61 527 CURVE SMOOTH",
"61 459 OFFCURVE",
"119 430 OFFCURVE",
"180 402 CURVE",
"132 371 OFFCURVE",
"99 316 OFFCURVE",
"99 261 CURVE SMOOTH",
"99 218 OFFCURVE",
"142 171 OFFCURVE",
"178 142 CURVE SMOOTH",
"218 110 OFFCURVE",
"264 102 OFFCURVE",
"309 102 CURVE SMOOTH",
"352 102 OFFCURVE",
"413 131 OFFCURVE",
"475 178 CURVE",
"477 314 LINE",
"441 252 OFFCURVE",
"327 174 OFFCURVE",
"258 174 CURVE SMOOTH",
"224 174 OFFCURVE",
"175 189 OFFCURVE",
"175 233 CURVE SMOOTH",
"175 286 OFFCURVE",
"217 358 OFFCURVE",
"292 358 CURVE SMOOTH",
"316 358 OFFCURVE",
"340 356 OFFCURVE",
"364 350 CURVE",
"374 376 LINE",
"367 394 OFFCURVE",
"358 415 OFFCURVE",
"358 415 CURVE",
"336 426 OFFCURVE",
"294 428 OFFCURVE",
"265 428 CURVE SMOOTH",
"260 428 OFFCURVE",
"255 427 OFFCURVE",
"249 427 CURVE SMOOTH",
"211 428 OFFCURVE",
"143 461 OFFCURVE",
"143 504 CURVE SMOOTH",
"143 536 OFFCURVE",
"156 560 OFFCURVE",
"178 575 CURVE"
);
}
);
};
layerId = "39185045-6A8C-415A-8312-7B8F11386A4C";
name = Regular;
paths = (
{
closed = 1;
nodes = (
"674 575 LINE",
"674 590 LINE",
"643 650 LINE",
"-31 650 LINE",
"-31 634 LINE",
"0 575 LINE",
"66 575 LINE",
"63 557 OFFCURVE",
"61 540 OFFCURVE",
"61 527 CURVE SMOOTH",
"61 459 OFFCURVE",
"119 430 OFFCURVE",
"180 402 CURVE",
"132 371 OFFCURVE",
"99 316 OFFCURVE",
"99 261 CURVE SMOOTH",
"99 218 OFFCURVE",
"142 171 OFFCURVE",
"178 142 CURVE SMOOTH",
"218 110 OFFCURVE",
"264 102 OFFCURVE",
"309 102 CURVE SMOOTH",
"352 102 OFFCURVE",
"413 131 OFFCURVE",
"475 178 CURVE",
"478 176 LINE",
"475 0 LINE",
"549 -42 LINE",
"565 -42 LINE",
"565 575 LINE"
);
},
{
closed = 1;
nodes = (
"374 376 LINE",
"367 394 OFFCURVE",
"358 415 OFFCURVE",
"358 415 CURVE",
"336 426 OFFCURVE",
"294 428 OFFCURVE",
"265 428 CURVE SMOOTH",
"260 428 OFFCURVE",
"255 427 OFFCURVE",
"249 427 CURVE SMOOTH",
"211 428 OFFCURVE",
"143 461 OFFCURVE",
"143 504 CURVE SMOOTH",
"143 536 OFFCURVE",
"156 560 OFFCURVE",
"178 575 CURVE",
"477 575 LINE",
"477 314 LINE",
"441 252 OFFCURVE",
"327 174 OFFCURVE",
"258 174 CURVE SMOOTH",
"224 174 OFFCURVE",
"175 189 OFFCURVE",
"175 233 CURVE SMOOTH",
"175 286 OFFCURVE",
"217 358 OFFCURVE",
"292 358 CURVE SMOOTH",
"316 358 OFFCURVE",
"340 356 OFFCURVE",
"364 350 CURVE"
);
}
);
width = 647;
}
);
unicode = 0918;
},
{
glyphname = "nga-deva";
lastChange = "2014-06-27 10:25:37 +0100";
layers = (
{
anchors = (
{
name = bottom;
position = "{371, -16}";
},
{
name = top;
position = "{420, 650}";
}
);
layerId = "39185045-6A8C-415A-8312-7B8F11386A4C";
name = Regular;
paths = (
{
closed = 1;
nodes = (
"713 575 LINE",
"713 590 LINE",
"682 650 LINE",
"-31 650 LINE",
"-31 634 LINE",
"0 575 LINE",
"376 575 LINE",
"376 471 LINE",
"204 471 LINE SMOOTH",
"145 471 OFFCURVE",
"97 428 OFFCURVE",
"97 346 CURVE SMOOTH",
"97 267 OFFCURVE",
"203 179 OFFCURVE",
"251 179 CURVE SMOOTH",
"323 179 OFFCURVE",
"351 218 OFFCURVE",
"438 218 CURVE",
"458 209 OFFCURVE",
"472 178 OFFCURVE",
"472 152 CURVE SMOOTH",
"472 80 OFFCURVE",
"402 49 OFFCURVE",
"333 49 CURVE SMOOTH",
"256 49 OFFCURVE",
"173 82 OFFCURVE",
"63 199 CURVE",
"28 167 LINE",
"157 19 OFFCURVE",
"265 -30 OFFCURVE",
"371 -30 CURVE SMOOTH",
"478 -30 OFFCURVE",
"525 39 OFFCURVE",
"525 130 CURVE SMOOTH",
"525 203 OFFCURVE",
"463 300 OFFCURVE",
"409 300 CURVE SMOOTH",
"337 300 OFFCURVE",
"278 258 OFFCURVE",
"204 258 CURVE SMOOTH",
"184 258 OFFCURVE",
"162 290 OFFCURVE",
"162 318 CURVE SMOOTH",
"162 346 OFFCURVE",
"169 391 OFFCURVE",
"237 391 CURVE SMOOTH",
"465 391 LINE",
"465 575 LINE"
);
},
{
closed = 1;
nodes = (
"617 264 LINE",
"694 344 LINE",
"616 422 LINE",
"540 343 LINE"
);
}
);
width = 713;
}
);
unicode = 0919;
},
{
glyphname = "ca-deva";
lastChange = "2014-06-27 10:25:37 +0100";
layers = (
{
anchors = (
{
name = bottom;
position = "{511, 0}";
},
{
name = top;
position = "{511, 650}";
}
);
layerId = "39185045-6A8C-415A-8312-7B8F11386A4C";
name = Regular;
paths = (
{
closed = 1;
nodes = (
"666 575 LINE",
"666 590 LINE",
"634 650 LINE",
"-31 650 LINE",
"-31 634 LINE",
"0 575 LINE",
"468 575 LINE",
"468 265 LINE",
"431 213 OFFCURVE",
"335 143 OFFCURVE",
"277 143 CURVE SMOOTH",
"234 143 OFFCURVE",
"194 188 OFFCURVE",
"194 232 CURVE SMOOTH",
"194 295 OFFCURVE",
"235 347 OFFCURVE",
"296 356 CURVE",
"410 356 LINE",
"410 372 LINE",
"379 431 LINE",
"32 431 LINE",
"32 416 LINE",
"64 356 LINE",
"163 356 LINE",
"142 328 OFFCURVE",
"127 295 OFFCURVE",
"127 257 CURVE SMOOTH",
"127 208 OFFCURVE",
"160 164 OFFCURVE",
"186 138 CURVE SMOOTH",
"214 110 OFFCURVE",
"258 91 OFFCURVE",
"309 91 CURVE SMOOTH",
"360 91 OFFCURVE",
"422 114 OFFCURVE",
"466 147 CURVE",
"469 145 LINE",
"466 0 LINE",
"540 -42 LINE",
"556 -42 LINE",
"556 575 LINE"
);
}
);
width = 666;
}
);
unicode = 091A;
},
{
glyphname = "cha-deva";
lastChange = "2014-06-27 10:25:37 +0100";
layers = (
{
anchors = (
{
name = bottom;
position = "{557, 0}";
},
{
name = top;
position = "{557, 650}";
}
);
layerId = "39185045-6A8C-415A-8312-7B8F11386A4C";
name = Regular;
paths = (
{
closed = 1;
nodes = (
"767 575 LINE",
"767 590 LINE",
"735 650 LINE",
"-31 650 LINE",
"-31 634 LINE",
"0 575 LINE",
"513 575 LINE",
"513 483 LINE",
"453 480 OFFCURVE",
"407 445 OFFCURVE",
"407 379 CURVE SMOOTH",
"407 286 OFFCURVE",
"492 206 OFFCURVE",
"578 169 CURVE",
"512 92 OFFCURVE",
"407 45 OFFCURVE",
"307 45 CURVE SMOOTH",
"251 45 OFFCURVE",
"206 89 OFFCURVE",
"206 122 CURVE SMOOTH",
"206 159 OFFCURVE",
"233 215 OFFCURVE",
"294 215 CURVE SMOOTH",
"317 215 OFFCURVE",
"345 212 OFFCURVE",
"365 207 CURVE",
"375 233 LINE",
"356 278 LINE",
"333 283 OFFCURVE",
"302 285 OFFCURVE",
"268 285 CURVE SMOOTH",
"248 285 OFFCURVE",
"227 280 OFFCURVE",
"210 273 CURVE",
"176 273 OFFCURVE",
"134 301 OFFCURVE",
"134 335 CURVE SMOOTH",
"134 383 OFFCURVE",
"173 408 OFFCURVE",
"212 408 CURVE SMOOTH",
"242 408 OFFCURVE",
"286 397 OFFCURVE",
"317 380 CURVE",
"284 458 LINE",
"269 465 OFFCURVE",
"234 474 OFFCURVE",
"195 474 CURVE SMOOTH",
"117 474 OFFCURVE",
"59 416 OFFCURVE",
"59 358 CURVE SMOOTH",
"59 312 OFFCURVE",
"100 280 OFFCURVE",
"159 238 CURVE",
"134 213 OFFCURVE",
"119 180 OFFCURVE",
"119 148 CURVE SMOOTH",
"119 97 OFFCURVE",
"254 -27 OFFCURVE",
"358 -27 CURVE SMOOTH",
"536 -27 OFFCURVE",
"713 133 OFFCURVE",
"713 303 CURVE SMOOTH",
"713 397 OFFCURVE",
"657 445 OFFCURVE",
"601 467 CURVE",
"601 575 LINE"
);
},
{
closed = 1;
nodes = (
"483 400 OFFCURVE",
"510 422 OFFCURVE",
"547 422 CURVE SMOOTH",
"589 422 OFFCURVE",
"641 398 OFFCURVE",
"641 334 CURVE SMOOTH",
"641 290 OFFCURVE",
"629 249 OFFCURVE",
"608 212 CURVE",
"550 234 OFFCURVE",
"483 292 OFFCURVE",
"483 354 CURVE SMOOTH"
);
}
);
width = 767;
}
);
unicode = 091B;
},
{
glyphname = "ja-deva";
lastChange = "2014-06-27 12:04:44 +0100";
layers = (
{
anchors = (
{
name = bottom;
position = "{586, 0}";
},
{
name = nukta;
position = "{419, 83}";
},
{
name = top;
position = "{586, 650}";
}
);
background = {
paths = (
{
closed = 1;
nodes = (
"420 -140 LINE",
"497 -61 LINE",
"419 18 LINE",
"342 -61 LINE"
);
},
{
closed = 1;
nodes = (
"740 575 LINE",
"740 590 LINE",
"709 650 LINE",
"-31 650 LINE",
"-31 634 LINE",
"0 575 LINE",
"542 575 LINE",
"542 441 LINE",
"214 441 LINE",
"200 408 LINE",
"261 374 OFFCURVE",
"354 300 OFFCURVE",
"354 228 CURVE SMOOTH",
"354 189 OFFCURVE",
"327 148 OFFCURVE",
"286 148 CURVE SMOOTH",
"180 148 OFFCURVE",
"100 340 OFFCURVE",
"63 428 CURVE",
"20 412 LINE",
"65 289 OFFCURVE",
"143 63 OFFCURVE",
"305 63 CURVE SMOOTH",
"374 63 OFFCURVE",
"432 125 OFFCURVE",
"432 208 CURVE SMOOTH",
"432 260 OFFCURVE",
"388 319 OFFCURVE",
"337 366 CURVE",
"542 366 LINE",
"542 -1 LINE",
"615 -42 LINE",
"630 -42 LINE",
"630 575 LINE"
);
}
);
};
layerId = "39185045-6A8C-415A-8312-7B8F11386A4C";
name = Regular;
paths = (
{
closed = 1;
nodes = (
"740 575 LINE",
"740 590 LINE",
"709 650 LINE",
"-31 650 LINE",
"-31 634 LINE",
"0 575 LINE",
"542 575 LINE",
"542 441 LINE",
"214 441 LINE",
"200 408 LINE",
"261 374 OFFCURVE",
"354 300 OFFCURVE",
"354 228 CURVE SMOOTH",
"354 189 OFFCURVE",
"327 148 OFFCURVE",
"286 148 CURVE SMOOTH",
"180 148 OFFCURVE",
"100 340 OFFCURVE",
"63 428 CURVE",
"20 412 LINE",
"65 289 OFFCURVE",
"143 63 OFFCURVE",
"305 63 CURVE SMOOTH",
"374 63 OFFCURVE",
"432 125 OFFCURVE",
"432 208 CURVE SMOOTH",
"432 260 OFFCURVE",
"388 319 OFFCURVE",
"337 366 CURVE",
"542 366 LINE",
"542 -1 LINE",
"615 -42 LINE",
"630 -42 LINE",
"630 575 LINE"
);
}
);
width = 740;
}
);
unicode = 091C;
},
{
glyphname = "jha-deva";
lastChange = "2014-06-27 10:25:37 +0100";
layers = (
{
anchors = (
{
name = bottom;
position = "{633, 0}";
},
{
name = top;
position = "{633, 650}";
}
);
layerId = "39185045-6A8C-415A-8312-7B8F11386A4C";
name = Regular;
paths = (
{
closed = 1;
nodes = (
"336 -3 OFFCURVE",
"441 67 OFFCURVE",
"441 149 CURVE SMOOTH",
"441 183 OFFCURVE",
"429 223 OFFCURVE",
"413 256 CURVE",
"416 256 LINE",
"456 225 OFFCURVE",
"490 202 OFFCURVE",
"534 202 CURVE SMOOTH",
"550 202 OFFCURVE",
"576 207 OFFCURVE",
"588 210 CURVE",
"590 210 LINE",
"590 -1 LINE",
"662 -42 LINE",
"677 -42 LINE",
"677 575 LINE",
"787 575 LINE",
"787 590 LINE",
"755 650 LINE",
"-31 650 LINE",
"-31 634 LINE",
"0 575 LINE",
"319 575 LINE",
"319 495 LINE",
"175 495 LINE SMOOTH",
"116 495 OFFCURVE",
"82 447 OFFCURVE",
"82 373 CURVE SMOOTH",
"82 305 OFFCURVE",
"180 214 OFFCURVE",
"226 214 CURVE SMOOTH",
"275 214 OFFCURVE",
"339 244 OFFCURVE",
"372 244 CURVE",
"388 237 OFFCURVE",
"397 201 OFFCURVE",
"397 177 CURVE SMOOTH",
"397 104 OFFCURVE",
"289 72 OFFCURVE",
"175 72 CURVE",
"187 147 LINE",
"180 150 OFFCURVE",
"166 152 OFFCURVE",
"154 152 CURVE SMOOTH",
"119 152 OFFCURVE",
"61 136 OFFCURVE",
"61 81 CURVE SMOOTH",
"61 46 OFFCURVE",
"97 22 OFFCURVE",
"139 10 CURVE",
"294 -168 LINE",
"340 -134 LINE",
"199 -2 LINE",
"207 -3 OFFCURVE",
"215 -3 OFFCURVE",
"222 -3 CURVE SMOOTH"
);
},
{
closed = 1;
nodes = (
"407 415 LINE",
"407 575 LINE",
"590 575 LINE",
"590 305 LINE",
"568 291 OFFCURVE",
"533 280 OFFCURVE",
"494 280 CURVE SMOOTH",
"451 280 OFFCURVE",
"416 287 OFFCURVE",
"384 295 CURVE",
"369 310 OFFCURVE",
"351 319 OFFCURVE",
"334 319 CURVE SMOOTH",
"296 319 OFFCURVE",
"231 289 OFFCURVE",
"180 289 CURVE SMOOTH",
"161 289 OFFCURVE",
"139 317 OFFCURVE",
"139 346 CURVE SMOOTH",
"139 374 OFFCURVE",
"151 415 OFFCURVE",
"198 415 CURVE SMOOTH"
);
}
);
width = 787;
}
);
unicode = 091D;
},
{
glyphname = "nya-deva";
lastChange = "2014-06-27 10:25:37 +0100";
layers = (
{
anchors = (
{
name = bottom;
position = "{619, 0}";
},
{
name = top;
position = "{619, 650}";
}
);
layerId = "39185045-6A8C-415A-8312-7B8F11386A4C";
name = Regular;
paths = (
{
closed = 1;
nodes = (
"772 575 LINE",
"772 590 LINE",
"741 650 LINE",
"-31 650 LINE",
"-31 634 LINE",
"0 575 LINE",
"575 575 LINE",
"575 340 LINE",
"548 317 OFFCURVE",
"502 312 OFFCURVE",
"473 313 CURVE",
"448 388 OFFCURVE",
"354 451 OFFCURVE",
"293 451 CURVE SMOOTH",
"264 451 OFFCURVE",
"224 433 OFFCURVE",
"184 406 CURVE",
"245 331 LINE",
"272 352 OFFCURVE",
"312 376 OFFCURVE",
"340 376 CURVE SMOOTH",
"386 376 OFFCURVE",
"408 332 OFFCURVE",
"408 300 CURVE SMOOTH",
"408 245 OFFCURVE",
"361 203 OFFCURVE",
"297 203 CURVE SMOOTH",
"218 203 OFFCURVE",
"148 259 OFFCURVE",
"48 359 CURVE",
"14 331 LINE",
"122 202 OFFCURVE",
"227 119 OFFCURVE",
"326 119 CURVE SMOOTH",
"416 119 OFFCURVE",
"470 188 OFFCURVE",
"479 260 CURVE",
"482 260 LINE",
"495 254 OFFCURVE",
"518 239 OFFCURVE",
"538 239 CURVE SMOOTH",
"549 239 OFFCURVE",
"560 242 OFFCURVE",
"573 252 CURVE",
"575 252 LINE",
"575 -1 LINE",
"647 -42 LINE",
"663 -42 LINE",
"663 575 LINE"
);
}
);
width = 772;
}
);
unicode = 091E;
},
{
glyphname = "tta-deva";
lastChange = "2014-06-27 10:25:37 +0100";
layers = (
{
anchors = (
{
name = bottom;
position = "{358, 0}";
},
{
name = top;
position = "{358, 650}";
}
);
layerId = "39185045-6A8C-415A-8312-7B8F11386A4C";
name = Regular;
paths = (
{
closed = 1;
nodes = (
"554 575 LINE",
"554 590 LINE",
"522 650 LINE",
"-31 650 LINE",
"-31 634 LINE",
"0 575 LINE",
"314 575 LINE",
"314 440 LINE",
"203 427 OFFCURVE",
"69 386 OFFCURVE",
"69 228 CURVE SMOOTH",
"69 114 OFFCURVE",
"163 10 OFFCURVE",
"292 10 CURVE SMOOTH",
"358 10 OFFCURVE",
"436 23 OFFCURVE",
"529 75 CURVE",
"487 157 LINE",
"393 99 OFFCURVE",
"312 86 OFFCURVE",
"259 86 CURVE SMOOTH",
"204 86 OFFCURVE",
"123 114 OFFCURVE",
"123 199 CURVE SMOOTH",
"123 304 OFFCURVE",
"259 349 OFFCURVE",
"403 358 CURVE",
"403 575 LINE"
);
}
);
width = 554;
}
);
unicode = 091F;
},
{
glyphname = "ttha-deva";
lastChange = "2014-06-27 10:25:37 +0100";
layers = (
{
anchors = (
{
name = bottom;
position = "{277, 0}";
},
{
name = top;
position = "{346, 650}";
}
);
layerId = "39185045-6A8C-415A-8312-7B8F11386A4C";
name = Regular;
paths = (
{
closed = 1;
nodes = (
"450 -10 OFFCURVE",
"538 85 OFFCURVE",
"538 205 CURVE SMOOTH",
"538 307 OFFCURVE",
"466 366 OFFCURVE",
"393 414 CURVE",
"407 440 OFFCURVE",
"418 469 OFFCURVE",
"418 493 CURVE SMOOTH",
"418 520 OFFCURVE",
"405 547 OFFCURVE",
"386 575 CURVE",
"612 575 LINE",
"612 590 LINE",
"580 650 LINE",
"-31 650 LINE",
"-31 634 LINE",
"0 575 LINE",
"302 575 LINE",
"316 554 OFFCURVE",
"329 529 OFFCURVE",
"329 508 CURVE SMOOTH",
"329 483 OFFCURVE",
"321 455 OFFCURVE",
"312 441 CURVE",
"166 429 OFFCURVE",
"56 385 OFFCURVE",
"56 229 CURVE SMOOTH",
"56 104 OFFCURVE",
"149 -10 OFFCURVE",
"277 -10 CURVE SMOOTH"
);
},
{
closed = 1;
nodes = (
"465 157 OFFCURVE",
"407 67 OFFCURVE",
"245 67 CURVE SMOOTH",
"190 67 OFFCURVE",
"108 104 OFFCURVE",
"108 200 CURVE SMOOTH",
"108 326 OFFCURVE",
"256 366 OFFCURVE",
"366 366 CURVE",
"406 352 OFFCURVE",
"465 306 OFFCURVE",
"465 247 CURVE SMOOTH"
);
}
);
width = 612;
}
);
unicode = 0920;
},
{
glyphname = "dda-deva";
lastChange = "2014-06-27 12:06:06 +0100";
layers = (
{
anchors = (
{
name = bottom;
position = "{381, -16}";
},
{
name = nukta;
position = "{278, 0}";
},
{
name = top;
position = "{438, 650}";
}
);
background = {
paths = (
{
closed = 1;
nodes = (
"601 575 LINE",
"601 590 LINE",
"570 650 LINE",
"-31 650 LINE",
"-31 634 LINE",
"0 575 LINE",
"394 575 LINE",
"394 471 LINE",
"204 471 LINE SMOOTH",
"145 471 OFFCURVE",
"97 428 OFFCURVE",
"97 346 CURVE SMOOTH",
"97 267 OFFCURVE",
"203 179 OFFCURVE",
"251 179 CURVE SMOOTH",
"323 179 OFFCURVE",
"370 218 OFFCURVE",
"457 218 CURVE",
"476 209 OFFCURVE",
"491 178 OFFCURVE",
"491 152 CURVE SMOOTH",
"491 80 OFFCURVE",
"411 49 OFFCURVE",
"343 49 CURVE SMOOTH",
"264 49 OFFCURVE",
"173 82 OFFCURVE",
"63 199 CURVE",
"28 167 LINE",
"157 19 OFFCURVE",
"274 -30 OFFCURVE",
"381 -30 CURVE SMOOTH",
"487 -30 OFFCURVE",
"544 39 OFFCURVE",
"544 130 CURVE SMOOTH",
"544 203 OFFCURVE",
"481 300 OFFCURVE",
"427 300 CURVE SMOOTH",
"355 300 OFFCURVE",
"278 258 OFFCURVE",
"204 258 CURVE SMOOTH",
"184 258 OFFCURVE",
"162 290 OFFCURVE",
"162 318 CURVE SMOOTH",
"162 346 OFFCURVE",
"169 391 OFFCURVE",
"237 391 CURVE SMOOTH",
"483 391 LINE",
"483 575 LINE"
);
},
{
closed = 1;
nodes = (
"279 -222 LINE",
"356 -142 LINE",
"278 -65 LINE",
"201 -143 LINE"
);
}
);
};
layerId = "39185045-6A8C-415A-8312-7B8F11386A4C";
name = Regular;
paths = (
{
closed = 1;
nodes = (
"601 575 LINE",
"601 590 LINE",
"570 650 LINE",
"-31 650 LINE",
"-31 634 LINE",
"0 575 LINE",
"394 575 LINE",
"394 471 LINE",
"204 471 LINE SMOOTH",
"145 471 OFFCURVE",
"97 428 OFFCURVE",
"97 346 CURVE SMOOTH",
"97 267 OFFCURVE",
"203 179 OFFCURVE",
"251 179 CURVE SMOOTH",
"323 179 OFFCURVE",
"370 218 OFFCURVE",
"457 218 CURVE",
"476 209 OFFCURVE",
"491 178 OFFCURVE",
"491 152 CURVE SMOOTH",
"491 80 OFFCURVE",
"411 49 OFFCURVE",
"343 49 CURVE SMOOTH",
"264 49 OFFCURVE",
"173 82 OFFCURVE",
"63 199 CURVE",
"28 167 LINE",
"157 19 OFFCURVE",
"274 -30 OFFCURVE",
"381 -30 CURVE SMOOTH",
"487 -30 OFFCURVE",
"544 39 OFFCURVE",
"544 130 CURVE SMOOTH",
"544 203 OFFCURVE",
"481 300 OFFCURVE",
"427 300 CURVE SMOOTH",
"355 300 OFFCURVE",
"278 258 OFFCURVE",
"204 258 CURVE SMOOTH",
"184 258 OFFCURVE",
"162 290 OFFCURVE",
"162 318 CURVE SMOOTH",
"162 346 OFFCURVE",
"169 391 OFFCURVE",
"237 391 CURVE SMOOTH",
"483 391 LINE",
"483 575 LINE"
);
}
);
width = 601;
}
);
unicode = 0921;
},
{
glyphname = "ddha-deva";
lastChange = "2014-06-27 12:06:31 +0100";
layers = (
{
anchors = (
{
name = bottom;
position = "{339, -16}";
},
{
name = nukta;
position = "{293, -3}";
},
{
name = top;
position = "{391, 650}";
}
);
background = {
paths = (
{
closed = 1;
nodes = (
"294 -225 LINE",
"370 -146 LINE",
"293 -68 LINE",
"216 -147 LINE"
);
},
{
closed = 1;
nodes = (
"435 375 LINE",
"435 575 LINE",
"573 575 LINE",
"573 590 LINE",
"541 650 LINE",
"-31 650 LINE",
"-31 634 LINE",
"0 575 LINE",
"347 575 LINE",
"347 460 LINE",
"250 460 LINE SMOOTH",
"148 460 OFFCURVE",
"52 414 OFFCURVE",
"52 268 CURVE SMOOTH",
"52 66 OFFCURVE",
"229 -30 OFFCURVE",
"339 -30 CURVE SMOOTH",
"412 -30 OFFCURVE",
"512 20 OFFCURVE",
"512 121 CURVE SMOOTH",
"512 213 OFFCURVE",
"444 282 OFFCURVE",
"361 282 CURVE SMOOTH",
"302 282 OFFCURVE",
"233 254 OFFCURVE",
"233 160 CURVE SMOOTH",
"233 124 OFFCURVE",
"248 85 OFFCURVE",
"268 55 CURVE",
"207 72 OFFCURVE",
"102 129 OFFCURVE",
"102 241 CURVE SMOOTH",
"102 329 OFFCURVE",
"174 375 OFFCURVE",
"273 375 CURVE SMOOTH"
);
},
{
closed = 1;
nodes = (
"291 183 OFFCURVE",
"351 217 OFFCURVE",
"393 217 CURVE SMOOTH",
"427 217 OFFCURVE",
"468 189 OFFCURVE",
"468 142 CURVE SMOOTH",
"468 90 OFFCURVE",
"394 51 OFFCURVE",
"307 49 CURVE",
"300 64 OFFCURVE",
"291 87 OFFCURVE",
"291 116 CURVE SMOOTH"
);
}
);
};
layerId = "39185045-6A8C-415A-8312-7B8F11386A4C";
name = Regular;
paths = (
{
closed = 1;
nodes = (
"435 375 LINE",
"435 575 LINE",
"573 575 LINE",
"573 590 LINE",
"541 650 LINE",
"-31 650 LINE",
"-31 634 LINE",
"0 575 LINE",
"347 575 LINE",
"347 460 LINE",
"250 460 LINE SMOOTH",
"148 460 OFFCURVE",
"52 414 OFFCURVE",
"52 268 CURVE SMOOTH",
"52 66 OFFCURVE",
"229 -30 OFFCURVE",
"339 -30 CURVE SMOOTH",
"412 -30 OFFCURVE",
"512 20 OFFCURVE",
"512 121 CURVE SMOOTH",
"512 213 OFFCURVE",
"444 282 OFFCURVE",
"361 282 CURVE SMOOTH",
"302 282 OFFCURVE",
"233 254 OFFCURVE",
"233 160 CURVE SMOOTH",
"233 124 OFFCURVE",
"248 85 OFFCURVE",
"268 55 CURVE",
"207 72 OFFCURVE",
"102 129 OFFCURVE",
"102 241 CURVE SMOOTH",
"102 329 OFFCURVE",
"174 375 OFFCURVE",
"273 375 CURVE SMOOTH"
);
},
{
closed = 1;
nodes = (
"291 183 OFFCURVE",
"351 217 OFFCURVE",
"393 217 CURVE SMOOTH",
"427 217 OFFCURVE",
"468 189 OFFCURVE",
"468 142 CURVE SMOOTH",
"468 90 OFFCURVE",
"394 51 OFFCURVE",
"307 49 CURVE",
"300 64 OFFCURVE",
"291 87 OFFCURVE",
"291 116 CURVE SMOOTH"
);
}
);
width = 573;
}
);
unicode = 0922;
},
{
glyphname = "nna-deva";
lastChange = "2014-06-27 10:25:37 +0100";
layers = (
{
anchors = (
{
name = bottom;
position = "{638, 0}";
},
{
name = top;
position = "{638, 650}";
}
);
background = {
paths = (
{
closed = 1;
nodes = (
"348 575 LINE",
"348 322 LINE SMOOTH",
"348 283 OFFCURVE",
"326 229 OFFCURVE",
"263 229 CURVE SMOOTH",
"218 229 OFFCURVE",
"176 234 OFFCURVE",
"176 303 CURVE SMOOTH",
"176 575 LINE",
"87 575 LINE",
"87 318 LINE SMOOTH",
"87 281 OFFCURVE",
"111 253 OFFCURVE",
"147 218 CURVE SMOOTH",
"186 180 OFFCURVE",
"224 152 OFFCURVE",
"270 152 CURVE SMOOTH",
"358 152 OFFCURVE",
"436 216 OFFCURVE",
"436 303 CURVE SMOOTH",
"436 575 LINE"
);
}
);
};
layerId = "39185045-6A8C-415A-8312-7B8F11386A4C";
name = Regular;
paths = (
{
closed = 1;
nodes = (
"436 575 LINE",
"594 575 LINE",
"594 -1 LINE",
"667 -42 LINE",
"682 -42 LINE",
"682 575 LINE",
"792 575 LINE",
"792 590 LINE",
"760 650 LINE",
"-31 650 LINE",
"-31 634 LINE",
"0 575 LINE",
"87 575 LINE",
"87 318 LINE SMOOTH",
"87 281 OFFCURVE",
"111 253 OFFCURVE",
"147 218 CURVE SMOOTH",
"186 180 OFFCURVE",
"224 152 OFFCURVE",
"270 152 CURVE SMOOTH",
"358 152 OFFCURVE",
"436 216 OFFCURVE",
"436 303 CURVE SMOOTH"
);
},
{
closed = 1;
nodes = (
"218 229 OFFCURVE",
"176 234 OFFCURVE",
"176 303 CURVE SMOOTH",
"176 575 LINE",
"348 575 LINE",
"348 322 LINE SMOOTH",
"348 283 OFFCURVE",
"326 229 OFFCURVE",
"263 229 CURVE SMOOTH"
);
}
);
width = 792;
}
);
unicode = 0923;
},
{
glyphname = "ta-deva";
lastChange = "2014-06-27 10:25:37 +0100";
layers = (
{
anchors = (
{
name = bottom;
position = "{466, 0}";
},
{
name = top;
position = "{466, 650}";
}
);
layerId = "39185045-6A8C-415A-8312-7B8F11386A4C";
name = Regular;
paths = (
{
closed = 1;
nodes = (
"285 6 LINE",
"201 89 OFFCURVE",
"138 177 OFFCURVE",
"138 253 CURVE SMOOTH",
"138 327 OFFCURVE",
"174 362 OFFCURVE",
"259 362 CURVE SMOOTH",
"422 362 LINE",
"422 -1 LINE",
"494 -42 LINE",
"509 -42 LINE",
"509 575 LINE",
"619 575 LINE",
"619 590 LINE",
"588 650 LINE",
"-31 650 LINE",
"-31 634 LINE",
"0 575 LINE",
"422 575 LINE",
"422 442 LINE",
"234 442 LINE SMOOTH",
"98 442 OFFCURVE",
"58 377 OFFCURVE",
"58 290 CURVE SMOOTH",
"58 168 OFFCURVE",
"171 52 OFFCURVE",
"256 -25 CURVE"
);
}
);
width = 619;
}
);
unicode = 0924;
},
{
glyphname = "tha-deva";
lastChange = "2014-06-27 10:25:37 +0100";
layers = (
{
anchors = (
{
name = bottom;
position = "{530, 0}";
},
{
name = top;
position = "{530, 650}";
}
);
layerId = "39185045-6A8C-415A-8312-7B8F11386A4C";
name = Regular;
paths = (
{
closed = 1;
nodes = (
"684 575 LINE",
"684 590 LINE",
"653 650 LINE",
"364 650 LINE",
"364 634 LINE",
"395 575 LINE",
"486 575 LINE",
"486 273 LINE",
"450 232 OFFCURVE",
"370 183 OFFCURVE",
"294 183 CURVE SMOOTH",
"238 183 OFFCURVE",
"199 209 OFFCURVE",
"186 245 CURVE",
"283 292 OFFCURVE",
"353 384 OFFCURVE",
"353 479 CURVE SMOOTH",
"353 604 OFFCURVE",
"246 659 OFFCURVE",
"161 659 CURVE SMOOTH",
"98 659 OFFCURVE",
"47 625 OFFCURVE",
"47 555 CURVE SMOOTH",
"47 464 OFFCURVE",
"129 386 OFFCURVE",
"213 347 CURVE",
"184 325 OFFCURVE",
"148 307 OFFCURVE",
"101 297 CURVE",
"151 167 OFFCURVE",
"220 104 OFFCURVE",
"333 104 CURVE SMOOTH",
"393 104 OFFCURVE",
"446 133 OFFCURVE",
"484 160 CURVE",
"488 158 LINE",
"484 0 LINE",
"559 -42 LINE",
"575 -42 LINE",
"575 575 LINE"
);
},
{
closed = 1;
nodes = (
"123 577 OFFCURVE",
"150 597 OFFCURVE",
"186 597 CURVE SMOOTH",
"247 597 OFFCURVE",
"281 549 OFFCURVE",
"281 502 CURVE SMOOTH",
"281 463 OFFCURVE",
"272 423 OFFCURVE",
"249 388 CURVE",
"191 409 OFFCURVE",
"123 468 OFFCURVE",
"123 531 CURVE SMOOTH"
);
}
);
width = 684;
}
);
unicode = 0925;
},
{
glyphname = "da-deva";
lastChange = "2014-06-27 10:25:37 +0100";
layers = (
{
anchors = (
{
name = bottom;
position = "{498, 0}";
},
{
name = top;
position = "{382, 650}";
}
);
layerId = "39185045-6A8C-415A-8312-7B8F11386A4C";
name = Regular;
paths = (
{
closed = 1;
nodes = (
"427 385 LINE",
"427 575 LINE",
"578 575 LINE",
"578 590 LINE",
"547 650 LINE",
"-31 650 LINE",
"-31 634 LINE",
"0 575 LINE",
"338 575 LINE",
"338 468 LINE",
"259 468 LINE SMOOTH",
"125 468 OFFCURVE",
"61 414 OFFCURVE",
"61 277 CURVE SMOOTH",
"61 118 OFFCURVE",
"201 25 OFFCURVE",
"293 25 CURVE SMOOTH",
"329 25 OFFCURVE",
"360 29 OFFCURVE",
"387 38 CURVE",
"463 -140 LINE",
"521 -109 LINE",
"427 56 LINE",
"473 82 OFFCURVE",
"498 121 OFFCURVE",
"498 160 CURVE SMOOTH",
"498 211 OFFCURVE",
"466 258 OFFCURVE",
"400 258 CURVE SMOOTH",
"384 258 OFFCURVE",
"357 255 OFFCURVE",
"335 239 CURVE",
"361 110 LINE",
"341 106 OFFCURVE",
"317 104 OFFCURVE",
"293 104 CURVE SMOOTH",
"253 104 OFFCURVE",
"110 136 OFFCURVE",
"110 251 CURVE SMOOTH",
"110 329 OFFCURVE",
"157 385 OFFCURVE",
"282 385 CURVE SMOOTH"
);
}
);
width = 578;
}
);
unicode = 0926;
},
{
glyphname = "dha-deva";
lastChange = "2014-06-27 10:25:37 +0100";
layers = (
{
anchors = (
{
name = bottom;
position = "{532, 0}";
},
{
name = top;
position = "{532, 650}";
}
);
layerId = "39185045-6A8C-415A-8312-7B8F11386A4C";
name = Regular;
paths = (
{
closed = 1;
nodes = (
"386 377 LINE",
"378 395 OFFCURVE",
"369 415 OFFCURVE",
"369 415 CURVE",
"347 426 OFFCURVE",
"312 428 OFFCURVE",
"276 428 CURVE SMOOTH",
"258 428 OFFCURVE",
"240 426 OFFCURVE",
"223 419 CURVE",
"173 445 OFFCURVE",
"123 496 OFFCURVE",
"123 549 CURVE SMOOTH",
"123 595 OFFCURVE",
"150 616 OFFCURVE",
"186 616 CURVE SMOOTH",
"208 616 OFFCURVE",
"224 609 OFFCURVE",
"233 598 CURVE",
"233 524 LINE",
"238 521 OFFCURVE",
"247 519 OFFCURVE",
"258 519 CURVE SMOOTH",
"297 519 OFFCURVE",
"310 543 OFFCURVE",
"310 562 CURVE SMOOTH",
"310 606 OFFCURVE",
"279 628 OFFCURVE",
"256 645 CURVE SMOOTH",
"235 661 OFFCURVE",
"194 677 OFFCURVE",
"160 677 CURVE SMOOTH",
"98 677 OFFCURVE",
"47 643 OFFCURVE",
"47 574 CURVE SMOOTH",
"47 497 OFFCURVE",
"104 429 OFFCURVE",
"172 387 CURVE",
"135 355 OFFCURVE",
"109 308 OFFCURVE",
"109 261 CURVE SMOOTH",
"109 218 OFFCURVE",
"154 171 OFFCURVE",
"188 142 CURVE SMOOTH",
"228 110 OFFCURVE",
"274 102 OFFCURVE",
"320 102 CURVE SMOOTH",
"364 102 OFFCURVE",
"425 131 OFFCURVE",
"486 178 CURVE",
"489 176 LINE",
"486 0 LINE",
"560 -42 LINE",
"577 -42 LINE",
"577 575 LINE",
"686 575 LINE",
"686 590 LINE",
"654 650 LINE",
"345 650 LINE",
"345 634 LINE",
"376 575 LINE",
"488 575 LINE",
"488 313 LINE",
"452 252 OFFCURVE",
"338 174 OFFCURVE",
"269 174 CURVE SMOOTH",
"235 174 OFFCURVE",
"185 189 OFFCURVE",
"185 233 CURVE SMOOTH",
"185 286 OFFCURVE",
"227 358 OFFCURVE",
"303 358 CURVE SMOOTH",
"326 358 OFFCURVE",
"350 356 OFFCURVE",
"375 350 CURVE"
);
}
);
width = 686;
}
);
unicode = 0927;
},
{
glyphname = "na-deva";
lastChange = "2014-06-27 12:07:12 +0100";
layers = (
{
anchors = (
{
name = bottom;
position = "{443, 0}";
},
{
name = nukta;
position = "{241, 198}";
},
{
name = top;
position = "{443, 650}";
}
);
background = {
paths = (
{
closed = 1;
nodes = (
"242 -24 LINE",
"319 55 LINE",
"241 133 LINE",
"164 54 LINE"
);
},
{
closed = 1;
nodes = (
"596 575 LINE",
"596 590 LINE",
"565 650 LINE",
"-31 650 LINE",
"-31 634 LINE",
"0 575 LINE",
"399 575 LINE",
"399 373 LINE",
"338 377 OFFCURVE",
"230 383 OFFCURVE",
"140 383 CURVE SMOOTH",
"103 383 OFFCURVE",
"34 378 OFFCURVE",
"34 305 CURVE SMOOTH",
"34 225 OFFCURVE",
"114 191 OFFCURVE",
"158 191 CURVE SMOOTH",
"175 191 OFFCURVE",
"187 193 OFFCURVE",
"199 197 CURVE",
"185 296 LINE",
"399 305 LINE",
"399 -1 LINE",
"471 -42 LINE",
"487 -42 LINE",
"487 575 LINE"
);
}
);
};
layerId = "39185045-6A8C-415A-8312-7B8F11386A4C";
name = Regular;
paths = (
{
closed = 1;
nodes = (
"596 575 LINE",
"596 590 LINE",
"565 650 LINE",
"-31 650 LINE",
"-31 634 LINE",
"0 575 LINE",
"399 575 LINE",
"399 373 LINE",
"338 377 OFFCURVE",
"230 383 OFFCURVE",
"140 383 CURVE SMOOTH",
"103 383 OFFCURVE",
"34 378 OFFCURVE",
"34 305 CURVE SMOOTH",
"34 225 OFFCURVE",
"114 191 OFFCURVE",
"158 191 CURVE SMOOTH",
"175 191 OFFCURVE",
"187 193 OFFCURVE",
"199 197 CURVE",
"185 296 LINE",
"399 305 LINE",
"399 -1 LINE",
"471 -42 LINE",
"487 -42 LINE",
"487 575 LINE"
);
}
);
width = 596;
}
);
unicode = 0928;
},
{
glyphname = "nnna-deva";
lastChange = "2014-06-27 10:25:37 +0100";
layers = (
{
anchors = (
{
name = bottom;
position = "{443, 0}";
},
{
name = top;
position = "{443, 650}";
}
);
layerId = "39185045-6A8C-415A-8312-7B8F11386A4C";
name = Regular;
paths = (
{
closed = 1;
nodes = (
"242 -24 LINE",
"319 55 LINE",
"241 133 LINE",
"164 54 LINE"
);
},
{
closed = 1;
nodes = (
"596 575 LINE",
"596 590 LINE",
"565 650 LINE",
"-31 650 LINE",
"-31 634 LINE",
"0 575 LINE",
"399 575 LINE",
"399 373 LINE",
"338 377 OFFCURVE",
"230 383 OFFCURVE",
"140 383 CURVE SMOOTH",
"103 383 OFFCURVE",
"34 378 OFFCURVE",
"34 305 CURVE SMOOTH",
"34 225 OFFCURVE",
"114 191 OFFCURVE",
"158 191 CURVE SMOOTH",
"175 191 OFFCURVE",
"187 193 OFFCURVE",
"199 197 CURVE",
"185 296 LINE",
"399 305 LINE",
"399 -1 LINE",
"471 -42 LINE",
"487 -42 LINE",
"487 575 LINE"
);
}
);
width = 596;
}
);
unicode = 0929;
},
{
glyphname = "pa-deva";
lastChange = "2014-06-27 10:25:37 +0100";
layers = (
{
anchors = (
{
name = bottom;
position = "{445, 0}";
},
{
name = top;
position = "{445, 650}";
}
);
layerId = "39185045-6A8C-415A-8312-7B8F11386A4C";
name = Regular;
paths = (
{
closed = 1;
nodes = (
"598 575 LINE",
"598 590 LINE",
"567 650 LINE",
"-31 650 LINE",
"-31 634 LINE",
"0 575 LINE",
"87 575 LINE",
"87 342 LINE SMOOTH",
"87 305 OFFCURVE",
"108 271 OFFCURVE",
"144 236 CURVE SMOOTH",
"183 198 OFFCURVE",
"224 166 OFFCURVE",
"270 166 CURVE SMOOTH",
"326 166 OFFCURVE",
"366 187 OFFCURVE",
"399 208 CURVE",
"401 208 LINE",
"401 -1 LINE",
"473 -42 LINE",
"489 -42 LINE",
"489 575 LINE"
);
},
{
closed = 1;
nodes = (
"221 248 OFFCURVE",
"176 257 OFFCURVE",
"176 326 CURVE SMOOTH",
"176 575 LINE",
"401 575 LINE",
"401 306 LINE",
"365 278 OFFCURVE",
"311 248 OFFCURVE",
"254 248 CURVE SMOOTH"
);
}
);
width = 598;
}
);
unicode = 092A;
},
{
glyphname = "pha-deva";
lastChange = "2014-06-27 12:07:37 +0100";
layers = (
{
anchors = (
{
name = bottom;
position = "{435, 0}";
},
{
name = nukta;
position = "{194, 189}";
},
{
name = top;
position = "{435, 650}";
}
);
background = {
paths = (
{
closed = 1;
nodes = (
"195 -32 LINE",
"272 47 LINE",
"194 124 LINE",
"117 46 LINE"
);
},
{
closed = 1;
nodes = (
"389 0 LINE",
"465 -42 LINE",
"480 -42 LINE",
"480 275 LINE",
"517 309 OFFCURVE",
"576 374 OFFCURVE",
"648 374 CURVE SMOOTH",
"698 374 OFFCURVE",
"738 332 OFFCURVE",
"738 275 CURVE SMOOTH",
"738 218 OFFCURVE",
"682 142 OFFCURVE",
"654 111 CURVE",
"723 40 LINE",
"755 90 OFFCURVE",
"789 195 OFFCURVE",
"789 251 CURVE SMOOTH",
"789 367 OFFCURVE",
"735 448 OFFCURVE",
"622 448 CURVE SMOOTH",
"559 448 OFFCURVE",
"507 400 OFFCURVE",
"480 377 CURVE",
"480 575 LINE",
"842 575 LINE",
"842 590 LINE",
"810 650 LINE",
"-31 650 LINE",
"-31 634 LINE",
"0 575 LINE",
"87 575 LINE",
"87 342 LINE SMOOTH",
"87 305 OFFCURVE",
"108 271 OFFCURVE",
"144 236 CURVE SMOOTH",
"183 198 OFFCURVE",
"224 166 OFFCURVE",
"270 166 CURVE SMOOTH",
"317 166 OFFCURVE",
"355 182 OFFCURVE",
"389 202 CURVE",
"393 200 LINE"
);
},
{
closed = 1;
nodes = (
"221 248 OFFCURVE",
"176 257 OFFCURVE",
"176 326 CURVE SMOOTH",
"176 575 LINE",
"391 575 LINE",
"391 299 LINE",
"355 272 OFFCURVE",
"305 248 OFFCURVE",
"254 248 CURVE SMOOTH"
);
}
);
};
layerId = "39185045-6A8C-415A-8312-7B8F11386A4C";
name = Regular;
paths = (
{
closed = 1;
nodes = (
"389 0 LINE",
"465 -42 LINE",
"480 -42 LINE",
"480 275 LINE",
"517 309 OFFCURVE",
"576 374 OFFCURVE",
"648 374 CURVE SMOOTH",
"698 374 OFFCURVE",
"738 332 OFFCURVE",
"738 275 CURVE SMOOTH",
"738 218 OFFCURVE",
"682 142 OFFCURVE",
"654 111 CURVE",
"723 40 LINE",
"755 90 OFFCURVE",
"789 195 OFFCURVE",
"789 251 CURVE SMOOTH",
"789 367 OFFCURVE",
"735 448 OFFCURVE",
"622 448 CURVE SMOOTH",
"559 448 OFFCURVE",
"507 400 OFFCURVE",
"480 377 CURVE",
"480 575 LINE",
"842 575 LINE",
"842 590 LINE",
"810 650 LINE",
"-31 650 LINE",
"-31 634 LINE",
"0 575 LINE",
"87 575 LINE",
"87 342 LINE SMOOTH",
"87 305 OFFCURVE",
"108 271 OFFCURVE",
"144 236 CURVE SMOOTH",
"183 198 OFFCURVE",
"224 166 OFFCURVE",
"270 166 CURVE SMOOTH",
"317 166 OFFCURVE",
"355 182 OFFCURVE",
"389 202 CURVE",
"393 200 LINE"
);
},
{
closed = 1;
nodes = (
"221 248 OFFCURVE",
"176 257 OFFCURVE",
"176 326 CURVE SMOOTH",
"176 575 LINE",
"391 575 LINE",
"391 299 LINE",
"355 272 OFFCURVE",
"305 248 OFFCURVE",
"254 248 CURVE SMOOTH"
);
}
);
width = 842;
}
);
unicode = 092B;
},
{
glyphname = "ba-deva";
lastChange = "2014-06-27 10:25:37 +0100";
layers = (
{
anchors = (
{
name = bottom;
position = "{511, 0}";
},
{
name = top;
position = "{511, 650}";
}
);
layerId = "39185045-6A8C-415A-8312-7B8F11386A4C";
name = Regular;
paths = (
{
closed = 1;
nodes = (
"666 575 LINE",
"666 590 LINE",
"634 650 LINE",
"-31 650 LINE",
"-31 634 LINE",
"0 575 LINE",
"468 575 LINE",
"468 357 LINE",
"466 357 LINE",
"436 397 OFFCURVE",
"350 485 OFFCURVE",
"250 485 CURVE SMOOTH",
"167 485 OFFCURVE",
"66 410 OFFCURVE",
"66 278 CURVE SMOOTH",
"66 159 OFFCURVE",
"175 93 OFFCURVE",
"276 93 CURVE SMOOTH",
"350 93 OFFCURVE",
"402 138 OFFCURVE",
"466 186 CURVE",
"469 184 LINE",
"466 0 LINE",
"540 -42 LINE",
"556 -42 LINE",
"556 575 LINE"
);
},
{
closed = 1;
nodes = (
"167 164 OFFCURVE",
"115 201 OFFCURVE",
"115 256 CURVE SMOOTH",
"115 297 OFFCURVE",
"145 345 OFFCURVE",
"198 372 CURVE",
"322 184 LINE",
"293 172 OFFCURVE",
"263 164 OFFCURVE",
"236 164 CURVE SMOOTH"
);
},
{
closed = 1;
nodes = (
"232 386 LINE",
"253 392 OFFCURVE",
"275 397 OFFCURVE",
"301 397 CURVE SMOOTH",
"363 397 OFFCURVE",
"436 342 OFFCURVE",
"468 297 CURVE",
"468 295 LINE",
"442 262 OFFCURVE",
"400 226 OFFCURVE",
"354 201 CURVE"
);
}
);
width = 666;
}
);
unicode = 092C;
},
{
glyphname = "bha-deva";
lastChange = "2014-06-27 10:25:37 +0100";
layers = (
{
anchors = (
{
name = bottom;
position = "{590, 0}";
},
{
name = top;
position = "{590, 650}";
}
);
layerId = "39185045-6A8C-415A-8312-7B8F11386A4C";
name = Regular;
paths = (
{
closed = 1;
nodes = (
"744 575 LINE",
"744 590 LINE",
"712 650 LINE",
"358 650 LINE",
"358 634 LINE",
"389 575 LINE",
"546 575 LINE",
"546 293 LINE",
"323 293 LINE",
"323 502 LINE SMOOTH",
"323 628 OFFCURVE",
"227 659 OFFCURVE",
"161 659 CURVE SMOOTH",
"98 659 OFFCURVE",
"47 625 OFFCURVE",
"47 555 CURVE SMOOTH",
"47 457 OFFCURVE",
"142 407 OFFCURVE",
"235 370 CURVE",
"235 312 LINE",
"215 315 OFFCURVE",
"200 316 OFFCURVE",
"189 316 CURVE SMOOTH",
"163 316 OFFCURVE",
"150 306 OFFCURVE",
"150 285 CURVE SMOOTH",
"150 257 OFFCURVE",
"188 204 OFFCURVE",
"215 171 CURVE SMOOTH",
"249 127 OFFCURVE",
"290 84 OFFCURVE",
"314 84 CURVE SMOOTH",
"333 84 OFFCURVE",
"342 93 OFFCURVE",
"342 109 CURVE SMOOTH",
"342 134 OFFCURVE",
"339 178 OFFCURVE",
"336 218 CURVE",
"546 218 LINE",
"546 -1 LINE",
"618 -42 LINE",
"634 -42 LINE",
"634 575 LINE"
);
},
{
closed = 1;
nodes = (
"251 495 OFFCURVE",
"248 449 OFFCURVE",
"243 422 CURVE",
"186 441 OFFCURVE",
"123 468 OFFCURVE",
"123 531 CURVE SMOOTH",
"123 577 OFFCURVE",
"150 597 OFFCURVE",
"186 597 CURVE SMOOTH",
"221 597 OFFCURVE",
"251 562 OFFCURVE",
"251 520 CURVE SMOOTH"
);
}
);
width = 744;
}
);
unicode = 092D;
},
{
glyphname = "ma-deva";
lastChange = "2014-06-27 10:25:37 +0100";
layers = (
{
anchors = (
{
name = bottom;
position = "{489, 0}";
},
{
name = top;
position = "{489, 650}";
}
);
layerId = "39185045-6A8C-415A-8312-7B8F11386A4C";
name = Regular;
paths = (
{
closed = 1;
nodes = (
"-31 650 LINE",
"-31 634 LINE",
"0 575 LINE",
"115 575 LINE",
"115 236 LINE",
"474 236 LINE",
"474 311 LINE",
"203 311 LINE",
"203 575 LINE",
"445 575 LINE",
"445 -1 LINE",
"517 -42 LINE",
"533 -42 LINE",
"533 575 LINE",
"642 575 LINE",
"642 590 LINE",
"611 650 LINE"
);
},
{
closed = 1;
nodes = (
"48 335 OFFCURVE",
"35 325 OFFCURVE",
"35 304 CURVE SMOOTH",
"35 275 OFFCURVE",
"73 225 OFFCURVE",
"100 194 CURVE SMOOTH",
"135 151 OFFCURVE",
"170 106 OFFCURVE",
"195 106 CURVE SMOOTH",
"214 106 OFFCURVE",
"222 116 OFFCURVE",
"222 133 CURVE SMOOTH",
"222 157 OFFCURVE",
"218 214 OFFCURVE",
"216 253 CURVE",
"125 331 LINE",
"106 333 OFFCURVE",
"87 335 OFFCURVE",
"74 335 CURVE SMOOTH"
);
}
);
width = 642;
}
);
unicode = 092E;
},
{
glyphname = "ya-deva";
lastChange = "2014-06-27 12:08:06 +0100";
layers = (
{
anchors = (
{
name = bottom;
position = "{485, 0}";
},
{
name = nukta;
position = "{147, 133}";
},
{
name = top;
position = "{484, 650}";
}
);
background = {
paths = (
{
closed = 1;
nodes = (
"148 -88 LINE",
"225 -10 LINE",
"147 68 LINE",
"70 -10 LINE"
);
},
{
closed = 1;
nodes = (
"637 575 LINE",
"637 590 LINE",
"606 650 LINE",
"-31 650 LINE",
"-31 634 LINE",
"0 575 LINE",
"131 575 LINE",
"173 532 OFFCURVE",
"199 500 OFFCURVE",
"199 458 CURVE SMOOTH",
"199 393 OFFCURVE",
"123 346 OFFCURVE",
"54 325 CURVE",
"96 195 OFFCURVE",
"178 104 OFFCURVE",
"287 104 CURVE SMOOTH",
"347 104 OFFCURVE",
"400 133 OFFCURVE",
"438 160 CURVE",
"442 158 LINE",
"438 0 LINE",
"512 -42 LINE",
"528 -42 LINE",
"528 575 LINE"
);
},
{
closed = 1;
nodes = (
"192 183 OFFCURVE",
"142 218 OFFCURVE",
"141 273 CURVE",
"187 293 OFFCURVE",
"287 352 OFFCURVE",
"287 433 CURVE SMOOTH",
"287 477 OFFCURVE",
"236 535 OFFCURVE",
"199 573 CURVE",
"199 575 LINE",
"440 575 LINE",
"440 273 LINE",
"404 232 OFFCURVE",
"324 183 OFFCURVE",
"247 183 CURVE SMOOTH"
);
}
);
};
layerId = "39185045-6A8C-415A-8312-7B8F11386A4C";
name = Regular;
paths = (
{
closed = 1;
nodes = (
"637 575 LINE",
"637 590 LINE",
"606 650 LINE",
"-31 650 LINE",
"-31 634 LINE",
"0 575 LINE",
"131 575 LINE",
"173 532 OFFCURVE",
"199 500 OFFCURVE",
"199 458 CURVE SMOOTH",
"199 393 OFFCURVE",
"123 346 OFFCURVE",
"54 325 CURVE",
"96 195 OFFCURVE",
"178 104 OFFCURVE",
"287 104 CURVE SMOOTH",
"347 104 OFFCURVE",
"400 133 OFFCURVE",
"438 160 CURVE",
"442 158 LINE",
"438 0 LINE",
"512 -42 LINE",
"528 -42 LINE",
"528 575 LINE"
);
},
{
closed = 1;
nodes = (
"192 183 OFFCURVE",
"142 218 OFFCURVE",
"141 273 CURVE",
"187 293 OFFCURVE",
"287 352 OFFCURVE",
"287 433 CURVE SMOOTH",
"287 477 OFFCURVE",
"236 535 OFFCURVE",
"199 573 CURVE",
"199 575 LINE",
"440 575 LINE",
"440 273 LINE",
"404 232 OFFCURVE",
"324 183 OFFCURVE",
"247 183 CURVE SMOOTH"
);
}
);
width = 637;
}
);
unicode = 092F;
},
{
glyphname = "ra-deva";
lastChange = "2014-06-27 12:08:26 +0100";
layers = (
{
anchors = (
{
name = bottom;
position = "{232, 0}";
},
{
name = nukta;
position = "{130, 159}";
},
{
name = top;
position = "{232, 650}";
}
);
background = {
paths = (
{
closed = 1;
nodes = (
"131 -63 LINE",
"208 16 LINE",
"130 94 LINE",
"53 15 LINE"
);
},
{
closed = 1;
nodes = (
"187 211 LINE",
"232 252 OFFCURVE",
"280 309 OFFCURVE",
"280 404 CURVE SMOOTH",
"280 448 OFFCURVE",
"274 519 OFFCURVE",
"263 575 CURVE",
"430 575 LINE",
"430 590 LINE",
"399 650 LINE",
"-31 650 LINE",
"-31 634 LINE",
"0 575 LINE",
"188 575 LINE",
"195 535 OFFCURVE",
"199 482 OFFCURVE",
"199 450 CURVE SMOOTH",
"199 407 OFFCURVE",
"184 358 OFFCURVE",
"174 340 CURVE",
"121 382 LINE",
"119 382 LINE",
"100 370 OFFCURVE",
"66 340 OFFCURVE",
"66 306 CURVE SMOOTH",
"66 272 OFFCURVE",
"89 250 OFFCURVE",
"126 207 CURVE SMOOTH",
"347 -47 LINE",
"396 -10 LINE"
);
}
);
};
layerId = "39185045-6A8C-415A-8312-7B8F11386A4C";
name = Regular;
paths = (
{
closed = 1;
nodes = (
"187 211 LINE",
"232 252 OFFCURVE",
"280 309 OFFCURVE",
"280 404 CURVE SMOOTH",
"280 448 OFFCURVE",
"274 519 OFFCURVE",
"263 575 CURVE",
"430 575 LINE",
"430 590 LINE",
"399 650 LINE",
"-31 650 LINE",
"-31 634 LINE",
"0 575 LINE",
"188 575 LINE",
"195 535 OFFCURVE",
"199 482 OFFCURVE",
"199 450 CURVE SMOOTH",
"199 407 OFFCURVE",
"184 358 OFFCURVE",
"174 340 CURVE",
"121 382 LINE",
"119 382 LINE",
"100 370 OFFCURVE",
"66 340 OFFCURVE",
"66 306 CURVE SMOOTH",
"66 272 OFFCURVE",
"89 250 OFFCURVE",
"126 207 CURVE SMOOTH",
"347 -47 LINE",
"396 -10 LINE"
);
}
);
width = 430;
}
);
unicode = 0930;
},
{
glyphname = "rra-deva";
lastChange = "2014-06-27 10:25:37 +0100";
layers = (
{
anchors = (
{
name = bottom;
position = "{232, 0}";
},
{
name = top;
position = "{232, 650}";
}
);
layerId = "39185045-6A8C-415A-8312-7B8F11386A4C";
name = Regular;
paths = (
{
closed = 1;
nodes = (
"131 -63 LINE",
"208 16 LINE",
"130 94 LINE",
"53 15 LINE"
);
},
{
closed = 1;
nodes = (
"187 211 LINE",
"232 252 OFFCURVE",
"280 309 OFFCURVE",
"280 404 CURVE SMOOTH",
"280 448 OFFCURVE",
"274 519 OFFCURVE",
"263 575 CURVE",
"430 575 LINE",
"430 590 LINE",
"399 650 LINE",
"-31 650 LINE",
"-31 634 LINE",
"0 575 LINE",
"188 575 LINE",
"195 535 OFFCURVE",
"199 482 OFFCURVE",
"199 450 CURVE SMOOTH",
"199 407 OFFCURVE",
"184 358 OFFCURVE",
"174 340 CURVE",
"121 382 LINE",
"119 382 LINE",
"100 370 OFFCURVE",
"66 340 OFFCURVE",
"66 306 CURVE SMOOTH",
"66 272 OFFCURVE",
"89 250 OFFCURVE",
"126 207 CURVE SMOOTH",
"347 -47 LINE",
"396 -10 LINE"
);
}
);
width = 430;
}
);
unicode = 0931;
},
{
glyphname = "la-deva";
lastChange = "2014-06-27 10:25:37 +0100";
layers = (
{
anchors = (
{
name = bottom;
position = "{595, 0}";
},
{
name = top;
position = "{595, 650}";
}
);
layerId = "39185045-6A8C-415A-8312-7B8F11386A4C";
name = Regular;
paths = (
{
closed = 1;
nodes = (
"749 575 LINE",
"749 590 LINE",
"717 650 LINE",
"-31 650 LINE",
"-31 634 LINE",
"0 575 LINE",
"551 575 LINE",
"551 393 LINE",
"531 415 OFFCURVE",
"505 434 OFFCURVE",
"474 434 CURVE SMOOTH",
"427 433 OFFCURVE",
"386 402 OFFCURVE",
"355 356 CURVE",
"312 411 OFFCURVE",
"253 454 OFFCURVE",
"186 454 CURVE SMOOTH",
"105 454 OFFCURVE",
"45 389 OFFCURVE",
"45 303 CURVE SMOOTH",
"45 139 OFFCURVE",
"166 20 OFFCURVE",
"256 -58 CURVE",
"287 -25 LINE",
"184 67 OFFCURVE",
"124 163 OFFCURVE",
"124 265 CURVE SMOOTH",
"124 331 OFFCURVE",
"168 375 OFFCURVE",
"223 375 CURVE SMOOTH",
"259 375 OFFCURVE",
"303 352 OFFCURVE",
"332 316 CURVE",
"315 284 OFFCURVE",
"304 248 OFFCURVE",
"296 212 CURVE",
"294 212 OFFCURVE",
"368 169 OFFCURVE",
"368 169 CURVE",
"386 249 OFFCURVE",
"430 372 OFFCURVE",
"501 372 CURVE SMOOTH",
"519 372 OFFCURVE",
"537 359 OFFCURVE",
"551 344 CURVE",
"551 -1 LINE",
"624 -42 LINE",
"639 -42 LINE",
"639 575 LINE"
);
}
);
width = 749;
}
);
unicode = 0932;
},
{
glyphname = "lla-deva";
lastChange = "2014-06-27 12:09:13 +0100";
layers = (
{
anchors = (
{
name = bottom;
position = "{603, 0}";
},
{
name = nukta;
position = "{419, 113}";
},
{
name = top;
position = "{603, 650}";
}
);
background = {
paths = (
{
closed = 1;
nodes = (
"420 -108 LINE",
"497 -29 LINE",
"419 48 LINE",
"342 -30 LINE"
);
},
{
closed = 1;
nodes = (
"811 575 LINE",
"811 590 LINE",
"780 650 LINE",
"-31 650 LINE",
"-31 634 LINE",
"0 575 LINE",
"559 575 LINE",
"559 474 LINE",
"481 473 OFFCURVE",
"438 426 OFFCURVE",
"407 365 CURVE",
"359 405 OFFCURVE",
"302 464 OFFCURVE",
"222 464 CURVE SMOOTH",
"140 464 OFFCURVE",
"53 388 OFFCURVE",
"53 256 CURVE SMOOTH",
"53 156 OFFCURVE",
"151 52 OFFCURVE",
"254 52 CURVE SMOOTH",
"341 52 OFFCURVE",
"386 106 OFFCURVE",
"418 174 CURVE",
"451 133 OFFCURVE",
"522 69 OFFCURVE",
"598 69 CURVE SMOOTH",
"681 69 OFFCURVE",
"758 141 OFFCURVE",
"758 263 CURVE SMOOTH",
"758 351 OFFCURVE",
"710 419 OFFCURVE",
"648 451 CURVE",
"648 575 LINE"
);
},
{
closed = 1;
nodes = (
"148 123 OFFCURVE",
"115 170 OFFCURVE",
"115 224 CURVE SMOOTH",
"115 307 OFFCURVE",
"166 385 OFFCURVE",
"264 385 CURVE SMOOTH",
"318 385 OFFCURVE",
"357 356 OFFCURVE",
"387 324 CURVE",
"346 228 OFFCURVE",
"315 123 OFFCURVE",
"213 123 CURVE SMOOTH"
);
},
{
closed = 1;
nodes = (
"658 405 OFFCURVE",
"701 358 OFFCURVE",
"701 305 CURVE SMOOTH",
"701 229 OFFCURVE",
"627 148 OFFCURVE",
"566 148 CURVE SMOOTH",
"509 148 OFFCURVE",
"467 176 OFFCURVE",
"435 214 CURVE",
"475 306 OFFCURVE",
"505 405 OFFCURVE",
"603 405 CURVE SMOOTH"
);
}
);
};
layerId = "39185045-6A8C-415A-8312-7B8F11386A4C";
name = Regular;
paths = (
{
closed = 1;
nodes = (
"811 575 LINE",
"811 590 LINE",
"780 650 LINE",
"-31 650 LINE",
"-31 634 LINE",
"0 575 LINE",
"559 575 LINE",
"559 474 LINE",
"481 473 OFFCURVE",
"438 426 OFFCURVE",
"407 365 CURVE",
"359 405 OFFCURVE",
"302 464 OFFCURVE",
"222 464 CURVE SMOOTH",
"140 464 OFFCURVE",
"53 388 OFFCURVE",
"53 256 CURVE SMOOTH",
"53 156 OFFCURVE",
"151 52 OFFCURVE",
"254 52 CURVE SMOOTH",
"341 52 OFFCURVE",
"386 106 OFFCURVE",
"418 174 CURVE",
"451 133 OFFCURVE",
"522 69 OFFCURVE",
"598 69 CURVE SMOOTH",
"681 69 OFFCURVE",
"758 141 OFFCURVE",
"758 263 CURVE SMOOTH",
"758 351 OFFCURVE",
"710 419 OFFCURVE",
"648 451 CURVE",
"648 575 LINE"
);
},
{
closed = 1;
nodes = (
"148 123 OFFCURVE",
"115 170 OFFCURVE",
"115 224 CURVE SMOOTH",
"115 307 OFFCURVE",
"166 385 OFFCURVE",
"264 385 CURVE SMOOTH",
"318 385 OFFCURVE",
"357 356 OFFCURVE",
"387 324 CURVE",
"346 228 OFFCURVE",
"315 123 OFFCURVE",
"213 123 CURVE SMOOTH"
);
},
{
closed = 1;
nodes = (
"658 405 OFFCURVE",
"701 358 OFFCURVE",
"701 305 CURVE SMOOTH",
"701 229 OFFCURVE",
"627 148 OFFCURVE",
"566 148 CURVE SMOOTH",
"509 148 OFFCURVE",
"467 176 OFFCURVE",
"435 214 CURVE",
"475 306 OFFCURVE",
"505 405 OFFCURVE",
"603 405 CURVE SMOOTH"
);
}
);
width = 811;
}
);
unicode = 0933;
},
{
glyphname = "llla-deva";
lastChange = "2014-06-27 12:08:39 +0100";
layers = (
{
anchors = (
{
name = bottom;
position = "{603, 0}";
},
{
name = top;
position = "{603, 650}";
}
);
background = {
paths = (
{
closed = 1;
nodes = (
"420 -108 LINE",
"497 -29 LINE",
"419 48 LINE",
"342 -30 LINE"
);
},
{
closed = 1;
nodes = (
"811 575 LINE",
"811 590 LINE",
"780 650 LINE",
"-31 650 LINE",
"-31 634 LINE",
"0 575 LINE",
"559 575 LINE",
"559 474 LINE",
"481 473 OFFCURVE",
"438 426 OFFCURVE",
"407 365 CURVE",
"359 405 OFFCURVE",
"302 464 OFFCURVE",
"222 464 CURVE SMOOTH",
"140 464 OFFCURVE",
"53 388 OFFCURVE",
"53 256 CURVE SMOOTH",
"53 156 OFFCURVE",
"151 52 OFFCURVE",
"254 52 CURVE SMOOTH",
"341 52 OFFCURVE",
"386 106 OFFCURVE",
"418 174 CURVE",
"451 133 OFFCURVE",
"522 69 OFFCURVE",
"598 69 CURVE SMOOTH",
"681 69 OFFCURVE",
"758 141 OFFCURVE",
"758 263 CURVE SMOOTH",
"758 351 OFFCURVE",
"710 419 OFFCURVE",
"648 451 CURVE",
"648 575 LINE"
);
},
{
closed = 1;
nodes = (
"148 123 OFFCURVE",
"115 170 OFFCURVE",
"115 224 CURVE SMOOTH",
"115 307 OFFCURVE",
"166 385 OFFCURVE",
"264 385 CURVE SMOOTH",
"318 385 OFFCURVE",
"357 356 OFFCURVE",
"387 324 CURVE",
"346 228 OFFCURVE",
"315 123 OFFCURVE",
"213 123 CURVE SMOOTH"
);
},
{
closed = 1;
nodes = (
"658 405 OFFCURVE",
"701 358 OFFCURVE",
"701 305 CURVE SMOOTH",
"701 229 OFFCURVE",
"627 148 OFFCURVE",
"566 148 CURVE SMOOTH",
"509 148 OFFCURVE",
"467 176 OFFCURVE",
"435 214 CURVE",
"475 306 OFFCURVE",
"505 405 OFFCURVE",
"603 405 CURVE SMOOTH"
);
}
);
};
layerId = "39185045-6A8C-415A-8312-7B8F11386A4C";
name = Regular;
paths = (
{
closed = 1;
nodes = (
"420 -108 LINE",
"497 -29 LINE",
"419 48 LINE",
"342 -30 LINE"
);
},
{
closed = 1;
nodes = (
"811 575 LINE",
"811 590 LINE",
"780 650 LINE",
"-31 650 LINE",
"-31 634 LINE",
"0 575 LINE",
"559 575 LINE",
"559 474 LINE",
"481 473 OFFCURVE",
"438 426 OFFCURVE",
"407 365 CURVE",
"359 405 OFFCURVE",
"302 464 OFFCURVE",
"222 464 CURVE SMOOTH",
"140 464 OFFCURVE",
"53 388 OFFCURVE",
"53 256 CURVE SMOOTH",
"53 156 OFFCURVE",
"151 52 OFFCURVE",
"254 52 CURVE SMOOTH",
"341 52 OFFCURVE",
"386 106 OFFCURVE",
"418 174 CURVE",
"451 133 OFFCURVE",
"522 69 OFFCURVE",
"598 69 CURVE SMOOTH",
"681 69 OFFCURVE",
"758 141 OFFCURVE",
"758 263 CURVE SMOOTH",
"758 351 OFFCURVE",
"710 419 OFFCURVE",
"648 451 CURVE",
"648 575 LINE"
);
},
{
closed = 1;
nodes = (
"148 123 OFFCURVE",
"115 170 OFFCURVE",
"115 224 CURVE SMOOTH",
"115 307 OFFCURVE",
"166 385 OFFCURVE",
"264 385 CURVE SMOOTH",
"318 385 OFFCURVE",
"357 356 OFFCURVE",
"387 324 CURVE",
"346 228 OFFCURVE",
"315 123 OFFCURVE",
"213 123 CURVE SMOOTH"
);
},
{
closed = 1;
nodes = (
"658 405 OFFCURVE",
"701 358 OFFCURVE",
"701 305 CURVE SMOOTH",
"701 229 OFFCURVE",
"627 148 OFFCURVE",
"566 148 CURVE SMOOTH",
"509 148 OFFCURVE",
"467 176 OFFCURVE",
"435 214 CURVE",
"475 306 OFFCURVE",
"505 405 OFFCURVE",
"603 405 CURVE SMOOTH"
);
}
);
width = 811;
}
);
unicode = 0934;
},
{
glyphname = "va-deva";
lastChange = "2014-06-27 10:25:37 +0100";
layers = (
{
anchors = (
{
name = bottom;
position = "{508, 0}";
},
{
name = top;
position = "{508, 650}";
}
);
layerId = "39185045-6A8C-415A-8312-7B8F11386A4C";
name = Regular;
paths = (
{
closed = 1;
nodes = (
"661 575 LINE",
"661 590 LINE",
"630 650 LINE",
"-31 650 LINE",
"-31 634 LINE",
"0 575 LINE",
"464 575 LINE",
"464 357 LINE",
"462 357 LINE",
"431 397 OFFCURVE",
"346 485 OFFCURVE",
"245 485 CURVE SMOOTH",
"162 485 OFFCURVE",
"66 410 OFFCURVE",
"66 278 CURVE SMOOTH",
"66 159 OFFCURVE",
"170 93 OFFCURVE",
"272 93 CURVE SMOOTH",
"339 93 OFFCURVE",
"397 132 OFFCURVE",
"462 178 CURVE",
"465 176 LINE",
"462 0 LINE",
"536 -42 LINE",
"551 -42 LINE",
"551 575 LINE"
);
},
{
closed = 1;
nodes = (
"167 164 OFFCURVE",
"115 201 OFFCURVE",
"115 256 CURVE SMOOTH",
"115 320 OFFCURVE",
"189 397 OFFCURVE",
"296 397 CURVE SMOOTH",
"358 397 OFFCURVE",
"431 342 OFFCURVE",
"464 297 CURVE",
"464 295 LINE",
"415 234 OFFCURVE",
"312 164 OFFCURVE",
"231 164 CURVE SMOOTH"
);
}
);
width = 661;
}
);
unicode = 0935;
},
{
glyphname = "sha-deva";
lastChange = "2014-06-27 10:25:37 +0100";
layers = (
{
anchors = (
{
name = bottom;
position = "{589, 0}";
},
{
name = top;
position = "{589, 650}";
}
);
layerId = "39185045-6A8C-415A-8312-7B8F11386A4C";
name = Regular;
paths = (
{
closed = 1;
nodes = (
"545 -1 LINE",
"617 -42 LINE",
"633 -42 LINE",
"633 575 LINE",
"743 575 LINE",
"743 590 LINE",
"711 650 LINE",
"-31 650 LINE",
"-31 634 LINE",
"0 575 LINE",
"112 575 LINE",
"107 561 OFFCURVE",
"104 548 OFFCURVE",
"104 531 CURVE SMOOTH",
"104 434 OFFCURVE",
"195 354 OFFCURVE",
"282 318 CURVE",
"256 281 OFFCURVE",
"219 250 OFFCURVE",
"178 233 CURVE",
"168 313 LINE",
"161 316 OFFCURVE",
"152 318 OFFCURVE",
"139 318 CURVE SMOOTH",
"99 318 OFFCURVE",
"51 292 OFFCURVE",
"51 244 CURVE SMOOTH",
"51 207 OFFCURVE",
"106 176 OFFCURVE",
"146 165 CURVE",
"340 -58 LINE",
"394 -17 LINE",
"210 167 LINE",
"311 195 OFFCURVE",
"412 325 OFFCURVE",
"412 455 CURVE SMOOTH",
"412 506 OFFCURVE",
"393 546 OFFCURVE",
"367 575 CURVE",
"545 575 LINE"
);
},
{
closed = 1;
nodes = (
"181 552 OFFCURVE",
"209 574 OFFCURVE",
"245 574 CURVE SMOOTH",
"305 574 OFFCURVE",
"340 525 OFFCURVE",
"340 477 CURVE SMOOTH",
"340 442 OFFCURVE",
"330 401 OFFCURVE",
"310 363 CURVE",
"251 385 OFFCURVE",
"181 443 OFFCURVE",
"181 507 CURVE SMOOTH"
);
}
);
width = 743;
}
);
unicode = 0936;
},
{
glyphname = "ssa-deva";
lastChange = "2014-06-27 10:25:37 +0100";
layers = (
{
anchors = (
{
name = bottom;
position = "{464, 0}";
},
{
name = top;
position = "{464, 650}";
}
);
layerId = "39185045-6A8C-415A-8312-7B8F11386A4C";
name = Regular;
paths = (
{
closed = 1;
nodes = (
"617 575 LINE",
"617 590 LINE",
"586 650 LINE",
"-31 650 LINE",
"-31 634 LINE",
"0 575 LINE",
"87 575 LINE",
"87 309 LINE SMOOTH",
"87 272 OFFCURVE",
"108 243 OFFCURVE",
"144 208 CURVE SMOOTH",
"183 170 OFFCURVE",
"234 129 OFFCURVE",
"279 129 CURVE SMOOTH",
"335 129 OFFCURVE",
"385 160 OFFCURVE",
"418 180 CURVE",
"420 180 LINE",
"420 -1 LINE",
"492 -42 LINE",
"508 -42 LINE",
"508 575 LINE"
);
},
{
closed = 1;
nodes = (
"230 211 OFFCURVE",
"176 224 OFFCURVE",
"176 294 CURVE SMOOTH",
"176 524 LINE",
"413 274 LINE",
"376 245 OFFCURVE",
"317 211 OFFCURVE",
"263 211 CURVE SMOOTH"
);
},
{
closed = 1;
nodes = (
"176 575 LINE",
"420 575 LINE",
"420 317 LINE"
);
}
);
width = 617;
}
);
unicode = 0937;
},
{
glyphname = "sa-deva";
lastChange = "2014-06-27 10:25:37 +0100";
layers = (
{
anchors = (
{
name = bottom;
position = "{549, 0}";
},
{
name = top;
position = "{549, 650}";
}
);
layerId = "39185045-6A8C-415A-8312-7B8F11386A4C";
name = Regular;
paths = (
{
closed = 1;
nodes = (
"704 575 LINE",
"704 590 LINE",
"672 650 LINE",
"-31 650 LINE",
"-31 634 LINE",
"0 575 LINE",
"188 575 LINE",
"195 535 OFFCURVE",
"199 482 OFFCURVE",
"199 450 CURVE SMOOTH",
"199 407 OFFCURVE",
"184 358 OFFCURVE",
"174 340 CURVE",
"121 382 LINE",
"119 382 LINE",
"100 370 OFFCURVE",
"66 340 OFFCURVE",
"66 306 CURVE SMOOTH",
"66 272 OFFCURVE",
"89 250 OFFCURVE",
"126 207 CURVE SMOOTH",
"347 -47 LINE",
"396 -10 LINE",
"187 211 LINE",
"207 228 OFFCURVE",
"227 250 OFFCURVE",
"244 276 CURVE",
"247 276 LINE",
"276 252 OFFCURVE",
"340 207 OFFCURVE",
"406 207 CURVE SMOOTH",
"428 207 OFFCURVE",
"466 210 OFFCURVE",
"504 224 CURVE",
"506 224 LINE",
"506 -1 LINE",
"578 -42 LINE",
"594 -42 LINE",
"594 575 LINE"
);
},
{
closed = 1;
nodes = (
"339 288 OFFCURVE",
"297 305 OFFCURVE",
"266 322 CURVE",
"274 346 OFFCURVE",
"280 373 OFFCURVE",
"280 404 CURVE SMOOTH",
"280 448 OFFCURVE",
"274 519 OFFCURVE",
"263 575 CURVE",
"506 575 LINE",
"506 318 LINE",
"478 301 OFFCURVE",
"439 288 OFFCURVE",
"383 288 CURVE SMOOTH"
);
}
);
width = 704;
}
);
unicode = 0938;
},
{
glyphname = "ha-deva";
lastChange = "2014-06-27 10:25:37 +0100";
layers = (
{
anchors = (
{
name = bottom;
position = "{429, 0}";
},
{
name = top;
position = "{405, 650}";
}
);
layerId = "39185045-6A8C-415A-8312-7B8F11386A4C";
name = Regular;
paths = (
{
closed = 1;
nodes = (
"418 -117 LINE",
"259 -28 OFFCURVE",
"184 31 OFFCURVE",
"184 124 CURVE SMOOTH",
"184 199 OFFCURVE",
"257 256 OFFCURVE",
"325 256 CURVE SMOOTH",
"388 256 OFFCURVE",
"429 218 OFFCURVE",
"429 185 CURVE SMOOTH",
"429 135 OFFCURVE",
"375 94 OFFCURVE",
"322 64 CURVE",
"322 62 LINE",
"391 2 LINE",
"446 30 OFFCURVE",
"505 88 OFFCURVE",
"505 148 CURVE SMOOTH",
"505 207 OFFCURVE",
"408 310 OFFCURVE",
"298 310 CURVE SMOOTH",
"246 310 OFFCURVE",
"202 297 OFFCURVE",
"169 275 CURVE",
"142 301 OFFCURVE",
"126 334 OFFCURVE",
"126 358 CURVE SMOOTH",
"126 385 OFFCURVE",
"141 404 OFFCURVE",
"184 404 CURVE SMOOTH",
"449 404 LINE",
"449 575 LINE",
"573 575 LINE",
"573 590 LINE",
"541 650 LINE",
"-31 650 LINE",
"-31 634 LINE",
"0 575 LINE",
"361 575 LINE",
"361 483 LINE",
"161 483 LINE SMOOTH",
"99 483 OFFCURVE",
"63 460 OFFCURVE",
"63 386 CURVE SMOOTH",
"63 340 OFFCURVE",
"96 283 OFFCURVE",
"131 242 CURVE",
"107 216 OFFCURVE",
"96 183 OFFCURVE",
"96 152 CURVE SMOOTH",
"96 16 OFFCURVE",
"255 -78 OFFCURVE",
"395 -150 CURVE"
);
}
);
width = 573;
}
);
unicode = 0939;
},
{
glyphname = "qa-deva";
lastChange = "2014-06-27 10:25:37 +0100";
layers = (
{
anchors = (
{
name = bottom;
position = "{445, 0}";
},
{
name = top;
position = "{445, 650}";
}
);
layerId = "39185045-6A8C-415A-8312-7B8F11386A4C";
name = Regular;
paths = (
{
closed = 1;
nodes = (
"227 -102 LINE",
"305 -23 LINE",
"226 55 LINE",
"149 -24 LINE"
);
},
{
closed = 1;
nodes = (
"851 575 LINE",
"851 590 LINE",
"820 650 LINE",
"-31 650 LINE",
"-31 634 LINE",
"0 575 LINE",
"401 575 LINE",
"401 338 LINE",
"399 338 LINE",
"369 385 OFFCURVE",
"320 464 OFFCURVE",
"209 464 CURVE SMOOTH",
"113 464 OFFCURVE",
"53 378 OFFCURVE",
"53 293 CURVE SMOOTH",
"53 178 OFFCURVE",
"133 111 OFFCURVE",
"232 111 CURVE SMOOTH",
"308 111 OFFCURVE",
"353 149 OFFCURVE",
"399 186 CURVE",
"403 184 LINE",
"399 0 LINE",
"473 -42 LINE",
"489 -42 LINE",
"489 265 LINE",
"529 305 OFFCURVE",
"591 360 OFFCURVE",
"657 360 CURVE SMOOTH",
"708 360 OFFCURVE",
"748 318 OFFCURVE",
"748 262 CURVE SMOOTH",
"748 203 OFFCURVE",
"691 128 OFFCURVE",
"664 98 CURVE",
"732 26 LINE",
"765 76 OFFCURVE",
"798 181 OFFCURVE",
"798 237 CURVE SMOOTH",
"798 352 OFFCURVE",
"745 434 OFFCURVE",
"631 434 CURVE SMOOTH",
"571 434 OFFCURVE",
"511 386 OFFCURVE",
"489 365 CURVE",
"489 575 LINE"
);
},
{
closed = 1;
nodes = (
"401 283 LINE",
"363 248 OFFCURVE",
"292 188 OFFCURVE",
"198 188 CURVE SMOOTH",
"154 188 OFFCURVE",
"102 217 OFFCURVE",
"102 269 CURVE SMOOTH",
"102 342 OFFCURVE",
"180 374 OFFCURVE",
"242 374 CURVE SMOOTH",
"311 374 OFFCURVE",
"375 321 OFFCURVE",
"401 285 CURVE"
);
}
);
width = 851;
}
);
unicode = 0958;
},
{
glyphname = "khha-deva";
lastChange = "2014-06-27 10:25:37 +0100";
layers = (
{
anchors = (
{
name = bottom;
position = "{707, 0}";
},
{
name = top;
position = "{707, 650}";
}
);
layerId = "39185045-6A8C-415A-8312-7B8F11386A4C";
name = Regular;
paths = (
{
closed = 1;
nodes = (
"195 -111 LINE",
"272 -32 LINE",
"194 46 LINE",
"117 -33 LINE"
);
},
{
closed = 1;
nodes = (
"861 575 LINE",
"861 590 LINE",
"829 650 LINE",
"-31 650 LINE",
"-31 634 LINE",
"0 575 LINE",
"180 575 LINE",
"185 535 OFFCURVE",
"189 482 OFFCURVE",
"189 450 CURVE SMOOTH",
"189 407 OFFCURVE",
"176 358 OFFCURVE",
"164 340 CURVE",
"111 382 LINE",
"109 382 LINE",
"90 370 OFFCURVE",
"58 340 OFFCURVE",
"58 306 CURVE SMOOTH",
"58 271 OFFCURVE",
"84 242 OFFCURVE",
"135 186 CURVE SMOOTH",
"213 101 OFFCURVE",
"335 -9 OFFCURVE",
"443 -9 CURVE SMOOTH",
"518 -9 OFFCURVE",
"612 29 OFFCURVE",
"664 62 CURVE",
"661 0 LINE",
"735 -42 LINE",
"751 -42 LINE",
"751 575 LINE"
);
},
{
closed = 1;
nodes = (
"413 507 OFFCURVE",
"341 445 OFFCURVE",
"341 346 CURVE SMOOTH",
"341 249 OFFCURVE",
"426 180 OFFCURVE",
"513 180 CURVE SMOOTH",
"571 180 OFFCURVE",
"616 219 OFFCURVE",
"661 255 CURVE",
"665 253 LINE",
"665 155 LINE",
"610 102 OFFCURVE",
"506 59 OFFCURVE",
"442 59 CURVE SMOOTH",
"324 59 OFFCURVE",
"219 166 OFFCURVE",
"179 211 CURVE",
"222 252 OFFCURVE",
"271 307 OFFCURVE",
"271 404 CURVE SMOOTH",
"271 448 OFFCURVE",
"264 519 OFFCURVE",
"254 575 CURVE",
"663 575 LINE",
"663 426 LINE",
"661 426 LINE",
"631 456 OFFCURVE",
"582 507 OFFCURVE",
"505 507 CURVE SMOOTH"
);
},
{
closed = 1;
nodes = (
"427 251 OFFCURVE",
"388 284 OFFCURVE",
"388 318 CURVE SMOOTH",
"388 376 OFFCURVE",
"454 427 OFFCURVE",
"533 427 CURVE SMOOTH",
"577 427 OFFCURVE",
"631 409 OFFCURVE",
"663 365 CURVE",
"663 363 LINE",
"615 302 OFFCURVE",
"543 251 OFFCURVE",
"482 251 CURVE SMOOTH"
);
}
);
width = 861;
}
);
unicode = 0959;
},
{
glyphname = "ghha-deva";
lastChange = "2014-06-27 10:25:37 +0100";
layers = (
{
anchors = (
{
name = bottom;
position = "{473, 0}";
},
{
name = top;
position = "{473, 650}";
}
);
layerId = "39185045-6A8C-415A-8312-7B8F11386A4C";
name = Regular;
paths = (
{
closed = 1;
nodes = (
"256 -28 LINE",
"332 51 LINE",
"255 129 LINE",
"178 50 LINE"
);
},
{
closed = 1;
nodes = (
"429 -1 LINE",
"502 -42 LINE",
"518 -42 LINE",
"518 575 LINE",
"628 575 LINE",
"628 590 LINE",
"596 650 LINE",
"-31 650 LINE",
"-31 634 LINE",
"0 575 LINE",
"143 575 LINE",
"143 328 LINE",
"45 341 LINE",
"41 330 OFFCURVE",
"39 316 OFFCURVE",
"39 300 CURVE SMOOTH",
"39 256 OFFCURVE",
"73 177 OFFCURVE",
"153 177 CURVE SMOOTH",
"225 177 OFFCURVE",
"236 248 OFFCURVE",
"236 284 CURVE SMOOTH",
"236 372 OFFCURVE",
"229 485 OFFCURVE",
"220 575 CURVE",
"429 575 LINE"
);
}
);
width = 628;
}
);
unicode = 095A;
},
{
glyphname = "za-deva";
lastChange = "2014-06-27 10:25:37 +0100";
layers = (
{
anchors = (
{
name = bottom;
position = "{586, 0}";
},
{
name = top;
position = "{586, 650}";
}
);
layerId = "39185045-6A8C-415A-8312-7B8F11386A4C";
name = Regular;
paths = (
{
closed = 1;
nodes = (
"420 -140 LINE",
"497 -61 LINE",
"419 18 LINE",
"342 -61 LINE"
);
},
{
closed = 1;
nodes = (
"740 575 LINE",
"740 590 LINE",
"709 650 LINE",
"-31 650 LINE",
"-31 634 LINE",
"0 575 LINE",
"542 575 LINE",
"542 441 LINE",
"214 441 LINE",
"200 408 LINE",
"261 374 OFFCURVE",
"354 300 OFFCURVE",
"354 228 CURVE SMOOTH",
"354 189 OFFCURVE",
"327 148 OFFCURVE",
"286 148 CURVE SMOOTH",
"180 148 OFFCURVE",
"100 340 OFFCURVE",
"63 428 CURVE",
"20 412 LINE",
"65 289 OFFCURVE",
"143 63 OFFCURVE",
"305 63 CURVE SMOOTH",
"374 63 OFFCURVE",
"432 125 OFFCURVE",
"432 208 CURVE SMOOTH",
"432 260 OFFCURVE",
"388 319 OFFCURVE",
"337 366 CURVE",
"542 366 LINE",
"542 -1 LINE",
"615 -42 LINE",
"630 -42 LINE",
"630 575 LINE"
);
}
);
width = 740;
}
);
unicode = 095B;
},
{
glyphname = "dddha-deva";
lastChange = "2014-06-27 10:25:37 +0100";
layers = (
{
anchors = (
{
name = bottom;
position = "{343, 0}";
},
{
name = top;
position = "{438, 650}";
}
);
layerId = "39185045-6A8C-415A-8312-7B8F11386A4C";
name = Regular;
paths = (
{
closed = 1;
nodes = (
"601 575 LINE",
"601 590 LINE",
"570 650 LINE",
"-31 650 LINE",
"-31 634 LINE",
"0 575 LINE",
"394 575 LINE",
"394 471 LINE",
"204 471 LINE SMOOTH",
"145 471 OFFCURVE",
"97 428 OFFCURVE",
"97 346 CURVE SMOOTH",
"97 267 OFFCURVE",
"203 179 OFFCURVE",
"251 179 CURVE SMOOTH",
"323 179 OFFCURVE",
"370 218 OFFCURVE",
"457 218 CURVE",
"476 209 OFFCURVE",
"491 178 OFFCURVE",
"491 152 CURVE SMOOTH",
"491 80 OFFCURVE",
"411 49 OFFCURVE",
"343 49 CURVE SMOOTH",
"264 49 OFFCURVE",
"173 82 OFFCURVE",
"63 199 CURVE",
"28 167 LINE",
"157 19 OFFCURVE",
"274 -30 OFFCURVE",
"381 -30 CURVE SMOOTH",
"487 -30 OFFCURVE",
"544 39 OFFCURVE",
"544 130 CURVE SMOOTH",
"544 203 OFFCURVE",
"481 300 OFFCURVE",
"427 300 CURVE SMOOTH",
"355 300 OFFCURVE",
"278 258 OFFCURVE",
"204 258 CURVE SMOOTH",
"184 258 OFFCURVE",
"162 290 OFFCURVE",
"162 318 CURVE SMOOTH",
"162 346 OFFCURVE",
"169 391 OFFCURVE",
"237 391 CURVE SMOOTH",
"483 391 LINE",
"483 575 LINE"
);
},
{
closed = 1;
nodes = (
"279 -222 LINE",
"356 -142 LINE",
"278 -65 LINE",
"201 -143 LINE"
);
}
);
width = 601;
}
);
unicode = 095C;
},
{
glyphname = "rha-deva";
lastChange = "2014-06-27 10:25:37 +0100";
layers = (
{
anchors = (
{
name = bottom;
position = "{339, 0}";
},
{
name = top;
position = "{391, 650}";
}
);
layerId = "39185045-6A8C-415A-8312-7B8F11386A4C";
name = Regular;
paths = (
{
closed = 1;
nodes = (
"294 -225 LINE",
"370 -146 LINE",
"293 -68 LINE",
"216 -147 LINE"
);
},
{
closed = 1;
nodes = (
"435 375 LINE",
"435 575 LINE",
"573 575 LINE",
"573 590 LINE",
"541 650 LINE",
"-31 650 LINE",
"-31 634 LINE",
"0 575 LINE",
"347 575 LINE",
"347 460 LINE",
"250 460 LINE SMOOTH",
"148 460 OFFCURVE",
"52 414 OFFCURVE",
"52 268 CURVE SMOOTH",
"52 66 OFFCURVE",
"229 -30 OFFCURVE",
"339 -30 CURVE SMOOTH",
"412 -30 OFFCURVE",
"512 20 OFFCURVE",
"512 121 CURVE SMOOTH",
"512 213 OFFCURVE",
"444 282 OFFCURVE",
"361 282 CURVE SMOOTH",
"302 282 OFFCURVE",
"233 254 OFFCURVE",
"233 160 CURVE SMOOTH",
"233 124 OFFCURVE",
"248 85 OFFCURVE",
"268 55 CURVE",
"207 72 OFFCURVE",
"102 129 OFFCURVE",
"102 241 CURVE SMOOTH",
"102 329 OFFCURVE",
"174 375 OFFCURVE",
"273 375 CURVE SMOOTH"
);
},
{
closed = 1;
nodes = (
"291 183 OFFCURVE",
"351 217 OFFCURVE",
"393 217 CURVE SMOOTH",
"427 217 OFFCURVE",
"468 189 OFFCURVE",
"468 142 CURVE SMOOTH",
"468 90 OFFCURVE",
"394 51 OFFCURVE",
"307 49 CURVE",
"300 64 OFFCURVE",
"291 87 OFFCURVE",
"291 116 CURVE SMOOTH"
);
}
);
width = 573;
}
);
unicode = 095D;
},
{
glyphname = "fa-deva";
lastChange = "2014-06-27 10:25:37 +0100";
layers = (
{
anchors = (
{
name = bottom;
position = "{435, 0}";
},
{
name = top;
position = "{435, 650}";
}
);
layerId = "39185045-6A8C-415A-8312-7B8F11386A4C";
name = Regular;
paths = (
{
closed = 1;
nodes = (
"195 -32 LINE",
"272 47 LINE",
"194 124 LINE",
"117 46 LINE"
);
},
{
closed = 1;
nodes = (
"389 0 LINE",
"465 -42 LINE",
"480 -42 LINE",
"480 275 LINE",
"517 309 OFFCURVE",
"576 374 OFFCURVE",
"648 374 CURVE SMOOTH",
"698 374 OFFCURVE",
"738 332 OFFCURVE",
"738 275 CURVE SMOOTH",
"738 218 OFFCURVE",
"682 142 OFFCURVE",
"654 111 CURVE",
"723 40 LINE",
"755 90 OFFCURVE",
"789 195 OFFCURVE",
"789 251 CURVE SMOOTH",
"789 367 OFFCURVE",
"735 448 OFFCURVE",
"622 448 CURVE SMOOTH",
"559 448 OFFCURVE",
"507 400 OFFCURVE",
"480 377 CURVE",
"480 575 LINE",
"842 575 LINE",
"842 590 LINE",
"810 650 LINE",
"-31 650 LINE",
"-31 634 LINE",
"0 575 LINE",
"87 575 LINE",
"87 342 LINE SMOOTH",
"87 305 OFFCURVE",
"108 271 OFFCURVE",
"144 236 CURVE SMOOTH",
"183 198 OFFCURVE",
"224 166 OFFCURVE",
"270 166 CURVE SMOOTH",
"317 166 OFFCURVE",
"355 182 OFFCURVE",
"389 202 CURVE",
"393 200 LINE"
);
},
{
closed = 1;
nodes = (
"221 248 OFFCURVE",
"176 257 OFFCURVE",
"176 326 CURVE SMOOTH",
"176 575 LINE",
"391 575 LINE",
"391 299 LINE",
"355 272 OFFCURVE",
"305 248 OFFCURVE",
"254 248 CURVE SMOOTH"
);
}
);
width = 842;
}
);
unicode = 095E;
},
{
glyphname = "yya-deva";
lastChange = "2014-06-27 10:25:37 +0100";
layers = (
{
anchors = (
{
name = bottom;
position = "{484, 0}";
},
{
name = top;
position = "{484, 650}";
}
);
layerId = "39185045-6A8C-415A-8312-7B8F11386A4C";
name = Regular;
paths = (
{
closed = 1;
nodes = (
"148 -88 LINE",
"225 -10 LINE",
"147 68 LINE",
"70 -10 LINE"
);
},
{
closed = 1;
nodes = (
"637 575 LINE",
"637 590 LINE",
"606 650 LINE",
"-31 650 LINE",
"-31 634 LINE",
"0 575 LINE",
"131 575 LINE",
"173 532 OFFCURVE",
"199 500 OFFCURVE",
"199 458 CURVE SMOOTH",
"199 393 OFFCURVE",
"123 346 OFFCURVE",
"54 325 CURVE",
"96 195 OFFCURVE",
"178 104 OFFCURVE",
"287 104 CURVE SMOOTH",
"347 104 OFFCURVE",
"400 133 OFFCURVE",
"438 160 CURVE",
"442 158 LINE",
"438 0 LINE",
"512 -42 LINE",
"528 -42 LINE",
"528 575 LINE"
);
},
{
closed = 1;
nodes = (
"192 183 OFFCURVE",
"142 218 OFFCURVE",
"141 273 CURVE",
"187 293 OFFCURVE",
"287 352 OFFCURVE",
"287 433 CURVE SMOOTH",
"287 477 OFFCURVE",
"236 535 OFFCURVE",
"199 573 CURVE",
"199 575 LINE",
"440 575 LINE",
"440 273 LINE",
"404 232 OFFCURVE",
"324 183 OFFCURVE",
"247 183 CURVE SMOOTH"
);
}
);
width = 637;
}
);
unicode = 095F;
},
{
glyphname = "gga-deva";
lastChange = "2014-06-27 10:25:37 +0100";
layers = (
{
anchors = (
{
name = bottom;
position = "{473, 0}";
},
{
name = top;
position = "{473, 650}";
}
);
layerId = "39185045-6A8C-415A-8312-7B8F11386A4C";
name = Regular;
paths = (
{
closed = 1;
nodes = (
"518 -42 LINE",
"518 575 LINE",
"628 575 LINE",
"628 590 LINE",
"596 650 LINE",
"-31 650 LINE",
"-31 634 LINE",
"0 575 LINE",
"143 575 LINE",
"143 328 LINE",
"45 341 LINE",
"41 330 OFFCURVE",
"39 316 OFFCURVE",
"39 300 CURVE SMOOTH",
"39 256 OFFCURVE",
"73 177 OFFCURVE",
"153 177 CURVE SMOOTH",
"225 177 OFFCURVE",
"236 248 OFFCURVE",
"236 284 CURVE SMOOTH",
"236 372 OFFCURVE",
"229 485 OFFCURVE",
"220 575 CURVE",
"429 575 LINE",
"429 20 LINE",
"31 20 LINE",
"31 5 LINE",
"57 -42 LINE"
);
}
);
width = 628;
}
);
unicode = 097B;
},
{
glyphname = "jja-deva";
lastChange = "2014-06-27 10:25:37 +0100";
layers = (
{
anchors = (
{
name = bottom;
position = "{586, 0}";
},
{
name = top;
position = "{586, 650}";
}
);
layerId = "39185045-6A8C-415A-8312-7B8F11386A4C";
name = Regular;
paths = (
{
closed = 1;
nodes = (
"740 575 LINE",
"740 590 LINE",
"709 650 LINE",
"-31 650 LINE",
"-31 634 LINE",
"0 575 LINE",
"542 575 LINE",
"542 441 LINE",
"214 441 LINE",
"200 408 LINE",
"261 374 OFFCURVE",
"354 300 OFFCURVE",
"354 228 CURVE SMOOTH",
"354 189 OFFCURVE",
"327 148 OFFCURVE",
"286 148 CURVE SMOOTH",
"180 148 OFFCURVE",
"100 340 OFFCURVE",
"63 428 CURVE",
"20 412 LINE",
"65 289 OFFCURVE",
"143 63 OFFCURVE",
"305 63 CURVE SMOOTH",
"374 63 OFFCURVE",
"432 125 OFFCURVE",
"432 208 CURVE SMOOTH",
"432 260 OFFCURVE",
"388 319 OFFCURVE",
"337 366 CURVE",
"542 366 LINE",
"542 20 LINE",
"31 20 LINE",
"31 5 LINE",
"57 -42 LINE",
"630 -42 LINE",
"630 575 LINE"
);
}
);
width = 740;
}
);
unicode = 097C;
},
{
glyphname = "ddda-deva";
lastChange = "2014-06-27 10:25:37 +0100";
layers = (
{
anchors = (
{
name = bottom;
position = "{381, 0}";
},
{
name = top;
position = "{438, 650}";
}
);
layerId = "39185045-6A8C-415A-8312-7B8F11386A4C";
name = Regular;
paths = (
{
closed = 1;
nodes = (
"545 -101 LINE",
"31 -101 LINE",
"31 -116 LINE",
"57 -162 LINE",
"570 -162 LINE",
"570 -146 LINE"
);
},
{
closed = 1;
nodes = (
"601 575 LINE",
"601 590 LINE",
"570 650 LINE",
"-31 650 LINE",
"-31 634 LINE",
"0 575 LINE",
"394 575 LINE",
"394 471 LINE",
"204 471 LINE SMOOTH",
"145 471 OFFCURVE",
"97 428 OFFCURVE",
"97 346 CURVE SMOOTH",
"97 267 OFFCURVE",
"203 179 OFFCURVE",
"251 179 CURVE SMOOTH",
"323 179 OFFCURVE",
"370 218 OFFCURVE",
"457 218 CURVE",
"476 209 OFFCURVE",
"491 178 OFFCURVE",
"491 152 CURVE SMOOTH",
"491 80 OFFCURVE",
"411 49 OFFCURVE",
"343 49 CURVE SMOOTH",
"264 49 OFFCURVE",
"173 82 OFFCURVE",
"63 199 CURVE",
"28 167 LINE",
"157 19 OFFCURVE",
"274 -30 OFFCURVE",
"381 -30 CURVE SMOOTH",
"487 -30 OFFCURVE",
"544 39 OFFCURVE",
"544 130 CURVE SMOOTH",
"544 203 OFFCURVE",
"481 300 OFFCURVE",
"427 300 CURVE SMOOTH",
"355 300 OFFCURVE",
"278 258 OFFCURVE",
"204 258 CURVE SMOOTH",
"184 258 OFFCURVE",
"162 290 OFFCURVE",
"162 318 CURVE SMOOTH",
"162 346 OFFCURVE",
"169 391 OFFCURVE",
"237 391 CURVE SMOOTH",
"483 391 LINE",
"483 575 LINE"
);
}
);
width = 601;
}
);
unicode = 097E;
},
{
glyphname = "bba-deva";
lastChange = "2014-06-27 10:25:37 +0100";
layers = (
{
anchors = (
{
name = bottom;
position = "{511, 0}";
},
{
name = top;
position = "{511, 650}";
}
);
layerId = "39185045-6A8C-415A-8312-7B8F11386A4C";
name = Regular;
paths = (
{
closed = 1;
nodes = (
"666 575 LINE",
"666 590 LINE",
"634 650 LINE",
"-31 650 LINE",
"-31 634 LINE",
"0 575 LINE",
"468 575 LINE",
"468 357 LINE",
"466 357 LINE",
"436 397 OFFCURVE",
"350 485 OFFCURVE",
"250 485 CURVE SMOOTH",
"167 485 OFFCURVE",
"66 410 OFFCURVE",
"66 278 CURVE SMOOTH",
"66 159 OFFCURVE",
"175 93 OFFCURVE",
"276 93 CURVE SMOOTH",
"350 93 OFFCURVE",
"402 138 OFFCURVE",
"466 186 CURVE",
"469 184 LINE",
"466 20 LINE",
"31 20 LINE",
"31 5 LINE",
"57 -42 LINE",
"556 -42 LINE",
"556 575 LINE"
);
},
{
closed = 1;
nodes = (
"167 164 OFFCURVE",
"115 201 OFFCURVE",
"115 256 CURVE SMOOTH",
"115 297 OFFCURVE",
"145 345 OFFCURVE",
"198 372 CURVE",
"322 184 LINE",
"293 172 OFFCURVE",
"263 164 OFFCURVE",
"236 164 CURVE SMOOTH"
);
},
{
closed = 1;
nodes = (
"232 386 LINE",
"253 392 OFFCURVE",
"275 397 OFFCURVE",
"301 397 CURVE SMOOTH",
"363 397 OFFCURVE",
"436 342 OFFCURVE",
"468 297 CURVE",
"468 295 LINE",
"442 262 OFFCURVE",
"400 226 OFFCURVE",
"354 201 CURVE"
);
}
);
width = 666;
}
);
unicode = 097F;
},
{
glyphname = "aCandra-deva";
lastChange = "2014-06-27 10:25:37 +0100";
layers = (
{
background = {
paths = (
{
closed = 1;
nodes = (
"645 -1 LINE",
"717 -42 LINE",
"733 -42 LINE",
"733 575 LINE",
"842 575 LINE",
"842 590 LINE",
"811 650 LINE",
"159 650 LINE",
"159 634 LINE",
"191 575 LINE",
"338 575 LINE",
"338 327 LINE",
"310 310 OFFCURVE",
"281 296 OFFCURVE",
"237 296 CURVE SMOOTH",
"184 296 OFFCURVE",
"125 320 OFFCURVE",
"90 339 CURVE",
"122 368 OFFCURVE",
"143 419 OFFCURVE",
"143 461 CURVE SMOOTH",
"143 557 OFFCURVE",
"28 665 OFFCURVE",
"-52 667 CURVE SMOOTH",
"-89 667 OFFCURVE",
"-175 630 OFFCURVE",
"-212 603 CURVE",
"-165 516 LINE",
"-125 553 OFFCURVE",
"-73 586 OFFCURVE",
"-18 586 CURVE SMOOTH",
"34 586 OFFCURVE",
"81 544 OFFCURVE",
"81 497 CURVE SMOOTH",
"81 450 OFFCURVE",
"53 425 OFFCURVE",
"20 407 CURVE SMOOTH",
"-16 388 OFFCURVE",
"-74 382 OFFCURVE",
"-110 380 CURVE",
"-121 353 LINE",
"-87 289 LINE",
"-56 293 OFFCURVE",
"8 303 OFFCURVE",
"48 316 CURVE",
"79 290 OFFCURVE",
"92 247 OFFCURVE",
"92 210 CURVE SMOOTH",
"92 150 OFFCURVE",
"43 98 OFFCURVE",
"-27 98 CURVE SMOOTH",
"-121 98 OFFCURVE",
"-215 199 OFFCURVE",
"-265 284 CURVE",
"-300 262 LINE",
"-251 173 OFFCURVE",
"-154 18 OFFCURVE",
"10 18 CURVE SMOOTH",
"106 18 OFFCURVE",
"171 77 OFFCURVE",
"171 173 CURVE SMOOTH",
"171 209 OFFCURVE",
"162 240 OFFCURVE",
"147 267 CURVE",
"152 270 LINE",
"190 240 OFFCURVE",
"229 220 OFFCURVE",
"277 220 CURVE SMOOTH",
"302 220 OFFCURVE",
"323 225 OFFCURVE",
"336 232 CURVE",
"338 232 LINE",
"338 -1 LINE",
"410 -42 LINE",
"426 -42 LINE",
"426 575 LINE",
"645 575 LINE"
);
},
{
closed = 1;
nodes = (
"820 918 LINE",
"793 874 OFFCURVE",
"731 818 OFFCURVE",
"644 818 CURVE SMOOTH",
"578 818 OFFCURVE",
"525 867 OFFCURVE",
"484 925 CURVE",
"452 911 LINE",
"492 843 OFFCURVE",
"570 752 OFFCURVE",
"682 752 CURVE SMOOTH",
"780 752 OFFCURVE",
"838 798 OFFCURVE",
"884 857 CURVE"
);
}
);
};
components = (
{
name = "a-deva";
transform = "{1, 0, 0, 1, 0, 0}";
},
{
name = "eCandraMatra-deva";
transform = "{1, 0, 0, 1, 809, 0}";
}
);
layerId = "39185045-6A8C-415A-8312-7B8F11386A4C";
name = Regular;
width = 843;
}
);
unicode = 0972;
},
{
glyphname = "oe-deva";
lastChange = "2014-06-27 10:25:37 +0100";
layers = (
{
background = {
paths = (
{
closed = 1;
nodes = (
"843 575 LINE",
"843 590 LINE",
"811 650 LINE",
"505 650 LINE",
"505 634 LINE",
"536 575 LINE",
"645 575 LINE",
"645 -1 LINE",
"717 -42 LINE",
"734 -42 LINE",
"734 575 LINE"
);
},
{
closed = 1;
nodes = (
"645 635 LINE",
"734 635 LINE",
"734 914 LINE",
"645 914 LINE"
);
}
);
};
components = (
{
name = "a-deva";
transform = "{1, 0, 0, 1, 0, 0}";
},
{
name = uni093A;
transform = "{1, 0, 0, 1, 843, 0}";
}
);
layerId = "39185045-6A8C-415A-8312-7B8F11386A4C";
name = Regular;
width = 843;
}
);
unicode = 0973;
},
{
glyphname = "ooe-deva";
lastChange = "2014-06-27 10:25:37 +0100";
layers = (
{
background = {
paths = (
{
closed = 1;
nodes = (
"1151 575 LINE",
"1151 590 LINE",
"1118 650 LINE",
"812 650 LINE",
"812 634 LINE",
"843 575 LINE",
"953 575 LINE",
"953 -1 LINE",
"1025 -42 LINE",
"1041 -42 LINE",
"1041 575 LINE"
);
},
{
closed = 1;
nodes = (
"953 635 LINE",
"1041 635 LINE",
"1041 914 LINE",
"953 914 LINE"
);
}
);
};
components = (
{
name = "aa-deva";
transform = "{1, 0, 0, 1, 0, 0}";
},
{
name = uni093A;
transform = "{1, 0, 0, 1, 1151, 0}";
}
);
layerId = "39185045-6A8C-415A-8312-7B8F11386A4C";
name = Regular;
width = 1150;
}
);
unicode = 0974;
},
{
glyphname = "ue-deva";
lastChange = "2014-06-27 12:28:47 +0100";
layers = (
{
background = {
paths = (
{
closed = 1;
nodes = (
"843 575 LINE",
"843 590 LINE",
"811 650 LINE",
"467 650 LINE",
"467 634 LINE",
"499 575 LINE",
"645 575 LINE",
"645 327 LINE",
"618 310 OFFCURVE",
"589 296 OFFCURVE",
"545 296 CURVE SMOOTH",
"492 296 OFFCURVE",
"432 320 OFFCURVE",
"397 339 CURVE",
"429 368 OFFCURVE",
"451 419 OFFCURVE",
"451 461 CURVE SMOOTH",
"451 557 OFFCURVE",
"336 665 OFFCURVE",
"256 667 CURVE SMOOTH",
"219 667 OFFCURVE",
"133 630 OFFCURVE",
"96 603 CURVE",
"142 516 LINE",
"183 553 OFFCURVE",
"234 586 OFFCURVE",
"290 586 CURVE SMOOTH",
"342 586 OFFCURVE",
"388 544 OFFCURVE",
"388 497 CURVE SMOOTH",
"388 450 OFFCURVE",
"360 425 OFFCURVE",
"328 407 CURVE SMOOTH",
"292 388 OFFCURVE",
"233 382 OFFCURVE",
"197 380 CURVE",
"186 353 LINE",
"221 289 LINE",
"252 293 OFFCURVE",
"315 303 OFFCURVE",
"355 316 CURVE",
"386 290 OFFCURVE",
"399 247 OFFCURVE",
"399 210 CURVE SMOOTH",
"399 150 OFFCURVE",
"350 98 OFFCURVE",
"280 98 CURVE SMOOTH",
"186 98 OFFCURVE",
"93 199 OFFCURVE",
"42 284 CURVE",
"8 262 LINE",
"57 173 OFFCURVE",
"153 18 OFFCURVE",
"317 18 CURVE SMOOTH",
"414 18 OFFCURVE",
"478 77 OFFCURVE",
"478 173 CURVE SMOOTH",
"478 209 OFFCURVE",
"469 240 OFFCURVE",
"455 267 CURVE",
"460 270 LINE",
"498 240 OFFCURVE",
"537 220 OFFCURVE",
"585 220 CURVE SMOOTH",
"609 220 OFFCURVE",
"630 225 OFFCURVE",
"643 232 CURVE",
"645 232 LINE",
"645 -1 LINE",
"717 -42 LINE",
"733 -42 LINE",
"733 575 LINE"
);
},
{
closed = 1;
nodes = (
"338 -147 OFFCURVE",
"299 -102 OFFCURVE",
"263 -47 CURVE",
"198 -108 LINE",
"237 -176 OFFCURVE",
"321 -233 OFFCURVE",
"416 -233 CURVE",
"510 -233 OFFCURVE",
"594 -176 OFFCURVE",
"633 -108 CURVE",
"569 -47 LINE",
"533 -102 OFFCURVE",
"494 -147 OFFCURVE",
"416 -147 CURVE"
);
},
{
closed = 1;
nodes = (
"843 645 LINE",
"843 660 LINE",
"811 720 LINE",
"467 720 LINE",
"467 704 LINE",
"499 645 LINE",
"645 645 LINE",
"645 397 LINE",
"618 380 OFFCURVE",
"589 366 OFFCURVE",
"545 366 CURVE SMOOTH",
"492 366 OFFCURVE",
"432 390 OFFCURVE",
"397 409 CURVE",
"429 438 OFFCURVE",
"451 489 OFFCURVE",
"451 531 CURVE SMOOTH",
"451 627 OFFCURVE",
"336 735 OFFCURVE",
"256 737 CURVE SMOOTH",
"219 737 OFFCURVE",
"133 700 OFFCURVE",
"96 673 CURVE",
"142 586 LINE",
"183 623 OFFCURVE",
"234 656 OFFCURVE",
"290 656 CURVE SMOOTH",
"342 656 OFFCURVE",
"388 614 OFFCURVE",
"388 567 CURVE SMOOTH",
"388 520 OFFCURVE",
"360 495 OFFCURVE",
"328 477 CURVE SMOOTH",
"292 458 OFFCURVE",
"233 452 OFFCURVE",
"197 450 CURVE",
"186 423 LINE",
"221 359 LINE",
"252 363 OFFCURVE",
"315 373 OFFCURVE",
"355 386 CURVE",
"386 360 OFFCURVE",
"399 317 OFFCURVE",
"399 280 CURVE SMOOTH",
"399 220 OFFCURVE",
"350 168 OFFCURVE",
"280 168 CURVE SMOOTH",
"186 168 OFFCURVE",
"93 269 OFFCURVE",
"42 354 CURVE",
"8 332 LINE",
"57 243 OFFCURVE",
"153 88 OFFCURVE",
"317 88 CURVE SMOOTH",
"414 88 OFFCURVE",
"478 147 OFFCURVE",
"478 243 CURVE SMOOTH",
"478 279 OFFCURVE",
"469 310 OFFCURVE",
"455 337 CURVE",
"460 340 LINE",
"498 310 OFFCURVE",
"537 290 OFFCURVE",
"585 290 CURVE SMOOTH",
"609 290 OFFCURVE",
"630 295 OFFCURVE",
"643 302 CURVE",
"645 302 LINE",
"645 69 LINE",
"717 28 LINE",
"733 28 LINE",
"733 645 LINE"
);
}
);
};
layerId = "39185045-6A8C-415A-8312-7B8F11386A4C";
name = Regular;
paths = (
{
closed = 1;
nodes = (
"843 575 LINE",
"843 590 LINE",
"811 650 LINE",
"467 650 LINE",
"467 634 LINE",
"499 575 LINE",
"645 575 LINE",
"645 327 LINE",
"618 310 OFFCURVE",
"589 296 OFFCURVE",
"545 296 CURVE SMOOTH",
"492 296 OFFCURVE",
"432 320 OFFCURVE",
"397 339 CURVE",
"429 368 OFFCURVE",
"451 419 OFFCURVE",
"451 461 CURVE SMOOTH",
"451 557 OFFCURVE",
"336 665 OFFCURVE",
"256 667 CURVE SMOOTH",
"219 667 OFFCURVE",
"133 630 OFFCURVE",
"96 603 CURVE",
"142 516 LINE",
"183 553 OFFCURVE",
"234 586 OFFCURVE",
"290 586 CURVE SMOOTH",
"342 586 OFFCURVE",
"388 544 OFFCURVE",
"388 497 CURVE SMOOTH",
"388 450 OFFCURVE",
"360 425 OFFCURVE",
"328 407 CURVE SMOOTH",
"292 388 OFFCURVE",
"233 382 OFFCURVE",
"197 380 CURVE",
"186 353 LINE",
"221 289 LINE",
"252 293 OFFCURVE",
"315 303 OFFCURVE",
"355 316 CURVE",
"386 290 OFFCURVE",
"399 247 OFFCURVE",
"399 210 CURVE SMOOTH",
"399 150 OFFCURVE",
"350 98 OFFCURVE",
"280 98 CURVE SMOOTH",
"186 98 OFFCURVE",
"93 199 OFFCURVE",
"42 284 CURVE",
"8 262 LINE",
"57 173 OFFCURVE",
"153 18 OFFCURVE",
"317 18 CURVE SMOOTH",
"414 18 OFFCURVE",
"478 77 OFFCURVE",
"478 173 CURVE SMOOTH",
"478 209 OFFCURVE",
"469 240 OFFCURVE",
"455 267 CURVE",
"460 270 LINE",
"498 240 OFFCURVE",
"537 220 OFFCURVE",
"585 220 CURVE SMOOTH",
"609 220 OFFCURVE",
"630 225 OFFCURVE",
"643 232 CURVE",
"645 232 LINE",
"645 -1 LINE",
"717 -42 LINE",
"733 -42 LINE",
"733 575 LINE"
);
},
{
closed = 1;
nodes = (
"328 -147 OFFCURVE",
"272 -107 OFFCURVE",
"236 -61 CURVE",
"198 -92 LINE",
"237 -160 OFFCURVE",
"321 -217 OFFCURVE",
"416 -217 CURVE",
"510 -217 OFFCURVE",
"594 -160 OFFCURVE",
"633 -92 CURVE",
"596 -61 LINE",
"560 -107 OFFCURVE",
"504 -147 OFFCURVE",
"416 -147 CURVE"
);
}
);
width = 843;
}
);
unicode = 0976;
},
{
glyphname = "uue-deva";
lastChange = "2014-06-27 12:29:17 +0100";
layers = (
{
layerId = "39185045-6A8C-415A-8312-7B8F11386A4C";
name = Regular;
paths = (
{
closed = 1;
nodes = (
"843 575 LINE",
"843 590 LINE",
"811 650 LINE",
"467 650 LINE",
"467 634 LINE",
"499 575 LINE",
"645 575 LINE",
"645 327 LINE",
"618 310 OFFCURVE",
"589 296 OFFCURVE",
"545 296 CURVE SMOOTH",
"492 296 OFFCURVE",
"432 320 OFFCURVE",
"397 339 CURVE",
"429 368 OFFCURVE",
"451 419 OFFCURVE",
"451 461 CURVE SMOOTH",
"451 557 OFFCURVE",
"336 665 OFFCURVE",
"256 667 CURVE SMOOTH",
"219 667 OFFCURVE",
"133 630 OFFCURVE",
"96 603 CURVE",
"142 516 LINE",
"183 553 OFFCURVE",
"234 586 OFFCURVE",
"290 586 CURVE SMOOTH",
"342 586 OFFCURVE",
"388 544 OFFCURVE",
"388 497 CURVE SMOOTH",
"388 450 OFFCURVE",
"360 425 OFFCURVE",
"328 407 CURVE SMOOTH",
"292 388 OFFCURVE",
"233 382 OFFCURVE",
"197 380 CURVE",
"186 353 LINE",
"221 289 LINE",
"252 293 OFFCURVE",
"315 303 OFFCURVE",
"355 316 CURVE",
"386 290 OFFCURVE",
"399 247 OFFCURVE",
"399 210 CURVE SMOOTH",
"399 150 OFFCURVE",
"350 98 OFFCURVE",
"280 98 CURVE SMOOTH",
"186 98 OFFCURVE",
"93 199 OFFCURVE",
"42 284 CURVE",
"8 262 LINE",
"57 173 OFFCURVE",
"153 18 OFFCURVE",
"317 18 CURVE SMOOTH",
"414 18 OFFCURVE",
"478 77 OFFCURVE",
"478 173 CURVE SMOOTH",
"478 209 OFFCURVE",
"469 240 OFFCURVE",
"455 267 CURVE",
"460 270 LINE",
"498 240 OFFCURVE",
"537 220 OFFCURVE",
"585 220 CURVE SMOOTH",
"609 220 OFFCURVE",
"630 225 OFFCURVE",
"643 232 CURVE",
"645 232 LINE",
"645 -1 LINE",
"717 -42 LINE",
"733 -42 LINE",
"733 575 LINE"
);
},
{
closed = 1;
nodes = (
"328 -147 OFFCURVE",
"272 -107 OFFCURVE",
"236 -61 CURVE",
"198 -92 LINE",
"237 -160 OFFCURVE",
"321 -217 OFFCURVE",
"416 -217 CURVE",
"510 -217 OFFCURVE",
"594 -160 OFFCURVE",
"633 -92 CURVE",
"596 -61 LINE",
"560 -107 OFFCURVE",
"504 -147 OFFCURVE",
"416 -147 CURVE"
);
},
{
closed = 1;
nodes = (
"328 -313 OFFCURVE",
"272 -273 OFFCURVE",
"236 -227 CURVE",
"198 -258 LINE",
"237 -326 OFFCURVE",
"321 -383 OFFCURVE",
"416 -383 CURVE",
"510 -383 OFFCURVE",
"594 -326 OFFCURVE",
"633 -258 CURVE",
"596 -227 LINE",
"560 -273 OFFCURVE",
"504 -313 OFFCURVE",
"416 -313 CURVE"
);
}
);
width = 843;
}
);
unicode = 0977;
},
{
glyphname = "jha-deva.NEP";
lastChange = "2014-06-27 12:30:50 +0100";
layers = (
{
anchors = (
{
name = bottom;
position = "{590, 0}";
},
{
name = top;
position = "{590, 650}";
}
);
background = {
paths = (
{
closed = 1;
nodes = (
"744 575 LINE",
"744 590 LINE",
"712 650 LINE",
"358 650 LINE",
"358 634 LINE",
"389 575 LINE",
"546 575 LINE",
"546 293 LINE",
"323 293 LINE",
"323 502 LINE SMOOTH",
"323 628 OFFCURVE",
"227 659 OFFCURVE",
"161 659 CURVE SMOOTH",
"98 659 OFFCURVE",
"47 625 OFFCURVE",
"47 555 CURVE SMOOTH",
"47 457 OFFCURVE",
"142 407 OFFCURVE",
"235 370 CURVE",
"235 312 LINE",
"215 315 OFFCURVE",
"200 316 OFFCURVE",
"189 316 CURVE SMOOTH",
"163 316 OFFCURVE",
"150 306 OFFCURVE",
"150 285 CURVE SMOOTH",
"150 257 OFFCURVE",
"188 204 OFFCURVE",
"215 171 CURVE SMOOTH",
"249 127 OFFCURVE",
"290 84 OFFCURVE",
"314 84 CURVE SMOOTH",
"333 84 OFFCURVE",
"342 93 OFFCURVE",
"342 109 CURVE SMOOTH",
"342 134 OFFCURVE",
"339 178 OFFCURVE",
"336 218 CURVE",
"546 218 LINE",
"546 -1 LINE",
"618 -42 LINE",
"634 -42 LINE",
"634 575 LINE"
);
},
{
closed = 1;
nodes = (
"251 495 OFFCURVE",
"248 449 OFFCURVE",
"243 422 CURVE",
"186 441 OFFCURVE",
"123 468 OFFCURVE",
"123 531 CURVE SMOOTH",
"123 577 OFFCURVE",
"150 597 OFFCURVE",
"186 597 CURVE SMOOTH",
"221 597 OFFCURVE",
"251 562 OFFCURVE",
"251 520 CURVE SMOOTH"
);
}
);
};
layerId = "39185045-6A8C-415A-8312-7B8F11386A4C";
name = Regular;
paths = (
{
closed = 1;
nodes = (
"358 650 LINE",
"358 634 LINE",
"389 575 LINE",
"546 575 LINE",
"546 0 LINE",
"619 -42 LINE",
"634 -42 LINE",
"634 265 LINE",
"674 305 OFFCURVE",
"737 360 OFFCURVE",
"802 360 CURVE SMOOTH",
"853 360 OFFCURVE",
"893 318 OFFCURVE",
"893 262 CURVE SMOOTH",
"893 203 OFFCURVE",
"836 128 OFFCURVE",
"809 98 CURVE",
"877 26 LINE",
"911 76 OFFCURVE",
"944 181 OFFCURVE",
"944 237 CURVE SMOOTH",
"944 352 OFFCURVE",
"890 434 OFFCURVE",
"777 434 CURVE SMOOTH",
"716 434 OFFCURVE",
"657 386 OFFCURVE",
"634 365 CURVE",
"634 575 LINE",
"996 575 LINE",
"996 590 LINE",
"965 650 LINE"
);
},
{
closed = 1;
nodes = (
"98 659 OFFCURVE",
"47 625 OFFCURVE",
"47 555 CURVE SMOOTH",
"47 457 OFFCURVE",
"142 407 OFFCURVE",
"235 370 CURVE",
"235 312 LINE",
"215 315 OFFCURVE",
"200 316 OFFCURVE",
"189 316 CURVE SMOOTH",
"163 316 OFFCURVE",
"150 306 OFFCURVE",
"150 285 CURVE SMOOTH",
"150 257 OFFCURVE",
"188 204 OFFCURVE",
"215 171 CURVE SMOOTH",
"249 127 OFFCURVE",
"290 84 OFFCURVE",
"314 84 CURVE SMOOTH",
"333 84 OFFCURVE",
"342 93 OFFCURVE",
"342 109 CURVE SMOOTH",
"342 134 OFFCURVE",
"339 178 OFFCURVE",
"336 218 CURVE",
"599 218 LINE",
"599 293 LINE",
"323 293 LINE",
"323 502 LINE SMOOTH",
"323 628 OFFCURVE",
"227 659 OFFCURVE",
"161 659 CURVE SMOOTH"
);
},
{
closed = 1;
nodes = (
"221 597 OFFCURVE",
"251 562 OFFCURVE",
"251 520 CURVE SMOOTH",
"251 495 OFFCURVE",
"248 449 OFFCURVE",
"243 422 CURVE",
"186 441 OFFCURVE",
"123 468 OFFCURVE",
"123 531 CURVE SMOOTH",
"123 577 OFFCURVE",
"150 597 OFFCURVE",
"186 597 CURVE SMOOTH"
);
}
);
width = 996;
}
);
},
{
glyphname = "zha-deva.NEP";
lastChange = "2014-06-27 12:32:09 +0100";
layers = (
{
anchors = (
{
name = bottom;
position = "{190, 0}";
},
{
name = top;
position = "{212, 650}";
}
);
layerId = "39185045-6A8C-415A-8312-7B8F11386A4C";
name = Regular;
paths = (
{
closed = 1;
nodes = (
"268 432 OFFCURVE",
"232 526 OFFCURVE",
"186 575 CURVE",
"-28 575 LINE",
"-60 634 LINE",
"-60 650 LINE",
"682 650 LINE",
"713 590 LINE",
"713 575 LINE",
"272 575 LINE",
"302 528 OFFCURVE",
"357 439 OFFCURVE",
"357 349 CURVE",
"357 258 OFFCURVE",
"297 174 OFFCURVE",
"190 174 CURVE",
"148 174 OFFCURVE",
"100 186 OFFCURVE",
"58 220 CURVE",
"36 282 LINE",
"50 298 LINE",
"85 261 OFFCURVE",
"124 251 OFFCURVE",
"163 251 CURVE",
"209 251 OFFCURVE",
"268 270 OFFCURVE",
"268 367 CURVE"
);
},
{
closed = 1;
nodes = (
"351 462 OFFCURVE",
"389 466 OFFCURVE",
"414 466 CURVE SMOOTH",
"556 466 OFFCURVE",
"639 340 OFFCURVE",
"639 227 CURVE SMOOTH",
"639 98 OFFCURVE",
"545 43 OFFCURVE",
"477 43 CURVE",
"426 43 OFFCURVE",
"347 76 OFFCURVE",
"347 126 CURVE SMOOTH",
"347 181 OFFCURVE",
"396 192 OFFCURVE",
"422 192 CURVE SMOOTH",
"433 192 OFFCURVE",
"447 190 OFFCURVE",
"455 187 CURVE",
"468 112 LINE",
"533 136 OFFCURVE",
"587 179 OFFCURVE",
"587 258 CURVE SMOOTH",
"587 339 OFFCURVE",
"519 388 OFFCURVE",
"448 388 CURVE",
"387 388 OFFCURVE",
"363 369 OFFCURVE",
"325 328 CURVE",
"328 456 LINE"
);
},
{
closed = 1;
nodes = (
"636 -94 LINE",
"590 -128 LINE",
"423 64 LINE",
"467 65 LINE"
);
}
);
width = 713;
}
);
},
{
glyphname = "k_ka-deva";
lastChange = "2014-06-27 10:25:37 +0100";
layers = (
{
anchors = (
{
name = bottom;
position = "{445, 0}";
},
{
name = top;
position = "{445, 650}";
}
);
layerId = "39185045-6A8C-415A-8312-7B8F11386A4C";
name = Regular;
paths = (
{
closed = 1;
nodes = (
"753 226 LINE",
"768 255 OFFCURVE",
"780 280 OFFCURVE",
"780 311 CURVE SMOOTH",
"780 362 OFFCURVE",
"698 490 OFFCURVE",
"622 490 CURVE SMOOTH",
"569 490 OFFCURVE",
"528 457 OFFCURVE",
"489 422 CURVE",
"489 575 LINE",
"851 575 LINE",
"851 590 LINE",
"820 650 LINE",
"-31 650 LINE",
"-31 634 LINE",
"0 575 LINE",
"401 575 LINE",
"401 412 LINE",
"399 412 LINE",
"360 459 OFFCURVE",
"302 519 OFFCURVE",
"218 519 CURVE SMOOTH",
"132 519 OFFCURVE",
"71 433 OFFCURVE",
"71 367 CURVE SMOOTH",
"71 319 OFFCURVE",
"91 278 OFFCURVE",
"121 251 CURVE",
"103 225 OFFCURVE",
"90 197 OFFCURVE",
"90 172 CURVE SMOOTH",
"90 103 OFFCURVE",
"170 28 OFFCURVE",
"251 28 CURVE SMOOTH",
"308 28 OFFCURVE",
"353 57 OFFCURVE",
"399 85 CURVE",
"402 83 LINE",
"399 0 LINE",
"473 -42 LINE",
"489 -42 LINE",
"489 136 LINE",
"528 174 OFFCURVE",
"582 212 OFFCURVE",
"638 212 CURVE SMOOTH",
"689 212 OFFCURVE",
"701 180 OFFCURVE",
"701 150 CURVE SMOOTH",
"701 110 OFFCURVE",
"664 63 OFFCURVE",
"635 32 CURVE",
"705 -39 LINE",
"737 11 OFFCURVE",
"770 51 OFFCURVE",
"770 106 CURVE SMOOTH",
"770 167 OFFCURVE",
"679 286 OFFCURVE",
"613 286 CURVE SMOOTH",
"560 286 OFFCURVE",
"519 253 OFFCURVE",
"489 225 CURVE",
"489 332 LINE SMOOTH",
"538 377 OFFCURVE",
"591 416 OFFCURVE",
"648 416 CURVE SMOOTH",
"698 416 OFFCURVE",
"711 384 OFFCURVE",
"711 354 CURVE SMOOTH",
"711 334 OFFCURVE",
"698 305 OFFCURVE",
"688 294 CURVE"
);
},
{
closed = 1;
nodes = (
"401 357 LINE",
"363 322 OFFCURVE",
"277 272 OFFCURVE",
"207 272 CURVE SMOOTH",
"168 272 OFFCURVE",
"120 300 OFFCURVE",
"120 344 CURVE SMOOTH",
"120 407 OFFCURVE",
"193 439 OFFCURVE",
"252 439 CURVE SMOOTH",
"315 439 OFFCURVE",
"375 395 OFFCURVE",
"401 359 CURVE"
);
},
{
closed = 1;
nodes = (
"299 204 OFFCURVE",
"353 247 OFFCURVE",
"399 270 CURVE",
"401 269 LINE",
"401 173 LINE",
"358 139 OFFCURVE",
"273 96 OFFCURVE",
"217 96 CURVE SMOOTH",
"178 96 OFFCURVE",
"147 114 OFFCURVE",
"147 148 CURVE SMOOTH",
"147 177 OFFCURVE",
"162 198 OFFCURVE",
"183 214 CURVE",
"201 207 OFFCURVE",
"221 204 OFFCURVE",
"241 204 CURVE SMOOTH"
);
}
);
width = 851;
}
);
},
{
glyphname = "k_ta-deva";
lastChange = "2014-06-27 12:32:41 +0100";
layers = (
{
anchors = (
{
name = bottom;
position = "{555, 0}";
},
{
name = top;
position = "{555, 650}";
}
);
layerId = "39185045-6A8C-415A-8312-7B8F11386A4C";
name = Regular;
paths = (
{
closed = 1;
nodes = (
"961 575 LINE",
"961 590 LINE",
"930 650 LINE",
"-31 650 LINE",
"-31 634 LINE",
"0 575 LINE",
"511 575 LINE",
"511 427 LINE",
"19 427 LINE",
"19 412 LINE",
"50 352 LINE",
"171 352 LINE",
"149 326 OFFCURVE",
"139 294 OFFCURVE",
"139 266 CURVE SMOOTH",
"139 144 OFFCURVE",
"242 52 OFFCURVE",
"346 -25 CURVE",
"375 6 LINE",
"273 80 OFFCURVE",
"218 158 OFFCURVE",
"218 234 CURVE SMOOTH",
"218 290 OFFCURVE",
"264 352 OFFCURVE",
"331 352 CURVE SMOOTH",
"511 352 LINE",
"511 -1 LINE",
"584 -42 LINE",
"599 -42 LINE",
"599 265 LINE",
"639 305 OFFCURVE",
"702 360 OFFCURVE",
"767 360 CURVE SMOOTH",
"818 360 OFFCURVE",
"858 318 OFFCURVE",
"858 262 CURVE SMOOTH",
"858 203 OFFCURVE",
"801 128 OFFCURVE",
"774 98 CURVE",
"842 26 LINE",
"875 76 OFFCURVE",
"909 181 OFFCURVE",
"909 237 CURVE SMOOTH",
"909 352 OFFCURVE",
"855 434 OFFCURVE",
"742 434 CURVE SMOOTH",
"681 434 OFFCURVE",
"622 386 OFFCURVE",
"599 365 CURVE",
"599 575 LINE"
);
}
);
width = 961;
}
);
},
{
glyphname = "k_ra-deva";
lastChange = "2014-06-27 10:25:37 +0100";
layers = (
{
anchors = (
{
name = bottom;
position = "{445, 0}";
},
{
name = top;
position = "{445, 650}";
}
);
layerId = "39185045-6A8C-415A-8312-7B8F11386A4C";
name = Regular;
paths = (
{
closed = 1;
nodes = (
"111 -58 LINE",
"401 192 LINE",
"403 191 LINE",
"399 0 LINE",
"473 -42 LINE",
"489 -42 LINE",
"489 265 LINE",
"529 305 OFFCURVE",
"591 360 OFFCURVE",
"657 360 CURVE SMOOTH",
"708 360 OFFCURVE",
"748 318 OFFCURVE",
"748 262 CURVE SMOOTH",
"748 203 OFFCURVE",
"691 128 OFFCURVE",
"664 98 CURVE",
"732 26 LINE",
"765 76 OFFCURVE",
"798 181 OFFCURVE",
"798 237 CURVE SMOOTH",
"798 352 OFFCURVE",
"745 434 OFFCURVE",
"631 434 CURVE SMOOTH",
"571 434 OFFCURVE",
"511 386 OFFCURVE",
"489 365 CURVE",
"489 575 LINE",
"851 575 LINE",
"851 590 LINE",
"820 650 LINE",
"-31 650 LINE",
"-31 634 LINE",
"0 575 LINE",
"401 575 LINE",
"401 338 LINE",
"399 338 LINE",
"369 385 OFFCURVE",
"320 464 OFFCURVE",
"209 464 CURVE SMOOTH",
"113 464 OFFCURVE",
"53 378 OFFCURVE",
"53 293 CURVE SMOOTH",
"53 194 OFFCURVE",
"122 130 OFFCURVE",
"212 122 CURVE",
"49 10 LINE"
);
},
{
closed = 1;
nodes = (
"401 283 LINE",
"363 248 OFFCURVE",
"292 188 OFFCURVE",
"198 188 CURVE SMOOTH",
"154 188 OFFCURVE",
"102 217 OFFCURVE",
"102 269 CURVE SMOOTH",
"102 342 OFFCURVE",
"180 374 OFFCURVE",
"242 374 CURVE SMOOTH",
"311 374 OFFCURVE",
"375 321 OFFCURVE",
"401 285 CURVE"
);
}
);
width = 851;
}
);
},
{
glyphname = "k_la-deva";
lastChange = "2014-06-27 12:33:07 +0100";
layers = (
{
anchors = (
{
name = bottom;
position = "{555, -240}";
},
{
name = top;
position = "{445, 650}";
}
);
background = {
paths = (
{
closed = 1;
nodes = (
"880 575 LINE",
"880 590 LINE",
"849 650 LINE",
"-41 650 LINE",
"-41 634 LINE",
"-10 575 LINE",
"411 575 LINE",
"411 367 LINE",
"409 367 LINE",
"379 410 OFFCURVE",
"315 483 OFFCURVE",
"219 483 CURVE SMOOTH",
"117 483 OFFCURVE",
"53 402 OFFCURVE",
"53 322 CURVE SMOOTH",
"53 213 OFFCURVE",
"137 150 OFFCURVE",
"242 150 CURVE SMOOTH",
"308 150 OFFCURVE",
"360 182 OFFCURVE",
"406 216 CURVE",
"410 214 LINE",
"411 -1 LINE",
"483 -42 LINE",
"499 -42 LINE",
"499 295 LINE",
"539 330 OFFCURVE",
"601 380 OFFCURVE",
"667 380 CURVE SMOOTH",
"723 380 OFFCURVE",
"768 342 OFFCURVE",
"767 291 CURVE SMOOTH",
"766 245 OFFCURVE",
"724 201 OFFCURVE",
"693 166 CURVE",
"761 114 LINE",
"790 150 OFFCURVE",
"818 212 OFFCURVE",
"818 266 CURVE SMOOTH",
"818 360 OFFCURVE",
"752 454 OFFCURVE",
"641 454 CURVE SMOOTH",
"581 454 OFFCURVE",
"521 412 OFFCURVE",
"499 394 CURVE",
"499 575 LINE"
);
},
{
closed = 1;
nodes = (
"411 312 LINE",
"373 281 OFFCURVE",
"302 227 OFFCURVE",
"208 227 CURVE SMOOTH",
"159 227 OFFCURVE",
"102 253 OFFCURVE",
"102 299 CURVE SMOOTH",
"102 364 OFFCURVE",
"185 393 OFFCURVE",
"252 393 CURVE SMOOTH",
"322 393 OFFCURVE",
"385 346 OFFCURVE",
"411 314 CURVE"
);
},
{
closed = 1;
nodes = (
"523 80 OFFCURVE",
"469 45 OFFCURVE",
"427 -9 CURVE",
"386 48 OFFCURVE",
"323 93 OFFCURVE",
"256 93 CURVE SMOOTH",
"175 93 OFFCURVE",
"114 28 OFFCURVE",
"114 -59 CURVE SMOOTH",
"114 -223 OFFCURVE",
"235 -342 OFFCURVE",
"325 -419 CURVE",
"356 -386 LINE",
"254 -294 OFFCURVE",
"193 -198 OFFCURVE",
"193 -96 CURVE SMOOTH",
"193 -30 OFFCURVE",
"237 14 OFFCURVE",
"292 14 CURVE SMOOTH",
"329 14 OFFCURVE",
"374 -10 OFFCURVE",
"403 -48 CURVE",
"386 -79 OFFCURVE",
"373 -114 OFFCURVE",
"365 -149 CURVE",
"363 -149 OFFCURVE",
"440 -196 OFFCURVE",
"440 -196 CURVE",
"458 -116 OFFCURVE",
"509 25 OFFCURVE",
"616 25 CURVE SMOOTH",
"634 25 OFFCURVE",
"682 -1 OFFCURVE",
"682 -53 CURVE SMOOTH",
"682 -142 OFFCURVE",
"588 -238 OFFCURVE",
"547 -275 CURVE",
"547 -275 OFFCURVE",
"625 -331 OFFCURVE",
"624 -330 CURVE",
"680 -269 OFFCURVE",
"755 -184 OFFCURVE",
"755 -79 CURVE SMOOTH",
"755 -3 OFFCURVE",
"666 80 OFFCURVE",
"585 80 CURVE"
);
}
);
};
layerId = "39185045-6A8C-415A-8312-7B8F11386A4C";
name = Regular;
paths = (
{
closed = 1;
nodes = (
"871 575 LINE",
"871 590 LINE",
"839 650 LINE",
"-31 650 LINE",
"-31 634 LINE",
"0 575 LINE",
"411 575 LINE",
"411 367 LINE",
"409 367 LINE",
"379 410 OFFCURVE",
"315 483 OFFCURVE",
"219 483 CURVE SMOOTH",
"117 483 OFFCURVE",
"53 402 OFFCURVE",
"53 322 CURVE SMOOTH",
"53 213 OFFCURVE",
"137 150 OFFCURVE",
"242 150 CURVE SMOOTH",
"308 150 OFFCURVE",
"360 182 OFFCURVE",
"406 216 CURVE",
"410 214 LINE",
"411 -1 LINE",
"483 -42 LINE",
"499 -42 LINE",
"499 295 LINE",
"539 330 OFFCURVE",
"601 380 OFFCURVE",
"667 380 CURVE SMOOTH",
"723 380 OFFCURVE",
"768 342 OFFCURVE",
"767 291 CURVE SMOOTH",
"766 245 OFFCURVE",
"724 201 OFFCURVE",
"693 166 CURVE",
"761 114 LINE",
"790 150 OFFCURVE",
"818 212 OFFCURVE",
"818 266 CURVE SMOOTH",
"818 360 OFFCURVE",
"752 454 OFFCURVE",
"641 454 CURVE SMOOTH",
"581 454 OFFCURVE",
"521 412 OFFCURVE",
"499 394 CURVE",
"499 575 LINE"
);
},
{
closed = 1;
nodes = (
"411 312 LINE",
"373 281 OFFCURVE",
"302 227 OFFCURVE",
"208 227 CURVE SMOOTH",
"159 227 OFFCURVE",
"102 253 OFFCURVE",
"102 299 CURVE SMOOTH",
"102 364 OFFCURVE",
"185 393 OFFCURVE",
"252 393 CURVE SMOOTH",
"322 393 OFFCURVE",
"385 346 OFFCURVE",
"411 314 CURVE"
);
},
{
closed = 1;
nodes = (
"523 70 OFFCURVE",
"469 39 OFFCURVE",
"427 -9 CURVE",
"386 42 OFFCURVE",
"323 83 OFFCURVE",
"256 83 CURVE SMOOTH",
"175 83 OFFCURVE",
"114 26 OFFCURVE",
"114 -49 CURVE SMOOTH",
"114 -150 OFFCURVE",
"235 -236 OFFCURVE",
"325 -302 CURVE",
"356 -269 LINE",
"254 -199 OFFCURVE",
"193 -132 OFFCURVE",
"193 -86 CURVE SMOOTH",
"193 -40 OFFCURVE",
"226 4 OFFCURVE",
"292 4 CURVE SMOOTH",
"339 4 OFFCURVE",
"374 -16 OFFCURVE",
"403 -48 CURVE",
"391 -67 OFFCURVE",
"383 -89 OFFCURVE",
"375 -110 CURVE",
"373 -110 OFFCURVE",
"450 -157 OFFCURVE",
"450 -157 CURVE",
"468 -97 OFFCURVE",
"500 16 OFFCURVE",
"616 16 CURVE SMOOTH",
"651 16 OFFCURVE",
"682 -5 OFFCURVE",
"682 -43 CURVE SMOOTH",
"682 -98 OFFCURVE",
"613 -164 OFFCURVE",
"547 -217 CURVE",
"547 -217 OFFCURVE",
"625 -272 OFFCURVE",
"624 -271 CURVE",
"696 -207 OFFCURVE",
"755 -132 OFFCURVE",
"755 -69 CURVE SMOOTH",
"755 -7 OFFCURVE",
"666 70 OFFCURVE",
"585 70 CURVE"
);
}
);
width = 871;
}
);
},
{
glyphname = "k_va-deva";
lastChange = "2014-06-27 10:25:37 +0100";
layers = (
{
anchors = (
{
name = bottom;
position = "{445, 0}";
},
{
name = top;
position = "{445, 650}";
}
);
layerId = "39185045-6A8C-415A-8312-7B8F11386A4C";
name = Regular;
paths = (
{
closed = 1;
nodes = (
"851 575 LINE",
"851 590 LINE",
"820 650 LINE",
"-31 650 LINE",
"-31 634 LINE",
"0 575 LINE",
"401 575 LINE",
"401 412 LINE",
"399 412 LINE",
"360 459 OFFCURVE",
"302 519 OFFCURVE",
"218 519 CURVE SMOOTH",
"132 519 OFFCURVE",
"71 433 OFFCURVE",
"71 367 CURVE SMOOTH",
"71 319 OFFCURVE",
"91 278 OFFCURVE",
"121 251 CURVE",
"103 225 OFFCURVE",
"90 197 OFFCURVE",
"90 172 CURVE SMOOTH",
"90 103 OFFCURVE",
"170 28 OFFCURVE",
"251 28 CURVE SMOOTH",
"308 28 OFFCURVE",
"353 57 OFFCURVE",
"399 85 CURVE",
"402 83 LINE",
"399 0 LINE",
"473 -42 LINE",
"489 -42 LINE",
"489 334 LINE",
"530 365 OFFCURVE",
"604 416 OFFCURVE",
"657 416 CURVE SMOOTH",
"708 416 OFFCURVE",
"748 374 OFFCURVE",
"748 317 CURVE SMOOTH",
"748 259 OFFCURVE",
"691 183 OFFCURVE",
"664 153 CURVE",
"732 82 LINE",
"765 132 OFFCURVE",
"798 237 OFFCURVE",
"798 293 CURVE SMOOTH",
"798 408 OFFCURVE",
"745 490 OFFCURVE",
"631 490 CURVE SMOOTH",
"572 490 OFFCURVE",
"513 447 OFFCURVE",
"489 427 CURVE",
"489 575 LINE"
);
},
{
closed = 1;
nodes = (
"401 357 LINE",
"363 322 OFFCURVE",
"277 272 OFFCURVE",
"207 272 CURVE SMOOTH",
"168 272 OFFCURVE",
"120 300 OFFCURVE",
"120 344 CURVE SMOOTH",
"120 407 OFFCURVE",
"193 439 OFFCURVE",
"252 439 CURVE SMOOTH",
"315 439 OFFCURVE",
"375 395 OFFCURVE",
"401 359 CURVE"
);
},
{
closed = 1;
nodes = (
"299 204 OFFCURVE",
"353 247 OFFCURVE",
"399 270 CURVE",
"401 269 LINE",
"401 173 LINE",
"358 139 OFFCURVE",
"273 96 OFFCURVE",
"217 96 CURVE SMOOTH",
"178 96 OFFCURVE",
"147 114 OFFCURVE",
"147 148 CURVE SMOOTH",
"147 177 OFFCURVE",
"162 198 OFFCURVE",
"183 214 CURVE",
"201 207 OFFCURVE",
"221 204 OFFCURVE",
"241 204 CURVE SMOOTH"
);
}
);
width = 851;
}
);
},
{
glyphname = "k_ssa-deva";
lastChange = "2014-06-27 10:25:37 +0100";
layers = (
{
anchors = (
{
name = bottom;
position = "{672, 0}";
},
{
name = top;
position = "{672, 650}";
}
);
layerId = "39185045-6A8C-415A-8312-7B8F11386A4C";
name = Regular;
paths = (
{
closed = 1;
nodes = (
"448 163 OFFCURVE",
"422 194 OFFCURVE",
"367 194 CURVE SMOOTH",
"352 194 OFFCURVE",
"330 190 OFFCURVE",
"311 179 CURVE",
"330 93 LINE",
"300 82 OFFCURVE",
"267 74 OFFCURVE",
"237 74 CURVE SMOOTH",
"181 74 OFFCURVE",
"142 127 OFFCURVE",
"142 178 CURVE SMOOTH",
"142 250 OFFCURVE",
"231 275 OFFCURVE",
"310 319 CURVE",
"368 278 OFFCURVE",
"424 255 OFFCURVE",
"509 255 CURVE SMOOTH",
"543 255 OFFCURVE",
"595 265 OFFCURVE",
"627 278 CURVE",
"629 278 LINE",
"629 -1 LINE",
"701 -42 LINE",
"716 -42 LINE",
"716 575 LINE",
"826 575 LINE",
"826 590 LINE",
"794 650 LINE",
"445 650 LINE",
"445 634 LINE",
"476 575 LINE",
"629 575 LINE",
"629 378 LINE",
"579 346 OFFCURVE",
"521 331 OFFCURVE",
"469 331 CURVE SMOOTH",
"420 331 OFFCURVE",
"380 334 OFFCURVE",
"347 342 CURVE",
"393 374 OFFCURVE",
"428 417 OFFCURVE",
"428 487 CURVE SMOOTH",
"428 561 OFFCURVE",
"312 667 OFFCURVE",
"248 667 CURVE SMOOTH",
"162 667 OFFCURVE",
"77 616 OFFCURVE",
"77 520 CURVE SMOOTH",
"77 463 OFFCURVE",
"138 407 OFFCURVE",
"218 366 CURVE",
"138 325 OFFCURVE",
"53 288 OFFCURVE",
"53 226 CURVE SMOOTH",
"53 113 OFFCURVE",
"212 8 OFFCURVE",
"284 8 CURVE SMOOTH",
"307 8 OFFCURVE",
"332 11 OFFCURVE",
"355 18 CURVE",
"419 -129 LINE",
"468 -104 LINE",
"390 32 LINE",
"425 51 OFFCURVE",
"448 80 OFFCURVE",
"448 121 CURVE SMOOTH"
);
},
{
closed = 1;
nodes = (
"166 559 OFFCURVE",
"225 587 OFFCURVE",
"279 587 CURVE SMOOTH",
"313 587 OFFCURVE",
"364 547 OFFCURVE",
"364 512 CURVE SMOOTH",
"364 458 OFFCURVE",
"315 420 OFFCURVE",
"258 387 CURVE",
"206 413 OFFCURVE",
"166 466 OFFCURVE",
"166 496 CURVE SMOOTH"
);
}
);
width = 826;
}
);
},
{
glyphname = "k_ss_ra-deva";
lastChange = "2014-06-27 10:25:37 +0100";
layers = (
{
anchors = (
{
name = bottom;
position = "{778, 0}";
},
{
name = top;
position = "{778, 650}";
}
);
layerId = "39185045-6A8C-415A-8312-7B8F11386A4C";
name = Regular;
paths = (
{
closed = 1;
nodes = (
"448 163 OFFCURVE",
"422 194 OFFCURVE",
"367 194 CURVE SMOOTH",
"352 194 OFFCURVE",
"330 190 OFFCURVE",
"311 179 CURVE",
"330 93 LINE",
"300 82 OFFCURVE",
"267 74 OFFCURVE",
"237 74 CURVE SMOOTH",
"181 74 OFFCURVE",
"142 127 OFFCURVE",
"142 178 CURVE SMOOTH",
"142 251 OFFCURVE",
"231 275 OFFCURVE",
"310 319 CURVE",
"375 277 OFFCURVE",
"468 248 OFFCURVE",
"562 248 CURVE SMOOTH",
"615 248 OFFCURVE",
"691 265 OFFCURVE",
"732 278 CURVE",
"734 278 LINE",
"734 231 LINE",
"506 70 LINE",
"562 10 LINE",
"732 142 LINE",
"736 140 LINE",
"732 0 LINE",
"806 -42 LINE",
"823 -42 LINE",
"823 575 LINE",
"932 575 LINE",
"932 590 LINE",
"900 650 LINE",
"519 650 LINE",
"519 634 LINE",
"550 575 LINE",
"734 575 LINE",
"734 385 LINE",
"672 350 OFFCURVE",
"582 324 OFFCURVE",
"522 324 CURVE SMOOTH",
"464 324 OFFCURVE",
"394 332 OFFCURVE",
"348 343 CURVE",
"393 374 OFFCURVE",
"428 417 OFFCURVE",
"428 487 CURVE SMOOTH",
"428 561 OFFCURVE",
"312 667 OFFCURVE",
"248 667 CURVE SMOOTH",
"162 667 OFFCURVE",
"77 616 OFFCURVE",
"77 520 CURVE SMOOTH",
"77 463 OFFCURVE",
"138 407 OFFCURVE",
"218 366 CURVE",
"138 325 OFFCURVE",
"53 288 OFFCURVE",
"53 226 CURVE SMOOTH",
"53 113 OFFCURVE",
"212 8 OFFCURVE",
"284 8 CURVE SMOOTH",
"307 8 OFFCURVE",
"332 11 OFFCURVE",
"355 18 CURVE",
"419 -129 LINE",
"468 -104 LINE",
"390 32 LINE",
"425 51 OFFCURVE",
"448 80 OFFCURVE",
"448 121 CURVE SMOOTH"
);
},
{
closed = 1;
nodes = (
"166 559 OFFCURVE",
"225 587 OFFCURVE",
"279 587 CURVE SMOOTH",
"313 587 OFFCURVE",
"364 547 OFFCURVE",
"364 512 CURVE SMOOTH",
"364 458 OFFCURVE",
"315 420 OFFCURVE",
"258 387 CURVE",
"206 413 OFFCURVE",
"166 466 OFFCURVE",
"166 496 CURVE SMOOTH"
);
}
);
width = 932;
}
);
},
{
glyphname = "kh_ra-deva";
lastChange = "2014-06-27 10:25:37 +0100";
layers = (
{
anchors = (
{
name = bottom;
position = "{716, 0}";
},
{
name = top;
position = "{707, 650}";
}
);
layerId = "39185045-6A8C-415A-8312-7B8F11386A4C";
name = Regular;
paths = (
{
closed = 1;
nodes = (
"306 -119 LINE",
"661 59 LINE",
"665 55 LINE",
"661 0 LINE",
"735 -42 LINE",
"751 -42 LINE",
"751 575 LINE",
"861 575 LINE",
"861 590 LINE",
"829 650 LINE",
"-31 650 LINE",
"-31 634 LINE",
"0 575 LINE",
"180 575 LINE",
"185 535 OFFCURVE",
"189 482 OFFCURVE",
"189 450 CURVE SMOOTH",
"189 407 OFFCURVE",
"176 358 OFFCURVE",
"164 340 CURVE",
"111 382 LINE",
"109 382 LINE",
"90 370 OFFCURVE",
"58 340 OFFCURVE",
"58 306 CURVE SMOOTH",
"58 271 OFFCURVE",
"84 242 OFFCURVE",
"135 186 CURVE SMOOTH",
"196 118 OFFCURVE",
"285 36 OFFCURVE",
"373 5 CURVE",
"245 -51 LINE"
);
},
{
closed = 1;
nodes = (
"413 507 OFFCURVE",
"341 445 OFFCURVE",
"341 346 CURVE SMOOTH",
"341 249 OFFCURVE",
"426 180 OFFCURVE",
"513 180 CURVE SMOOTH",
"571 180 OFFCURVE",
"616 219 OFFCURVE",
"661 255 CURVE",
"665 253 LINE",
"665 155 LINE",
"610 102 OFFCURVE",
"506 59 OFFCURVE",
"442 59 CURVE SMOOTH",
"324 59 OFFCURVE",
"219 166 OFFCURVE",
"179 211 CURVE",
"222 252 OFFCURVE",
"271 307 OFFCURVE",
"271 404 CURVE SMOOTH",
"271 448 OFFCURVE",
"264 519 OFFCURVE",
"254 575 CURVE",
"663 575 LINE",
"663 426 LINE",
"661 426 LINE",
"631 456 OFFCURVE",
"582 507 OFFCURVE",
"505 507 CURVE SMOOTH"
);
},
{
closed = 1;
nodes = (
"427 251 OFFCURVE",
"388 284 OFFCURVE",
"388 318 CURVE SMOOTH",
"388 376 OFFCURVE",
"454 427 OFFCURVE",
"533 427 CURVE SMOOTH",
"577 427 OFFCURVE",
"631 409 OFFCURVE",
"663 365 CURVE",
"663 363 LINE",
"615 302 OFFCURVE",
"543 251 OFFCURVE",
"482 251 CURVE SMOOTH"
);
}
);
width = 861;
}
);
},
{
glyphname = "g_na-deva";
lastChange = "2014-06-27 12:33:54 +0100";
layers = (
{
anchors = (
{
name = bottom;
position = "{474, 0}";
},
{
name = top;
position = "{474, 650}";
}
);
background = {
paths = (
{
closed = 1;
nodes = (
"409 248 OFFCURVE",
"287 192 OFFCURVE",
"212 150 CURVE SMOOTH",
"169 126 OFFCURVE",
"130 87 OFFCURVE",
"130 43 CURVE SMOOTH",
"130 -15 OFFCURVE",
"181 -42 OFFCURVE",
"225 -42 CURVE SMOOTH",
"257 -42 OFFCURVE",
"291 -29 OFFCURVE",
"313 -9 CURVE SMOOTH",
"261 76 LINE",
"478 218 LINE",
"478 278 LINE"
);
},
{
closed = 1;
nodes = (
"427 0 LINE",
"502 -42 LINE",
"518 -42 LINE",
"518 575 LINE",
"628 575 LINE",
"628 590 LINE",
"596 650 LINE",
"-31 650 LINE",
"-31 634 LINE",
"0 575 LINE",
"143 575 LINE",
"143 384 LINE",
"45 396 LINE",
"41 386 OFFCURVE",
"39 372 OFFCURVE",
"39 355 CURVE SMOOTH",
"39 312 OFFCURVE",
"73 232 OFFCURVE",
"153 232 CURVE SMOOTH",
"225 232 OFFCURVE",
"236 304 OFFCURVE",
"236 340 CURVE SMOOTH",
"236 392 OFFCURVE",
"229 487 OFFCURVE",
"220 575 CURVE",
"429 575 LINE"
);
}
);
};
layerId = "39185045-6A8C-415A-8312-7B8F11386A4C";
name = Regular;
paths = (
{
closed = 1;
nodes = (
"427 0 LINE",
"502 -42 LINE",
"518 -42 LINE",
"518 575 LINE",
"628 575 LINE",
"628 590 LINE",
"596 650 LINE",
"-31 650 LINE",
"-31 634 LINE",
"0 575 LINE",
"143 575 LINE",
"143 413 LINE",
"45 426 LINE",
"41 415 OFFCURVE",
"39 401 OFFCURVE",
"39 385 CURVE SMOOTH",
"39 342 OFFCURVE",
"73 262 OFFCURVE",
"153 262 CURVE SMOOTH",
"225 262 OFFCURVE",
"236 333 OFFCURVE",
"236 369 CURVE SMOOTH",
"236 444 OFFCURVE",
"229 499 OFFCURVE",
"220 575 CURVE",
"429 575 LINE"
);
},
{
closed = 1;
nodes = (
"342 228 OFFCURVE",
"215 177 OFFCURVE",
"173 157 CURVE SMOOTH",
"127 136 OFFCURVE",
"88 113 OFFCURVE",
"88 72 CURVE SMOOTH",
"88 23 OFFCURVE",
"129 -25 OFFCURVE",
"201 -25 CURVE SMOOTH",
"240 -25 OFFCURVE",
"268 -14 OFFCURVE",
"291 7 CURVE",
"237 91 LINE",
"478 216 LINE",
"478 280 LINE"
);
}
);
width = 628;
}
);
},
{
glyphname = "g_ra-deva";
lastChange = "2014-06-27 10:25:37 +0100";
layers = (
{
anchors = (
{
name = bottom;
position = "{473, 0}";
},
{
name = top;
position = "{473, 650}";
}
);
layerId = "39185045-6A8C-415A-8312-7B8F11386A4C";
name = Regular;
paths = (
{
closed = 1;
nodes = (
"182 -27 LINE",
"182 -27 OFFCURVE",
"352 116 OFFCURVE",
"427 180 CURVE",
"430 178 LINE",
"427 0 LINE",
"502 -42 LINE",
"518 -42 LINE",
"518 575 LINE",
"628 575 LINE",
"628 590 LINE",
"596 650 LINE",
"-31 650 LINE",
"-31 634 LINE",
"0 575 LINE",
"143 575 LINE",
"143 384 LINE",
"45 396 LINE",
"41 386 OFFCURVE",
"39 372 OFFCURVE",
"39 355 CURVE SMOOTH",
"39 312 OFFCURVE",
"73 232 OFFCURVE",
"153 232 CURVE SMOOTH",
"225 232 OFFCURVE",
"236 304 OFFCURVE",
"236 340 CURVE SMOOTH",
"236 392 OFFCURVE",
"229 487 OFFCURVE",
"220 575 CURVE",
"429 575 LINE",
"429 279 LINE",
"125 41 LINE"
);
}
);
width = 628;
}
);
},
{
glyphname = "gh_ra-deva";
lastChange = "2014-06-27 10:25:37 +0100";
layers = (
{
anchors = (
{
name = bottom;
position = "{521, 0}";
},
{
name = top;
position = "{521, 650}";
}
);
layerId = "39185045-6A8C-415A-8312-7B8F11386A4C";
name = Regular;
paths = (
{
closed = 1;
nodes = (
"674 575 LINE",
"674 590 LINE",
"643 650 LINE",
"-31 650 LINE",
"-31 634 LINE",
"0 575 LINE",
"66 575 LINE",
"63 557 OFFCURVE",
"61 540 OFFCURVE",
"61 527 CURVE SMOOTH",
"61 459 OFFCURVE",
"119 430 OFFCURVE",
"180 402 CURVE",
"132 371 OFFCURVE",
"99 316 OFFCURVE",
"99 261 CURVE SMOOTH",
"99 218 OFFCURVE",
"142 171 OFFCURVE",
"178 142 CURVE SMOOTH",
"207 119 OFFCURVE",
"239 107 OFFCURVE",
"274 104 CURVE",
"149 9 LINE",
"211 -58 LINE",
"476 189 LINE",
"479 188 LINE",
"475 0 LINE",
"549 -42 LINE",
"565 -42 LINE",
"565 575 LINE"
);
},
{
closed = 1;
nodes = (
"374 376 LINE",
"367 394 OFFCURVE",
"358 415 OFFCURVE",
"358 415 CURVE",
"336 426 OFFCURVE",
"294 428 OFFCURVE",
"265 428 CURVE SMOOTH",
"260 428 OFFCURVE",
"255 427 OFFCURVE",
"249 427 CURVE SMOOTH",
"211 428 OFFCURVE",
"143 461 OFFCURVE",
"143 504 CURVE SMOOTH",
"143 536 OFFCURVE",
"156 560 OFFCURVE",
"178 575 CURVE",
"477 575 LINE",
"477 314 LINE",
"441 252 OFFCURVE",
"327 174 OFFCURVE",
"258 174 CURVE SMOOTH",
"224 174 OFFCURVE",
"175 189 OFFCURVE",
"175 233 CURVE SMOOTH",
"175 286 OFFCURVE",
"217 358 OFFCURVE",
"292 358 CURVE SMOOTH",
"316 358 OFFCURVE",
"340 356 OFFCURVE",
"364 350 CURVE"
);
}
);
width = 647;
}
);
},
{
glyphname = "ng_ka-deva";
lastChange = "2014-06-27 12:36:13 +0100";
layers = (
{
anchors = (
{
name = " bottom";
position = "{352, -279}";
},
{
name = top;
position = "{410, 650}";
}
);
layerId = "39185045-6A8C-415A-8312-7B8F11386A4C";
name = Regular;
paths = (
{
closed = 1;
nodes = (
"-31 650 LINE",
"-31 634 LINE",
"0 575 LINE",
"366 575 LINE",
"366 495 LINE",
"213 495 LINE SMOOTH",
"159 495 OFFCURVE",
"123 468 OFFCURVE",
"123 413 CURVE SMOOTH",
"123 363 OFFCURVE",
"226 269 OFFCURVE",
"264 269 CURVE SMOOTH",
"302 269 OFFCURVE",
"359 298 OFFCURVE",
"420 298 CURVE",
"431 292 OFFCURVE",
"442 274 OFFCURVE",
"442 255 CURVE SMOOTH",
"442 215 OFFCURVE",
"393 188 OFFCURVE",
"321 188 CURVE SMOOTH",
"224 188 OFFCURVE",
"148 223 OFFCURVE",
"54 347 CURVE",
"17 310 LINE",
"131 174 OFFCURVE",
"239 125 OFFCURVE",
"348 121 CURVE",
"475 121 OFFCURVE",
"513 183 OFFCURVE",
"513 232 CURVE SMOOTH",
"513 277 OFFCURVE",
"436 364 OFFCURVE",
"379 364 CURVE SMOOTH",
"345 364 OFFCURVE",
"253 339 OFFCURVE",
"237 339 CURVE SMOOTH",
"225 339 OFFCURVE",
"208 355 OFFCURVE",
"208 379 CURVE SMOOTH",
"208 397 OFFCURVE",
"218 425 OFFCURVE",
"245 425 CURVE SMOOTH",
"455 425 LINE",
"455 575 LINE",
"704 575 LINE",
"704 590 LINE",
"671 650 LINE"
);
},
{
closed = 1;
nodes = (
"607 313 LINE",
"684 392 LINE",
"606 470 LINE",
"530 391 LINE"
);
},
{
closed = 1;
nodes = (
"307 165 LINE",
"307 -133 LINE",
"309 -134 LINE",
"305 -279 LINE",
"380 -321 LINE",
"395 -321 LINE",
"395 165 LINE"
);
},
{
closed = 1;
nodes = (
"101 90 OFFCURVE",
"38 33 OFFCURVE",
"38 -32 CURVE SMOOTH",
"38 -124 OFFCURVE",
"102 -174 OFFCURVE",
"179 -174 CURVE SMOOTH",
"246 -174 OFFCURVE",
"283 -148 OFFCURVE",
"329 -119 CURVE SMOOTH",
"378 -76 LINE",
"417 -42 OFFCURVE",
"475 16 OFFCURVE",
"535 16 CURVE SMOOTH",
"563 16 OFFCURVE",
"577 -1 OFFCURVE",
"577 -34 CURVE SMOOTH",
"577 -77 OFFCURVE",
"524 -128 OFFCURVE",
"493 -159 CURVE",
"561 -201 LINE",
"594 -164 OFFCURVE",
"628 -111 OFFCURVE",
"628 -68 CURVE SMOOTH",
"628 14 OFFCURVE",
"556 70 OFFCURVE",
"500 70 CURVE SMOOTH",
"454 70 OFFCURVE",
"402 40 OFFCURVE",
"370 15 CURVE SMOOTH",
"329 -20 LINE",
"291 -55 OFFCURVE",
"233 -119 OFFCURVE",
"154 -119 CURVE SMOOTH",
"116 -119 OFFCURVE",
"85 -98 OFFCURVE",
"85 -61 CURVE SMOOTH",
"85 -16 OFFCURVE",
"133 11 OFFCURVE",
"188 11 CURVE SMOOTH",
"246 11 OFFCURVE",
"296 -22 OFFCURVE",
"314 -49 CURVE",
"320 -10 LINE",
"289 39 OFFCURVE",
"224 90 OFFCURVE",
"153 90 CURVE SMOOTH"
);
}
);
width = 704;
}
);
},
{
glyphname = "ng_k_ssa-deva";
lastChange = "2014-06-27 12:36:04 +0100";
layers = (
{
anchors = (
{
name = " bottom";
position = "{459, -279}";
},
{
name = top;
position = "{410, 650}";
}
);
background = {
paths = (
{
closed = 1;
nodes = (
"175 5 OFFCURVE",
"216 40 OFFCURVE",
"216 82 CURVE SMOOTH",
"216 105 OFFCURVE",
"177 128 OFFCURVE",
"131 128 CURVE SMOOTH",
"85 128 OFFCURVE",
"47 102 OFFCURVE",
"47 66 CURVE SMOOTH",
"47 48 OFFCURVE",
"77 24 OFFCURVE",
"124 5 CURVE"
);
},
{
closed = 1;
nodes = (
"620 363 OFFCURVE",
"595 388 OFFCURVE",
"595 417 CURVE SMOOTH",
"595 440 OFFCURVE",
"620 462 OFFCURVE",
"647 462 CURVE SMOOTH",
"676 462 OFFCURVE",
"701 440 OFFCURVE",
"701 417 CURVE SMOOTH",
"701 388 OFFCURVE",
"676 363 OFFCURVE",
"647 363 CURVE SMOOTH"
);
},
{
closed = 1;
nodes = (
"284 113 OFFCURVE",
"290 99 OFFCURVE",
"290 90 CURVE SMOOTH",
"290 40 OFFCURVE",
"260 0 OFFCURVE",
"216 -18 CURVE",
"252 -30 OFFCURVE",
"289 -40 OFFCURVE",
"321 -40 CURVE SMOOTH",
"366 -40 OFFCURVE",
"406 -29 OFFCURVE",
"442 -8 CURVE",
"442 136 LINE",
"415 126 OFFCURVE",
"381 120 OFFCURVE",
"344 120 CURVE SMOOTH",
"321 120 OFFCURVE",
"295 122 OFFCURVE",
"272 126 CURVE"
);
},
{
closed = 1;
nodes = (
"731 636 LINE",
"731 569 LINE",
"504 569 LINE",
"504 424 LINE",
"229 424 LINE SMOOTH",
"210 424 OFFCURVE",
"192 417 OFFCURVE",
"192 408 CURVE SMOOTH",
"192 393 OFFCURVE",
"209 377 OFFCURVE",
"240 356 CURVE SMOOTH",
"274 337 OFFCURVE",
"299 326 OFFCURVE",
"321 326 CURVE SMOOTH",
"337 326 OFFCURVE",
"361 330 OFFCURVE",
"393 340 CURVE SMOOTH",
"425 350 OFFCURVE",
"449 354 OFFCURVE",
"466 354 CURVE SMOOTH",
"523 354 OFFCURVE",
"572 318 OFFCURVE",
"572 272 CURVE SMOOTH",
"572 229 OFFCURVE",
"550 193 OFFCURVE",
"518 174 CURVE",
"518 -229 LINE",
"442 -229 LINE",
"442 -69 LINE",
"411 -85 OFFCURVE",
"373 -93 OFFCURVE",
"329 -93 CURVE SMOOTH",
"245 -93 OFFCURVE",
"176 -82 OFFCURVE",
"116 -62 CURVE",
"66 -76 OFFCURVE",
"31 -105 OFFCURVE",
"31 -139 CURVE SMOOTH",
"31 -174 OFFCURVE",
"82 -199 OFFCURVE",
"146 -199 CURVE",
"142 -194 OFFCURVE",
"139 -188 OFFCURVE",
"139 -184 CURVE SMOOTH",
"139 -155 OFFCURVE",
"170 -131 OFFCURVE",
"208 -131 CURVE SMOOTH",
"254 -131 OFFCURVE",
"290 -159 OFFCURVE",
"290 -199 CURVE SMOOTH",
"290 -219 OFFCURVE",
"270 -243 OFFCURVE",
"237 -252 CURVE",
"245 -262 OFFCURVE",
"286 -285 OFFCURVE",
"313 -305 CURVE",
"253 -329 LINE",
"244 -324 OFFCURVE",
"232 -316 OFFCURVE",
"220 -305 CURVE",
"162 -260 LINE",
"104 -260 OFFCURVE",
"55 -247 OFFCURVE",
"16 -224 CURVE SMOOTH",
"-24 -199 OFFCURVE",
"-44 -171 OFFCURVE",
"-44 -139 CURVE SMOOTH",
"-44 -82 OFFCURVE",
"-8 -30 OFFCURVE",
"47 -18 CURVE",
"1 5 OFFCURVE",
"-27 39 OFFCURVE",
"-27 66 CURVE SMOOTH",
"-27 126 OFFCURVE",
"28 178 OFFCURVE",
"102 187 CURVE",
"52 214 OFFCURVE",
"5 243 OFFCURVE",
"-36 280 CURVE",
"19 333 LINE",
"104 243 OFFCURVE",
"217 195 OFFCURVE",
"344 195 CURVE SMOOTH",
"426 195 OFFCURVE",
"496 229 OFFCURVE",
"496 272 CURVE SMOOTH",
"496 281 OFFCURVE",
"481 288 OFFCURVE",
"466 288 CURVE",
"445 287 OFFCURVE",
"419 283 OFFCURVE",
"385 275 CURVE SMOOTH",
"352 268 OFFCURVE",
"328 264 OFFCURVE",
"313 264 CURVE SMOOTH",
"281 264 OFFCURVE",
"240 283 OFFCURVE",
"189 318 CURVE SMOOTH",
"141 353 OFFCURVE",
"116 385 OFFCURVE",
"116 408 CURVE SMOOTH",
"116 455 OFFCURVE",
"167 492 OFFCURVE",
"229 492 CURVE SMOOTH",
"427 492 LINE",
"427 569 LINE",
"-105 569 LINE",
"-105 636 LINE"
);
}
);
};
layerId = "39185045-6A8C-415A-8312-7B8F11386A4C";
name = Regular;
paths = (
{
closed = 1;
nodes = (
"-31 650 LINE",
"-31 634 LINE",
"0 575 LINE",
"366 575 LINE",
"366 495 LINE",
"213 495 LINE SMOOTH",
"159 495 OFFCURVE",
"123 468 OFFCURVE",
"123 413 CURVE SMOOTH",
"123 363 OFFCURVE",
"226 269 OFFCURVE",
"264 269 CURVE SMOOTH",
"302 269 OFFCURVE",
"359 298 OFFCURVE",
"420 298 CURVE",
"431 292 OFFCURVE",
"442 274 OFFCURVE",
"442 255 CURVE SMOOTH",
"442 215 OFFCURVE",
"393 188 OFFCURVE",
"321 188 CURVE SMOOTH",
"224 188 OFFCURVE",
"148 223 OFFCURVE",
"54 347 CURVE",
"17 310 LINE",
"131 174 OFFCURVE",
"239 125 OFFCURVE",
"348 121 CURVE",
"475 121 OFFCURVE",
"513 183 OFFCURVE",
"513 232 CURVE SMOOTH",
"513 277 OFFCURVE",
"436 364 OFFCURVE",
"379 364 CURVE SMOOTH",
"345 364 OFFCURVE",
"253 339 OFFCURVE",
"237 339 CURVE SMOOTH",
"225 339 OFFCURVE",
"208 355 OFFCURVE",
"208 379 CURVE SMOOTH",
"208 397 OFFCURVE",
"218 425 OFFCURVE",
"245 425 CURVE SMOOTH",
"455 425 LINE",
"455 575 LINE",
"704 575 LINE",
"704 590 LINE",
"671 650 LINE"
);
},
{
closed = 1;
nodes = (
"99 207 OFFCURVE",
"17 159 OFFCURVE",
"17 107 CURVE SMOOTH",
"17 64 OFFCURVE",
"61 14 OFFCURVE",
"121 -18 CURVE",
"190 -53 LINE",
"233 -88 OFFCURVE",
"274 -110 OFFCURVE",
"339 -110 CURVE SMOOTH",
"369 -110 OFFCURVE",
"403 -102 OFFCURVE",
"426 -88 CURVE",
"427 -88 LINE",
"427 -4 LINE",
"395 -32 OFFCURVE",
"347 -49 OFFCURVE",
"299 -49 CURVE SMOOTH",
"271 -49 OFFCURVE",
"242 -45 OFFCURVE",
"218 -35 CURVE",
"151 -1 LINE",
"118 18 OFFCURVE",
"92 57 OFFCURVE",
"92 79 CURVE SMOOTH",
"92 120 OFFCURVE",
"132 138 OFFCURVE",
"167 138 CURVE SMOOTH",
"196 138 OFFCURVE",
"240 120 OFFCURVE",
"240 72 CURVE SMOOTH",
"240 41 OFFCURVE",
"199 21 OFFCURVE",
"151 4 CURVE",
"121 -13 LINE",
"61 -43 OFFCURVE",
"-2 -75 OFFCURVE",
"-2 -121 CURVE SMOOTH",
"-2 -206 OFFCURVE",
"116 -284 OFFCURVE",
"171 -284 CURVE SMOOTH",
"188 -284 OFFCURVE",
"206 -282 OFFCURVE",
"224 -277 CURVE",
"271 -386 LINE",
"318 -363 LINE",
"260 -266 LINE",
"285 -253 OFFCURVE",
"303 -230 OFFCURVE",
"303 -200 CURVE SMOOTH",
"303 -157 OFFCURVE",
"280 -126 OFFCURVE",
"232 -126 CURVE SMOOTH",
"222 -126 OFFCURVE",
"200 -130 OFFCURVE",
"186 -139 CURVE",
"200 -213 LINE",
"178 -221 OFFCURVE",
"163 -225 OFFCURVE",
"136 -225 CURVE SMOOTH",
"99 -225 OFFCURVE",
"75 -190 OFFCURVE",
"75 -158 CURVE SMOOTH",
"75 -108 OFFCURVE",
"136 -90 OFFCURVE",
"190 -58 CURVE",
"218 -40 LINE",
"264 -20 OFFCURVE",
"298 11 OFFCURVE",
"298 54 CURVE SMOOTH",
"298 116 OFFCURVE",
"199 207 OFFCURVE",
"143 207 CURVE SMOOTH"
);
},
{
closed = 1;
nodes = (
"530 391 LINE",
"607 313 LINE",
"684 392 LINE",
"606 470 LINE"
);
},
{
closed = 1;
nodes = (
"415 175 LINE",
"415 -279 LINE",
"487 -321 LINE",
"503 -321 LINE",
"503 233 LINE"
);
}
);
width = 704;
}
);
},
{
glyphname = "ng_kha-deva";
lastChange = "2014-06-27 12:36:25 +0100";
layers = (
{
anchors = (
{
name = " bottom";
position = "{465, -283}";
},
{
name = top;
position = "{410, 650}";
}
);
background = {
paths = (
{
closed = 1;
nodes = (
"789 209 LINE",
"789 224 LINE",
"756 284 LINE",
"-103 284 LINE",
"-103 268 LINE",
"-72 209 LINE",
"107 209 LINE",
"113 169 OFFCURVE",
"117 116 OFFCURVE",
"117 84 CURVE SMOOTH",
"117 41 OFFCURVE",
"103 -8 OFFCURVE",
"92 -26 CURVE",
"39 16 LINE",
"37 16 LINE",
"18 4 OFFCURVE",
"-15 -26 OFFCURVE",
"-15 -60 CURVE SMOOTH",
"-15 -95 OFFCURVE",
"12 -124 OFFCURVE",
"62 -180 CURVE SMOOTH",
"141 -265 OFFCURVE",
"263 -375 OFFCURVE",
"371 -375 CURVE SMOOTH",
"446 -375 OFFCURVE",
"540 -337 OFFCURVE",
"591 -304 CURVE",
"589 -366 LINE",
"663 -408 LINE",
"678 -408 LINE",
"678 209 LINE"
);
},
{
closed = 1;
nodes = (
"341 141 OFFCURVE",
"268 79 OFFCURVE",
"268 -20 CURVE SMOOTH",
"268 -117 OFFCURVE",
"353 -186 OFFCURVE",
"441 -186 CURVE SMOOTH",
"499 -186 OFFCURVE",
"544 -147 OFFCURVE",
"589 -111 CURVE",
"592 -113 LINE",
"592 -211 LINE",
"538 -264 OFFCURVE",
"433 -307 OFFCURVE",
"370 -307 CURVE SMOOTH",
"252 -307 OFFCURVE",
"146 -200 OFFCURVE",
"106 -155 CURVE",
"149 -114 OFFCURVE",
"199 -59 OFFCURVE",
"199 38 CURVE SMOOTH",
"199 82 OFFCURVE",
"192 153 OFFCURVE",
"182 209 CURVE",
"590 209 LINE",
"590 60 LINE",
"589 60 LINE",
"559 90 OFFCURVE",
"509 141 OFFCURVE",
"432 141 CURVE SMOOTH"
);
},
{
closed = 1;
nodes = (
"354 -115 OFFCURVE",
"316 -82 OFFCURVE",
"316 -48 CURVE SMOOTH",
"316 10 OFFCURVE",
"382 61 OFFCURVE",
"461 61 CURVE SMOOTH",
"505 61 OFFCURVE",
"559 43 OFFCURVE",
"590 -1 CURVE",
"590 -3 LINE",
"543 -64 OFFCURVE",
"470 -115 OFFCURVE",
"410 -115 CURVE SMOOTH"
);
}
);
};
layerId = "39185045-6A8C-415A-8312-7B8F11386A4C";
name = Regular;
paths = (
{
closed = 1;
nodes = (
"-31 650 LINE",
"-31 634 LINE",
"0 575 LINE",
"366 575 LINE",
"366 495 LINE",
"213 495 LINE SMOOTH",
"159 495 OFFCURVE",
"123 468 OFFCURVE",
"123 413 CURVE SMOOTH",
"123 363 OFFCURVE",
"226 269 OFFCURVE",
"264 269 CURVE SMOOTH",
"302 269 OFFCURVE",
"359 298 OFFCURVE",
"420 298 CURVE",
"431 292 OFFCURVE",
"442 274 OFFCURVE",
"442 255 CURVE SMOOTH",
"442 215 OFFCURVE",
"393 188 OFFCURVE",
"321 188 CURVE SMOOTH",
"224 188 OFFCURVE",
"148 223 OFFCURVE",
"54 347 CURVE",
"17 310 LINE",
"150 174 OFFCURVE",
"239 125 OFFCURVE",
"348 121 CURVE",
"475 121 OFFCURVE",
"513 183 OFFCURVE",
"513 232 CURVE SMOOTH",
"513 277 OFFCURVE",
"436 364 OFFCURVE",
"379 364 CURVE SMOOTH",
"345 364 OFFCURVE",
"253 339 OFFCURVE",
"237 339 CURVE SMOOTH",
"225 339 OFFCURVE",
"208 355 OFFCURVE",
"208 379 CURVE SMOOTH",
"208 397 OFFCURVE",
"218 425 OFFCURVE",
"245 425 CURVE SMOOTH",
"455 425 LINE",
"455 575 LINE",
"704 575 LINE",
"704 590 LINE",
"671 650 LINE"
);
},
{
closed = 1;
nodes = (
"607 313 LINE",
"684 392 LINE",
"606 470 LINE",
"530 391 LINE"
);
},
{
closed = 1;
nodes = (
"425 171 LINE",
"425 -283 LINE",
"487 -321 LINE",
"503 -321 LINE",
"503 233 LINE"
);
},
{
closed = 1;
nodes = (
"274 94 OFFCURVE",
"226 41 OFFCURVE",
"226 -25 CURVE SMOOTH",
"226 -89 OFFCURVE",
"293 -150 OFFCURVE",
"341 -150 CURVE SMOOTH",
"378 -150 OFFCURVE",
"412 -122 OFFCURVE",
"433 -94 CURVE",
"431 -1 LINE",
"401 -46 OFFCURVE",
"370 -89 OFFCURVE",
"309 -89 CURVE SMOOTH",
"287 -89 OFFCURVE",
"274 -67 OFFCURVE",
"274 -53 CURVE SMOOTH",
"274 -23 OFFCURVE",
"295 24 OFFCURVE",
"360 24 CURVE SMOOTH",
"384 24 OFFCURVE",
"408 12 OFFCURVE",
"432 -18 CURVE",
"429 40 LINE",
"412 54 OFFCURVE",
"368 94 OFFCURVE",
"332 94 CURVE SMOOTH"
);
},
{
closed = 1;
nodes = (
"101 258 LINE",
"119 178 OFFCURVE",
"124 137 OFFCURVE",
"124 89 CURVE SMOOTH",
"124 48 OFFCURVE",
"116 24 OFFCURVE",
"92 -12 CURVE",
"39 30 LINE",
"37 30 LINE",
"18 14 OFFCURVE",
"5 -10 OFFCURVE",
"5 -35 CURVE SMOOTH",
"5 -70 OFFCURVE",
"33 -98 OFFCURVE",
"72 -145 CURVE SMOOTH",
"121 -205 OFFCURVE",
"243 -287 OFFCURVE",
"288 -287 CURVE SMOOTH",
"334 -287 OFFCURVE",
"378 -272 OFFCURVE",
"426 -243 CURVE",
"427 -152 LINE",
"378 -183 OFFCURVE",
"330 -210 OFFCURVE",
"282 -210 CURVE SMOOTH",
"239 -210 OFFCURVE",
"155 -188 OFFCURVE",
"111 -120 CURVE",
"144 -91 OFFCURVE",
"199 -34 OFFCURVE",
"199 44 CURVE SMOOTH",
"199 103 OFFCURVE",
"189 160 OFFCURVE",
"181 210 CURVE"
);
}
);
width = 704;
}
);
},
{
glyphname = "ng_ga-deva";
lastChange = "2014-06-27 12:36:32 +0100";
layers = (
{
anchors = (
{
name = bottom;
position = "{459, -279}";
},
{
name = top;
position = "{410, 650}";
}
);
background = {
paths = (
{
closed = 1;
nodes = (
"468 -317 LINE",
"541 -358 LINE",
"557 -358 LINE",
"557 259 LINE",
"667 259 LINE",
"667 274 LINE",
"635 334 LINE",
"8 334 LINE",
"8 318 LINE",
"39 259 LINE",
"183 259 LINE",
"183 12 LINE",
"84 24 LINE",
"80 14 OFFCURVE",
"78 0 OFFCURVE",
"78 -17 CURVE SMOOTH",
"78 -61 OFFCURVE",
"112 -140 OFFCURVE",
"192 -140 CURVE SMOOTH",
"264 -140 OFFCURVE",
"275 -68 OFFCURVE",
"275 -32 CURVE SMOOTH",
"275 56 OFFCURVE",
"268 169 OFFCURVE",
"259 259 CURVE",
"468 259 LINE"
);
}
);
};
layerId = "39185045-6A8C-415A-8312-7B8F11386A4C";
name = Regular;
paths = (
{
closed = 1;
nodes = (
"183 220 LINE",
"183 12 LINE",
"84 24 LINE",
"80 14 OFFCURVE",
"78 0 OFFCURVE",
"78 -17 CURVE SMOOTH",
"78 -61 OFFCURVE",
"112 -140 OFFCURVE",
"192 -140 CURVE SMOOTH",
"264 -140 OFFCURVE",
"275 -68 OFFCURVE",
"275 -32 CURVE SMOOTH",
"275 27 OFFCURVE",
"265 112 OFFCURVE",
"255 171 CURVE"
);
},
{
closed = 1;
nodes = (
"-31 650 LINE",
"-31 634 LINE",
"0 575 LINE",
"366 575 LINE",
"366 495 LINE",
"213 495 LINE SMOOTH",
"159 495 OFFCURVE",
"123 468 OFFCURVE",
"123 413 CURVE SMOOTH",
"123 363 OFFCURVE",
"226 269 OFFCURVE",
"264 269 CURVE SMOOTH",
"302 269 OFFCURVE",
"359 298 OFFCURVE",
"420 298 CURVE",
"431 292 OFFCURVE",
"442 274 OFFCURVE",
"442 255 CURVE SMOOTH",
"442 215 OFFCURVE",
"393 188 OFFCURVE",
"321 188 CURVE SMOOTH",
"224 188 OFFCURVE",
"148 223 OFFCURVE",
"54 347 CURVE",
"17 310 LINE",
"131 174 OFFCURVE",
"239 125 OFFCURVE",
"348 121 CURVE",
"475 121 OFFCURVE",
"513 183 OFFCURVE",
"513 232 CURVE SMOOTH",
"513 277 OFFCURVE",
"436 364 OFFCURVE",
"379 364 CURVE SMOOTH",
"345 364 OFFCURVE",
"253 339 OFFCURVE",
"237 339 CURVE SMOOTH",
"225 339 OFFCURVE",
"208 355 OFFCURVE",
"208 379 CURVE SMOOTH",
"208 397 OFFCURVE",
"218 425 OFFCURVE",
"245 425 CURVE SMOOTH",
"455 425 LINE",
"455 575 LINE",
"704 575 LINE",
"704 590 LINE",
"671 650 LINE"
);
},
{
closed = 1;
nodes = (
"607 313 LINE",
"684 392 LINE",
"606 470 LINE",
"530 391 LINE"
);
},
{
closed = 1;
nodes = (
"415 175 LINE",
"415 -279 LINE",
"487 -321 LINE",
"503 -321 LINE",
"503 233 LINE"
);
}
);
width = 704;
}
);
},
{
glyphname = "ng_gha-deva";
lastChange = "2014-06-27 12:36:47 +0100";
layers = (
{
anchors = (
{
name = bottom;
position = "{459, -279}";
},
{
name = top;
position = "{410, 650}";
}
);
background = {
paths = (
{
closed = 0;
nodes = (
"57 177 LINE",
"54 159 OFFCURVE",
"52 151 OFFCURVE",
"52 139 CURVE SMOOTH",
"52 85 OFFCURVE",
"109 50 OFFCURVE",
"170 23 CURVE",
"122 -2 OFFCURVE",
"89 -45 OFFCURVE",
"89 -89 CURVE SMOOTH",
"89 -119 OFFCURVE",
"102 -151 OFFCURVE",
"168 -197 CURVE SMOOTH",
"202 -221 OFFCURVE",
"241 -237 OFFCURVE",
"280 -237 CURVE SMOOTH",
"321 -237 OFFCURVE",
"368 -213 OFFCURVE",
"436 -172 CURVE",
"438 -35 LINE",
"394 -94 OFFCURVE",
"295 -166 OFFCURVE",
"228 -166 CURVE SMOOTH",
"202 -164 OFFCURVE",
"165 -157 OFFCURVE",
"165 -116 CURVE SMOOTH",
"165 -85 OFFCURVE",
"209 -20 OFFCURVE",
"263 -20 CURVE SMOOTH",
"281 -20 OFFCURVE",
"296 -24 OFFCURVE",
"325 -28 CURVE",
"335 -3 LINE",
"319 36 LINE",
"293 46 OFFCURVE",
"268 51 OFFCURVE",
"251 51 CURVE SMOOTH",
"239 51 OFFCURVE",
"234 50 OFFCURVE",
"229 49 CURVE SMOOTH",
"194 42 OFFCURVE",
"134 78 OFFCURVE",
"134 115 CURVE SMOOTH",
"134 139 OFFCURVE",
"146 162 OFFCURVE",
"168 177 CURVE"
);
}
);
};
layerId = "39185045-6A8C-415A-8312-7B8F11386A4C";
name = Regular;
paths = (
{
closed = 1;
nodes = (
"-31 650 LINE",
"-31 634 LINE",
"0 575 LINE",
"366 575 LINE",
"366 495 LINE",
"213 495 LINE SMOOTH",
"159 495 OFFCURVE",
"123 468 OFFCURVE",
"123 413 CURVE SMOOTH",
"123 363 OFFCURVE",
"226 269 OFFCURVE",
"264 269 CURVE SMOOTH",
"302 269 OFFCURVE",
"359 298 OFFCURVE",
"420 298 CURVE",
"431 292 OFFCURVE",
"442 274 OFFCURVE",
"442 255 CURVE SMOOTH",
"442 215 OFFCURVE",
"393 188 OFFCURVE",
"321 188 CURVE SMOOTH",
"224 188 OFFCURVE",
"148 223 OFFCURVE",
"54 347 CURVE",
"17 310 LINE",
"131 174 OFFCURVE",
"239 125 OFFCURVE",
"348 121 CURVE",
"475 121 OFFCURVE",
"513 183 OFFCURVE",
"513 232 CURVE SMOOTH",
"513 277 OFFCURVE",
"436 364 OFFCURVE",
"379 364 CURVE SMOOTH",
"345 364 OFFCURVE",
"253 339 OFFCURVE",
"237 339 CURVE SMOOTH",
"225 339 OFFCURVE",
"208 355 OFFCURVE",
"208 379 CURVE SMOOTH",
"208 397 OFFCURVE",
"218 425 OFFCURVE",
"245 425 CURVE SMOOTH",
"455 425 LINE",
"455 575 LINE",
"704 575 LINE",
"704 590 LINE",
"671 650 LINE"
);
},
{
closed = 1;
nodes = (
"607 313 LINE",
"684 392 LINE",
"606 470 LINE",
"530 391 LINE"
);
},
{
closed = 1;
nodes = (
"107 242 LINE",
"67 204 OFFCURVE",
"52 178 OFFCURVE",
"52 139 CURVE SMOOTH",
"52 85 OFFCURVE",
"109 50 OFFCURVE",
"170 23 CURVE",
"128 -2 OFFCURVE",
"99 -45 OFFCURVE",
"99 -89 CURVE SMOOTH",
"99 -119 OFFCURVE",
"114 -151 OFFCURVE",
"173 -197 CURVE SMOOTH",
"207 -221 OFFCURVE",
"241 -237 OFFCURVE",
"280 -237 CURVE SMOOTH",
"321 -237 OFFCURVE",
"368 -213 OFFCURVE",
"436 -172 CURVE",
"438 -50 LINE",
"394 -108 OFFCURVE",
"295 -166 OFFCURVE",
"228 -166 CURVE SMOOTH",
"206 -164 OFFCURVE",
"175 -157 OFFCURVE",
"175 -116 CURVE SMOOTH",
"175 -85 OFFCURVE",
"215 -20 OFFCURVE",
"263 -20 CURVE SMOOTH",
"281 -20 OFFCURVE",
"296 -24 OFFCURVE",
"325 -28 CURVE",
"335 -3 LINE",
"319 36 LINE",
"293 46 OFFCURVE",
"268 51 OFFCURVE",
"251 51 CURVE SMOOTH",
"239 51 OFFCURVE",
"234 50 OFFCURVE",
"229 49 CURVE SMOOTH",
"194 42 OFFCURVE",
"134 78 OFFCURVE",
"134 115 CURVE SMOOTH",
"134 139 OFFCURVE",
"146 162 OFFCURVE",
"168 177 CURVE"
);
},
{
closed = 1;
nodes = (
"415 175 LINE",
"415 -279 LINE",
"487 -321 LINE",
"503 -321 LINE",
"503 233 LINE"
);
}
);
width = 704;
}
);
},
{
glyphname = "ng_ma-deva";
lastChange = "2014-06-27 12:37:02 +0100";
layers = (
{
anchors = (
{
name = bottom;
position = "{459, -279}";
},
{
name = top;
position = "{410, 650}";
}
);
background = {
paths = (
{
closed = 1;
nodes = (
"415 175 LINE",
"415 -279 LINE",
"487 -321 LINE",
"503 -321 LINE",
"503 233 LINE"
);
},
{
closed = 1;
nodes = (
"144 20 LINE",
"126 21 OFFCURVE",
"114 22 OFFCURVE",
"103 22 CURVE SMOOTH",
"77 22 OFFCURVE",
"64 13 OFFCURVE",
"64 -9 CURVE SMOOTH",
"64 -37 OFFCURVE",
"102 -87 OFFCURVE",
"129 -118 CURVE SMOOTH",
"164 -161 OFFCURVE",
"199 -206 OFFCURVE",
"224 -206 CURVE SMOOTH",
"243 -206 OFFCURVE",
"251 -196 OFFCURVE",
"251 -180 CURVE SMOOTH",
"251 -155 OFFCURVE",
"248 -115 OFFCURVE",
"246 -76 CURVE",
"474 -76 LINE",
"474 -1 LINE",
"232 -1 LINE",
"232 169 LINE",
"144 214 LINE"
);
}
);
};
layerId = "39185045-6A8C-415A-8312-7B8F11386A4C";
name = Regular;
paths = (
{
closed = 1;
nodes = (
"-31 650 LINE",
"-31 634 LINE",
"0 575 LINE",
"366 575 LINE",
"366 495 LINE",
"213 495 LINE SMOOTH",
"159 495 OFFCURVE",
"123 468 OFFCURVE",
"123 413 CURVE SMOOTH",
"123 363 OFFCURVE",
"226 269 OFFCURVE",
"264 269 CURVE SMOOTH",
"302 269 OFFCURVE",
"359 298 OFFCURVE",
"420 298 CURVE",
"431 292 OFFCURVE",
"442 274 OFFCURVE",
"442 255 CURVE SMOOTH",
"442 215 OFFCURVE",
"393 188 OFFCURVE",
"321 188 CURVE SMOOTH",
"224 188 OFFCURVE",
"148 223 OFFCURVE",
"54 347 CURVE",
"17 310 LINE",
"131 174 OFFCURVE",
"239 125 OFFCURVE",
"348 121 CURVE",
"475 121 OFFCURVE",
"513 183 OFFCURVE",
"513 232 CURVE SMOOTH",
"513 277 OFFCURVE",
"436 364 OFFCURVE",
"379 364 CURVE SMOOTH",
"345 364 OFFCURVE",
"253 339 OFFCURVE",
"237 339 CURVE SMOOTH",
"225 339 OFFCURVE",
"208 355 OFFCURVE",
"208 379 CURVE SMOOTH",
"208 397 OFFCURVE",
"218 425 OFFCURVE",
"245 425 CURVE SMOOTH",
"455 425 LINE",
"455 575 LINE",
"704 575 LINE",
"704 590 LINE",
"671 650 LINE"
);
},
{
closed = 1;
nodes = (
"607 313 LINE",
"684 392 LINE",
"606 470 LINE",
"530 391 LINE"
);
},
{
closed = 1;
nodes = (
"415 175 LINE",
"415 -279 LINE",
"487 -321 LINE",
"503 -321 LINE",
"503 233 LINE"
);
},
{
closed = 1;
nodes = (
"144 5 LINE",
"126 7 OFFCURVE",
"119 8 OFFCURVE",
"108 8 CURVE SMOOTH",
"82 8 OFFCURVE",
"69 -2 OFFCURVE",
"69 -23 CURVE SMOOTH",
"69 -47 OFFCURVE",
"102 -90 OFFCURVE",
"124 -116 CURVE SMOOTH",
"154 -153 OFFCURVE",
"194 -196 OFFCURVE",
"220 -196 CURVE SMOOTH",
"238 -196 OFFCURVE",
"246 -186 OFFCURVE",
"246 -170 CURVE SMOOTH",
"246 -145 OFFCURVE",
"243 -115 OFFCURVE",
"241 -86 CURVE",
"474 -86 LINE",
"474 -11 LINE",
"232 -11 LINE",
"232 169 LINE",
"144 214 LINE"
);
}
);
width = 704;
}
);
},
{
glyphname = "c_ca-deva";
lastChange = "2014-06-27 10:25:37 +0100";
layers = (
{
anchors = (
{
name = bottom;
position = "{511, 0}";
},
{
name = top;
position = "{511, 650}";
}
);
background = {
paths = (
{
closed = 1;
nodes = (
"-21 855 LINE",
"-21 839 LINE",
"10 780 LINE",
"477 780 LINE",
"477 392 LINE",
"441 340 OFFCURVE",
"345 270 OFFCURVE",
"287 270 CURVE SMOOTH",
"244 270 OFFCURVE",
"204 299 OFFCURVE",
"204 340 CURVE SMOOTH",
"204 392 OFFCURVE",
"235 419 OFFCURVE",
"286 444 CURVE",
"420 444 LINE",
"420 460 LINE",
"388 519 LINE",
"42 519 LINE",
"42 504 LINE",
"74 444 LINE",
"173 444 LINE",
"151 423 OFFCURVE",
"137 394 OFFCURVE",
"137 364 CURVE SMOOTH",
"137 323 OFFCURVE",
"172 286 OFFCURVE",
"196 264 CURVE SMOOTH",
"229 235 OFFCURVE",
"267 218 OFFCURVE",
"319 218 CURVE SMOOTH",
"370 218 OFFCURVE",
"431 241 OFFCURVE",
"475 274 CURVE",
"479 272 LINE",
"475 205 LINE",
"549 163 LINE",
"566 163 LINE",
"566 780 LINE",
"675 780 LINE",
"675 795 LINE",
"644 855 LINE"
);
}
);
};
layerId = "39185045-6A8C-415A-8312-7B8F11386A4C";
name = Regular;
paths = (
{
closed = 1;
nodes = (
"-31 650 LINE",
"-31 634 LINE",
"0 575 LINE",
"468 575 LINE",
"468 187 LINE",
"431 135 OFFCURVE",
"335 65 OFFCURVE",
"277 65 CURVE SMOOTH",
"233 65 OFFCURVE",
"194 90 OFFCURVE",
"194 125 CURVE SMOOTH",
"194 173 OFFCURVE",
"225 196 OFFCURVE",
"276 220 CURVE",
"410 220 LINE",
"410 235 LINE",
"379 295 LINE",
"32 295 LINE",
"32 279 LINE",
"64 220 LINE",
"163 220 LINE",
"142 201 OFFCURVE",
"127 176 OFFCURVE",
"127 149 CURVE SMOOTH",
"127 112 OFFCURVE",
"167 76 OFFCURVE",
"186 60 CURVE SMOOTH",
"220 30 OFFCURVE",
"258 13 OFFCURVE",
"309 13 CURVE SMOOTH",
"360 13 OFFCURVE",
"422 36 OFFCURVE",
"466 69 CURVE",
"469 67 LINE",
"466 -20 LINE",
"540 -61 LINE",
"556 -61 LINE",
"556 575 LINE",
"666 575 LINE",
"666 590 LINE",
"634 650 LINE"
);
},
{
closed = 1;
nodes = (
"32 490 LINE",
"32 474 LINE",
"64 415 LINE",
"154 415 LINE",
"141 401 OFFCURVE",
"127 377 OFFCURVE",
"127 354 CURVE SMOOTH",
"127 298 OFFCURVE",
"210 241 OFFCURVE",
"238 227 CURVE",
"256 266 LINE",
"224 276 OFFCURVE",
"194 300 OFFCURVE",
"194 330 CURVE SMOOTH",
"194 379 OFFCURVE",
"232 403 OFFCURVE",
"259 415 CURVE",
"410 415 LINE",
"410 430 LINE",
"379 490 LINE"
);
}
);
width = 666;
}
);
},
{
glyphname = "c_ra-deva";
lastChange = "2014-06-27 10:25:37 +0100";
layers = (
{
anchors = (
{
name = bottom;
position = "{511, 0}";
},
{
name = top;
position = "{511, 650}";
}
);
layerId = "39185045-6A8C-415A-8312-7B8F11386A4C";
name = Regular;
paths = (
{
closed = 1;
nodes = (
"248 -66 LINE",
"468 148 LINE",
"466 0 LINE",
"540 -42 LINE",
"556 -42 LINE",
"556 575 LINE",
"666 575 LINE",
"666 590 LINE",
"634 650 LINE",
"-31 650 LINE",
"-31 634 LINE",
"0 575 LINE",
"468 575 LINE",
"468 265 LINE",
"431 213 OFFCURVE",
"335 143 OFFCURVE",
"277 143 CURVE SMOOTH",
"234 143 OFFCURVE",
"194 188 OFFCURVE",
"194 232 CURVE SMOOTH",
"194 295 OFFCURVE",
"235 347 OFFCURVE",
"296 356 CURVE",
"410 356 LINE",
"410 372 LINE",
"379 431 LINE",
"32 431 LINE",
"32 416 LINE",
"64 356 LINE",
"163 356 LINE",
"142 328 OFFCURVE",
"127 295 OFFCURVE",
"127 257 CURVE SMOOTH",
"127 208 OFFCURVE",
"160 164 OFFCURVE",
"186 138 CURVE SMOOTH",
"213 110 OFFCURVE",
"256 92 OFFCURVE",
"305 91 CURVE",
"186 -1 LINE"
);
}
);
width = 666;
}
);
},
{
glyphname = "ch_va-deva";
lastChange = "2014-06-27 12:37:32 +0100";
layers = (
{
anchors = (
{
name = bottom;
position = "{543, -280}";
},
{
name = top;
position = "{544, 650}";
}
);
background = {
paths = (
{
closed = 1;
nodes = (
"752 616 LINE",
"752 631 LINE",
"720 691 LINE",
"-46 691 LINE",
"-46 675 LINE",
"-15 616 LINE",
"499 616 LINE",
"499 524 LINE",
"438 521 OFFCURVE",
"392 486 OFFCURVE",
"392 420 CURVE SMOOTH",
"392 327 OFFCURVE",
"477 247 OFFCURVE",
"563 210 CURVE",
"498 133 OFFCURVE",
"392 86 OFFCURVE",
"293 86 CURVE SMOOTH",
"236 86 OFFCURVE",
"191 130 OFFCURVE",
"191 163 CURVE SMOOTH",
"191 200 OFFCURVE",
"219 256 OFFCURVE",
"279 256 CURVE SMOOTH",
"303 256 OFFCURVE",
"330 253 OFFCURVE",
"350 248 CURVE",
"360 274 LINE",
"342 319 LINE",
"318 324 OFFCURVE",
"287 326 OFFCURVE",
"254 326 CURVE SMOOTH",
"233 326 OFFCURVE",
"213 321 OFFCURVE",
"195 314 CURVE",
"161 314 OFFCURVE",
"119 342 OFFCURVE",
"119 376 CURVE SMOOTH",
"119 424 OFFCURVE",
"158 449 OFFCURVE",
"197 449 CURVE SMOOTH",
"227 449 OFFCURVE",
"271 438 OFFCURVE",
"303 421 CURVE",
"269 499 LINE",
"255 506 OFFCURVE",
"220 515 OFFCURVE",
"181 515 CURVE SMOOTH",
"102 515 OFFCURVE",
"44 457 OFFCURVE",
"44 399 CURVE SMOOTH",
"44 353 OFFCURVE",
"85 321 OFFCURVE",
"144 279 CURVE",
"119 254 OFFCURVE",
"104 221 OFFCURVE",
"104 189 CURVE SMOOTH",
"104 138 OFFCURVE",
"239 14 OFFCURVE",
"344 14 CURVE SMOOTH",
"521 14 OFFCURVE",
"699 174 OFFCURVE",
"699 344 CURVE SMOOTH",
"699 438 OFFCURVE",
"642 486 OFFCURVE",
"587 508 CURVE",
"587 616 LINE"
);
},
{
closed = 1;
nodes = (
"468 441 OFFCURVE",
"496 463 OFFCURVE",
"532 463 CURVE SMOOTH",
"574 463 OFFCURVE",
"627 439 OFFCURVE",
"627 375 CURVE SMOOTH",
"627 331 OFFCURVE",
"614 290 OFFCURVE",
"593 253 CURVE",
"536 275 OFFCURVE",
"468 333 OFFCURVE",
"468 395 CURVE SMOOTH"
);
}
);
};
layerId = "39185045-6A8C-415A-8312-7B8F11386A4C";
name = Regular;
paths = (
{
closed = 1;
nodes = (
"446 525 OFFCURVE",
"402 485 OFFCURVE",
"402 420 CURVE SMOOTH",
"402 339 OFFCURVE",
"510 257 OFFCURVE",
"582 233 CURVE",
"605 279 LINE",
"557 293 OFFCURVE",
"478 344 OFFCURVE",
"478 400 CURVE SMOOTH",
"478 438 OFFCURVE",
"500 463 OFFCURVE",
"532 463 CURVE SMOOTH",
"566 463 OFFCURVE",
"607 439 OFFCURVE",
"607 375 CURVE SMOOTH",
"607 267 OFFCURVE",
"472 193 OFFCURVE",
"303 193 CURVE SMOOTH",
"252 193 OFFCURVE",
"211 210 OFFCURVE",
"211 241 CURVE SMOOTH",
"211 276 OFFCURVE",
"235 305 OFFCURVE",
"289 305 CURVE SMOOTH",
"309 305 OFFCURVE",
"333 302 OFFCURVE",
"350 297 CURVE",
"360 323 LINE",
"342 368 LINE",
"321 373 OFFCURVE",
"293 375 OFFCURVE",
"264 375 CURVE SMOOTH",
"188 375 OFFCURVE",
"124 323 OFFCURVE",
"124 267 CURVE SMOOTH",
"124 215 OFFCURVE",
"243 121 OFFCURVE",
"334 121 CURVE SMOOTH",
"497 121 OFFCURVE",
"679 223 OFFCURVE",
"679 344 CURVE SMOOTH",
"679 382 OFFCURVE",
"671 424 OFFCURVE",
"645 453 CURVE SMOOTH",
"612 498 OFFCURVE",
"552 525 OFFCURVE",
"512 525 CURVE"
);
},
{
closed = 1;
nodes = (
"118 515 OFFCURVE",
"63 476 OFFCURVE",
"63 428 CURVE SMOOTH",
"63 388 OFFCURVE",
"99 345 OFFCURVE",
"158 308 CURVE",
"195 337 LINE",
"161 354 OFFCURVE",
"139 382 OFFCURVE",
"139 405 CURVE SMOOTH",
"139 438 OFFCURVE",
"173 449 OFFCURVE",
"207 449 CURVE SMOOTH",
"234 449 OFFCURVE",
"274 438 OFFCURVE",
"303 421 CURVE",
"269 499 LINE",
"257 506 OFFCURVE",
"225 515 OFFCURVE",
"190 515 CURVE SMOOTH"
);
},
{
closed = 1;
nodes = (
"-31 650 LINE",
"-31 634 LINE",
"0 575 LINE",
"738 575 LINE",
"738 590 LINE",
"706 650 LINE"
);
},
{
closed = 1;
nodes = (
"499 490 LINE",
"587 490 LINE",
"587 600 LINE",
"499 600 LINE"
);
},
{
closed = 1;
nodes = (
"499 164 LINE",
"499 -20 LINE",
"497 -20 LINE",
"464 17 OFFCURVE",
"398 77 OFFCURVE",
"314 77 CURVE SMOOTH",
"242 77 OFFCURVE",
"160 -4 OFFCURVE",
"160 -99 CURVE SMOOTH",
"160 -192 OFFCURVE",
"260 -255 OFFCURVE",
"337 -255 CURVE SMOOTH",
"396 -255 OFFCURVE",
"448 -225 OFFCURVE",
"496 -189 CURVE",
"499 -191 LINE",
"499 -280 LINE",
"571 -321 LINE",
"587 -321 LINE",
"587 221 LINE",
"514 183 LINE"
);
},
{
closed = 1;
nodes = (
"423 -9 OFFCURVE",
"470 -44 OFFCURVE",
"499 -80 CURVE",
"499 -82 LINE",
"454 -133 OFFCURVE",
"383 -183 OFFCURVE",
"296 -183 CURVE SMOOTH",
"238 -183 OFFCURVE",
"209 -161 OFFCURVE",
"209 -121 CURVE SMOOTH",
"209 -64 OFFCURVE",
"278 -9 OFFCURVE",
"355 -9 CURVE SMOOTH"
);
}
);
width = 738;
}
);
},
{
glyphname = "j_ja-deva";
lastChange = "2014-06-27 12:37:49 +0100";
layers = (
{
anchors = (
{
name = bottom;
position = "{626, 0}";
},
{
name = top;
position = "{626, 650}";
}
);
layerId = "39185045-6A8C-415A-8312-7B8F11386A4C";
name = Regular;
paths = (
{
closed = 1;
nodes = (
"-31 650 LINE",
"-31 634 LINE",
"0 575 LINE",
"581 575 LINE",
"581 500 LINE",
"233 500 LINE",
"220 467 LINE",
"251 448 OFFCURVE",
"305 420 OFFCURVE",
"305 380 CURVE SMOOTH",
"305 354 OFFCURVE",
"290 339 OFFCURVE",
"247 339 CURVE SMOOTH",
"155 339 OFFCURVE",
"90 436 OFFCURVE",
"63 487 CURVE",
"20 470 LINE",
"56 393 OFFCURVE",
"143 254 OFFCURVE",
"265 254 CURVE SMOOTH",
"345 254 OFFCURVE",
"384 293 OFFCURVE",
"384 340 CURVE SMOOTH",
"384 376 OFFCURVE",
"365 401 OFFCURVE",
"341 425 CURVE",
"334 472 LINE",
"298 425 LINE",
"581 425 LINE",
"581 -1 LINE",
"654 -42 LINE",
"670 -42 LINE",
"670 575 LINE",
"779 575 LINE",
"779 590 LINE",
"748 650 LINE"
);
},
{
closed = 1;
nodes = (
"245 186 LINE",
"240 150 LINE",
"279 140 OFFCURVE",
"347 124 OFFCURVE",
"347 77 CURVE SMOOTH",
"347 41 OFFCURVE",
"294 30 OFFCURVE",
"265 30 CURVE SMOOTH",
"189 30 OFFCURVE",
"117 94 OFFCURVE",
"84 131 CURVE",
"46 103 LINE",
"95 46 OFFCURVE",
"194 -49 OFFCURVE",
"298 -49 CURVE SMOOTH",
"357 -49 OFFCURVE",
"434 -13 OFFCURVE",
"434 50 CURVE SMOOTH",
"434 80 OFFCURVE",
"413 118 OFFCURVE",
"368 141 CURVE",
"349 185 LINE",
"326 130 LINE",
"600 202 LINE",
"581 274 LINE"
);
}
);
width = 779;
}
);
},
{
glyphname = "j_nya-deva";
lastChange = "2014-06-27 10:25:37 +0100";
layers = (
{
anchors = (
{
name = bottom;
position = "{540, 0}";
},
{
name = top;
position = "{540, 650}";
}
);
layerId = "39185045-6A8C-415A-8312-7B8F11386A4C";
name = Regular;
paths = (
{
closed = 1;
nodes = (
"568 -42 LINE",
"584 -42 LINE",
"584 575 LINE",
"693 575 LINE",
"693 590 LINE",
"662 650 LINE",
"-31 650 LINE",
"-31 634 LINE",
"0 575 LINE",
"496 575 LINE",
"496 460 LINE",
"106 460 LINE",
"98 423 LINE",
"215 355 OFFCURVE",
"308 280 OFFCURVE",
"308 210 CURVE SMOOTH",
"308 156 OFFCURVE",
"252 110 OFFCURVE",
"156 110 CURVE",
"169 185 LINE",
"161 188 OFFCURVE",
"147 190 OFFCURVE",
"136 190 CURVE SMOOTH",
"101 190 OFFCURVE",
"42 174 OFFCURVE",
"42 119 CURVE SMOOTH",
"42 84 OFFCURVE",
"78 61 OFFCURVE",
"120 48 CURVE",
"275 -130 LINE",
"321 -96 LINE",
"180 36 LINE",
"188 35 OFFCURVE",
"196 35 OFFCURVE",
"203 35 CURVE SMOOTH",
"327 35 OFFCURVE",
"395 122 OFFCURVE",
"395 184 CURVE SMOOTH",
"395 269 OFFCURVE",
"332 318 OFFCURVE",
"238 383 CURVE",
"238 385 LINE",
"496 385 LINE",
"496 -1 LINE"
);
}
);
width = 693;
}
);
},
{
glyphname = "j_ra-deva";
lastChange = "2014-06-27 10:25:37 +0100";
layers = (
{
anchors = (
{
name = bottom;
position = "{604, 0}";
},
{
name = top;
position = "{604, 650}";
}
);
layerId = "39185045-6A8C-415A-8312-7B8F11386A4C";
name = Regular;
paths = (
{
closed = 1;
nodes = (
"559 169 LINE",
"562 167 LINE",
"559 0 LINE",
"633 -42 LINE",
"649 -42 LINE",
"649 575 LINE",
"758 575 LINE",
"758 590 LINE",
"727 650 LINE",
"-31 650 LINE",
"-31 634 LINE",
"0 575 LINE",
"560 575 LINE",
"560 466 LINE",
"284 466 LINE",
"271 433 LINE",
"305 411 OFFCURVE",
"354 364 OFFCURVE",
"354 318 CURVE SMOOTH",
"354 278 OFFCURVE",
"327 257 OFFCURVE",
"286 257 CURVE SMOOTH",
"194 257 OFFCURVE",
"123 367 OFFCURVE",
"81 454 CURVE",
"36 435 LINE",
"86 316 OFFCURVE",
"178 172 OFFCURVE",
"305 172 CURVE SMOOTH",
"374 172 OFFCURVE",
"432 216 OFFCURVE",
"432 298 CURVE SMOOTH",
"432 336 OFFCURVE",
"412 370 OFFCURVE",
"382 400 CURVE",
"560 400 LINE",
"560 274 LINE",
"261 -5 LINE",
"322 -70 LINE"
);
}
);
width = 758;
}
);
},
{
glyphname = "jh_ra-deva";
lastChange = "2014-06-27 12:38:23 +0100";
layers = (
{
anchors = (
{
name = bottom;
position = "{644, 0}";
},
{
name = top;
position = "{644, 650}";
}
);
background = {
paths = (
{
closed = 1;
nodes = (
"8 650 LINE",
"8 634 LINE",
"39 575 LINE",
"609 575 LINE",
"609 -1 LINE",
"681 -42 LINE",
"697 -42 LINE",
"697 575 LINE",
"806 575 LINE",
"806 590 LINE",
"775 650 LINE"
);
},
{
closed = 1;
nodes = (
"445 24 LINE",
"488 -27 LINE",
"639 105 LINE",
"639 177 LINE"
);
}
);
};
layerId = "39185045-6A8C-415A-8312-7B8F11386A4C";
name = Regular;
paths = (
{
closed = 1;
nodes = (
"336 -3 OFFCURVE",
"441 67 OFFCURVE",
"441 149 CURVE SMOOTH",
"441 183 OFFCURVE",
"429 223 OFFCURVE",
"413 256 CURVE",
"416 256 LINE",
"459 225 OFFCURVE",
"496 202 OFFCURVE",
"544 202 CURVE SMOOTH",
"563 202 OFFCURVE",
"605 207 OFFCURVE",
"607 210 CURVE",
"609 210 LINE",
"609 -1 LINE",
"681 -42 LINE",
"697 -42 LINE",
"697 575 LINE",
"806 575 LINE",
"806 590 LINE",
"775 650 LINE",
"-31 650 LINE",
"-31 634 LINE",
"0 575 LINE",
"319 575 LINE",
"319 495 LINE",
"175 495 LINE SMOOTH",
"116 495 OFFCURVE",
"82 447 OFFCURVE",
"82 373 CURVE SMOOTH",
"82 305 OFFCURVE",
"180 214 OFFCURVE",
"226 214 CURVE SMOOTH",
"275 214 OFFCURVE",
"339 244 OFFCURVE",
"372 244 CURVE",
"388 237 OFFCURVE",
"397 201 OFFCURVE",
"397 177 CURVE SMOOTH",
"397 104 OFFCURVE",
"289 72 OFFCURVE",
"175 72 CURVE",
"187 147 LINE",
"180 150 OFFCURVE",
"166 152 OFFCURVE",
"154 152 CURVE SMOOTH",
"119 152 OFFCURVE",
"61 136 OFFCURVE",
"61 81 CURVE SMOOTH",
"61 46 OFFCURVE",
"97 22 OFFCURVE",
"139 10 CURVE",
"294 -168 LINE",
"340 -134 LINE",
"199 -2 LINE",
"207 -3 OFFCURVE",
"215 -3 OFFCURVE",
"222 -3 CURVE SMOOTH"
);
},
{
closed = 1;
nodes = (
"407 415 LINE",
"407 575 LINE",
"609 575 LINE",
"609 305 LINE",
"595 291 OFFCURVE",
"547 280 OFFCURVE",
"504 280 CURVE SMOOTH",
"457 280 OFFCURVE",
"419 287 OFFCURVE",
"384 295 CURVE",
"369 310 OFFCURVE",
"351 319 OFFCURVE",
"334 319 CURVE SMOOTH",
"296 319 OFFCURVE",
"231 289 OFFCURVE",
"180 289 CURVE SMOOTH",
"161 289 OFFCURVE",
"139 317 OFFCURVE",
"139 346 CURVE SMOOTH",
"139 374 OFFCURVE",
"151 415 OFFCURVE",
"198 415 CURVE SMOOTH"
);
},
{
closed = 1;
nodes = (
"416 24 LINE",
"459 -27 LINE",
"610 105 LINE",
"610 177 LINE"
);
}
);
width = 806;
}
);
},
{
glyphname = "ny_ca-deva";
lastChange = "2014-06-27 12:38:50 +0100";
layers = (
{
anchors = (
{
name = bottom;
position = "{600, 0}";
},
{
name = top;
position = "{600, 650}";
}
);
background = {
paths = (
{
closed = 1;
nodes = (
"341 401 OFFCURVE",
"359 376 OFFCURVE",
"359 340 CURVE SMOOTH",
"359 293 OFFCURVE",
"320 254 OFFCURVE",
"241 254 CURVE SMOOTH",
"119 254 OFFCURVE",
"31 393 OFFCURVE",
"-5 470 CURVE",
"39 487 LINE",
"65 436 OFFCURVE",
"131 339 OFFCURVE",
"223 339 CURVE SMOOTH",
"265 339 OFFCURVE",
"281 354 OFFCURVE",
"281 380 CURVE SMOOTH",
"281 420 OFFCURVE",
"226 448 OFFCURVE",
"195 467 CURVE",
"209 500 LINE",
"556 500 LINE",
"556 575 LINE",
"-24 575 LINE",
"-56 634 LINE",
"-56 650 LINE",
"723 650 LINE",
"754 590 LINE",
"754 575 LINE",
"645 575 LINE",
"645 -42 LINE",
"630 -42 LINE",
"556 -1 LINE",
"556 425 LINE",
"273 425 LINE",
"309 472 LINE",
"316 425 LINE"
);
},
{
closed = 1;
nodes = (
"302 130 LINE",
"325 185 LINE",
"344 141 LINE",
"388 118 OFFCURVE",
"410 80 OFFCURVE",
"410 50 CURVE SMOOTH",
"410 -13 OFFCURVE",
"333 -49 OFFCURVE",
"273 -49 CURVE SMOOTH",
"170 -49 OFFCURVE",
"70 46 OFFCURVE",
"21 103 CURVE",
"60 131 LINE",
"93 94 OFFCURVE",
"165 30 OFFCURVE",
"241 30 CURVE SMOOTH",
"269 30 OFFCURVE",
"323 41 OFFCURVE",
"323 77 CURVE SMOOTH",
"323 124 OFFCURVE",
"255 140 OFFCURVE",
"216 150 CURVE",
"221 186 LINE",
"556 274 LINE",
"576 202 LINE"
);
},
{
closed = 0;
nodes = (
"506 90 LINE",
"484 30 OFFCURVE",
"409 -62 OFFCURVE",
"353 -77 CURVE SMOOTH",
"347 -78 OFFCURVE",
"343 -79 OFFCURVE",
"337 -79 CURVE SMOOTH",
"300 -79 OFFCURVE",
"260 -49 OFFCURVE",
"250 -13 CURVE SMOOTH",
"247 -1 OFFCURVE",
"245 11 OFFCURVE",
"245 22 CURVE SMOOTH",
"245 70 OFFCURVE",
"270 114 OFFCURVE",
"316 134 CURVE",
"427 163 LINE",
"423 178 LINE",
"377 227 LINE",
"42 139 LINE",
"46 123 LINE",
"93 74 LINE",
"187 100 LINE",
"180 78 OFFCURVE",
"174 55 OFFCURVE",
"174 31 CURVE SMOOTH",
"174 20 OFFCURVE",
"176 7 OFFCURVE",
"179 -6 CURVE SMOOTH",
"191 -54 OFFCURVE",
"234 -87 OFFCURVE",
"266 -106 CURVE SMOOTH",
"289 -118 OFFCURVE",
"316 -126 OFFCURVE",
"346 -126 CURVE SMOOTH",
"363 -126 OFFCURVE",
"380 -124 OFFCURVE",
"397 -119 CURVE SMOOTH",
"447 -106 OFFCURVE",
"500 -68 OFFCURVE",
"534 -24 CURVE",
"538 -25 LINE"
);
}
);
};
layerId = "39185045-6A8C-415A-8312-7B8F11386A4C";
name = Regular;
paths = (
{
closed = 1;
nodes = (
"-31 650 LINE",
"-31 634 LINE",
"0 575 LINE",
"556 575 LINE",
"556 -1 LINE",
"630 -42 LINE",
"645 -42 LINE",
"645 575 LINE",
"754 575 LINE",
"754 590 LINE",
"723 650 LINE"
);
},
{
closed = 1;
nodes = (
"249 529 OFFCURVE",
"221 523 OFFCURVE",
"176 494 CURVE",
"236 419 LINE",
"270 445 OFFCURVE",
"297 454 OFFCURVE",
"321 454 CURVE SMOOTH",
"368 454 OFFCURVE",
"389 422 OFFCURVE",
"389 397 CURVE SMOOTH",
"389 363 OFFCURVE",
"345 330 OFFCURVE",
"278 330 CURVE SMOOTH",
"207 330 OFFCURVE",
"154 353 OFFCURVE",
"59 442 CURVE",
"24 414 LINE",
"133 295 OFFCURVE",
"219 246 OFFCURVE",
"307 246 CURVE SMOOTH",
"409 246 OFFCURVE",
"462 312 OFFCURVE",
"462 374 CURVE",
"462 447 OFFCURVE",
"347 529 OFFCURVE",
"274 529 CURVE SMOOTH"
);
},
{
closed = 0;
nodes = (
"462 315 LINE"
);
},
{
closed = 1;
nodes = (
"423 337 LINE",
"574 337 LINE",
"574 412 LINE",
"423 412 LINE"
);
},
{
closed = 1;
nodes = (
"558 249 LINE",
"525 157 OFFCURVE",
"373 -2 OFFCURVE",
"298 -2 CURVE SMOOTH",
"272 -2 OFFCURVE",
"245 5 OFFCURVE",
"245 32 CURVE SMOOTH",
"245 62 OFFCURVE",
"270 118 OFFCURVE",
"316 134 CURVE",
"397 155 LINE",
"393 170 LINE",
"347 220 LINE",
"61 143 LINE",
"64 128 LINE",
"111 79 LINE",
"187 100 LINE",
"183 84 OFFCURVE",
"174 57 OFFCURVE",
"174 41 CURVE SMOOTH",
"174 -20 OFFCURVE",
"270 -49 OFFCURVE",
"327 -49 CURVE SMOOTH",
"393 -49 OFFCURVE",
"501 19 OFFCURVE",
"554 96 CURVE",
"558 95 LINE"
);
}
);
width = 754;
}
);
},
{
glyphname = "ny_ja-deva";
lastChange = "2014-06-27 12:38:58 +0100";
layers = (
{
anchors = (
{
name = bottom;
position = "{600, 0}";
},
{
name = top;
position = "{600, 650}";
}
);
background = {
paths = (
{
closed = 1;
nodes = (
"341 401 OFFCURVE",
"359 376 OFFCURVE",
"359 340 CURVE SMOOTH",
"359 293 OFFCURVE",
"320 254 OFFCURVE",
"241 254 CURVE SMOOTH",
"119 254 OFFCURVE",
"31 393 OFFCURVE",
"-5 470 CURVE",
"39 487 LINE",
"65 436 OFFCURVE",
"131 339 OFFCURVE",
"223 339 CURVE SMOOTH",
"265 339 OFFCURVE",
"281 354 OFFCURVE",
"281 380 CURVE SMOOTH",
"281 420 OFFCURVE",
"226 448 OFFCURVE",
"195 467 CURVE",
"209 500 LINE",
"556 500 LINE",
"556 575 LINE",
"-24 575 LINE",
"-56 634 LINE",
"-56 650 LINE",
"723 650 LINE",
"754 590 LINE",
"754 575 LINE",
"645 575 LINE",
"645 -42 LINE",
"630 -42 LINE",
"556 -1 LINE",
"556 425 LINE",
"273 425 LINE",
"309 472 LINE",
"316 425 LINE"
);
},
{
closed = 1;
nodes = (
"302 130 LINE",
"325 185 LINE",
"344 141 LINE",
"388 118 OFFCURVE",
"410 80 OFFCURVE",
"410 50 CURVE SMOOTH",
"410 -13 OFFCURVE",
"333 -49 OFFCURVE",
"273 -49 CURVE SMOOTH",
"170 -49 OFFCURVE",
"70 46 OFFCURVE",
"21 103 CURVE",
"60 131 LINE",
"93 94 OFFCURVE",
"165 30 OFFCURVE",
"241 30 CURVE SMOOTH",
"269 30 OFFCURVE",
"323 41 OFFCURVE",
"323 77 CURVE SMOOTH",
"323 124 OFFCURVE",
"255 140 OFFCURVE",
"216 150 CURVE",
"221 186 LINE",
"556 274 LINE",
"576 202 LINE"
);
}
);
};
layerId = "39185045-6A8C-415A-8312-7B8F11386A4C";
name = Regular;
paths = (
{
closed = 1;
nodes = (
"-31 650 LINE",
"-31 634 LINE",
"0 575 LINE",
"556 575 LINE",
"556 -1 LINE",
"630 -42 LINE",
"645 -42 LINE",
"645 575 LINE",
"754 575 LINE",
"754 590 LINE",
"723 650 LINE"
);
},
{
closed = 1;
nodes = (
"221 186 LINE",
"216 150 LINE",
"255 140 OFFCURVE",
"323 124 OFFCURVE",
"323 77 CURVE SMOOTH",
"323 41 OFFCURVE",
"269 30 OFFCURVE",
"241 30 CURVE SMOOTH",
"165 30 OFFCURVE",
"93 94 OFFCURVE",
"60 131 CURVE",
"21 103 LINE",
"70 46 OFFCURVE",
"170 -49 OFFCURVE",
"273 -49 CURVE SMOOTH",
"333 -49 OFFCURVE",
"410 -13 OFFCURVE",
"410 50 CURVE SMOOTH",
"410 80 OFFCURVE",
"388 118 OFFCURVE",
"344 141 CURVE",
"325 185 LINE",
"302 130 LINE",
"576 202 LINE",
"556 274 LINE"
);
},
{
closed = 1;
nodes = (
"249 529 OFFCURVE",
"221 523 OFFCURVE",
"176 494 CURVE",
"236 419 LINE",
"270 445 OFFCURVE",
"297 454 OFFCURVE",
"321 454 CURVE SMOOTH",
"368 454 OFFCURVE",
"389 422 OFFCURVE",
"389 397 CURVE SMOOTH",
"389 363 OFFCURVE",
"345 330 OFFCURVE",
"278 330 CURVE SMOOTH",
"207 330 OFFCURVE",
"154 353 OFFCURVE",
"59 442 CURVE",
"24 414 LINE",
"133 295 OFFCURVE",
"219 246 OFFCURVE",
"307 246 CURVE SMOOTH",
"409 246 OFFCURVE",
"462 312 OFFCURVE",
"462 374 CURVE",
"462 447 OFFCURVE",
"347 529 OFFCURVE",
"274 529 CURVE SMOOTH"
);
},
{
closed = 0;
nodes = (
"462 315 LINE"
);
},
{
closed = 1;
nodes = (
"423 412 LINE",
"423 337 LINE",
"574 337 LINE",
"574 412 LINE"
);
}
);
width = 754;
}
);
},
{
glyphname = "ny_ra-deva";
lastChange = "2014-06-27 12:39:27 +0100";
layers = (
{
anchors = (
{
name = bottom;
position = "{619, 0}";
},
{
name = top;
position = "{619, 650}";
}
);
background = {
paths = (
{
closed = 1;
nodes = (
"-31 650 LINE",
"-31 634 LINE",
"0 575 LINE",
"575 575 LINE",
"575 403 LINE",
"548 381 OFFCURVE",
"502 376 OFFCURVE",
"473 377 CURVE",
"450 324 LINE",
"481 324 LINE",
"494 318 OFFCURVE",
"518 303 OFFCURVE",
"538 303 CURVE SMOOTH",
"549 303 OFFCURVE",
"560 305 OFFCURVE",
"573 315 CURVE",
"575 315 LINE",
"575 -1 LINE",
"647 -42 LINE",
"663 -42 LINE",
"663 575 LINE",
"772 575 LINE",
"772 590 LINE",
"741 650 LINE"
);
}
);
};
layerId = "39185045-6A8C-415A-8312-7B8F11386A4C";
name = Regular;
paths = (
{
closed = 1;
nodes = (
"-31 650 LINE",
"-31 634 LINE",
"0 575 LINE",
"575 575 LINE",
"575 403 LINE",
"554 386 OFFCURVE",
"515 377 OFFCURVE",
"480 377 CURVE SMOOTH",
"469 377 OFFCURVE",
"459 378 OFFCURVE",
"452 380 CURVE",
"450 324 LINE",
"481 324 LINE",
"494 318 OFFCURVE",
"518 303 OFFCURVE",
"538 303 CURVE SMOOTH",
"549 303 OFFCURVE",
"560 305 OFFCURVE",
"573 315 CURVE",
"575 315 LINE",
"575 -1 LINE",
"647 -42 LINE",
"663 -42 LINE",
"663 575 LINE",
"772 575 LINE",
"772 590 LINE",
"741 650 LINE"
);
},
{
closed = 1;
nodes = (
"275 -5 LINE",
"337 -70 LINE",
"574 169 LINE",
"607 169 LINE",
"575 274 LINE"
);
},
{
closed = 1;
nodes = (
"264 490 OFFCURVE",
"224 472 OFFCURVE",
"184 445 CURVE",
"245 370 LINE",
"272 391 OFFCURVE",
"312 415 OFFCURVE",
"340 415 CURVE SMOOTH",
"386 415 OFFCURVE",
"408 371 OFFCURVE",
"408 339 CURVE SMOOTH",
"408 295 OFFCURVE",
"363 257 OFFCURVE",
"297 257 CURVE SMOOTH",
"218 257 OFFCURVE",
"148 308 OFFCURVE",
"48 398 CURVE",
"14 370 LINE",
"122 252 OFFCURVE",
"228 173 OFFCURVE",
"326 173 CURVE SMOOTH",
"427 173 OFFCURVE",
"480 249 OFFCURVE",
"480 315 CURVE",
"480 408 OFFCURVE",
"366 490 OFFCURVE",
"293 490 CURVE SMOOTH"
);
}
);
width = 772;
}
);
},
{
glyphname = "tt_tta-deva";
lastChange = "2014-06-27 12:40:15 +0100";
layers = (
{
anchors = (
{
name = bottom;
position = "{369, -305}";
},
{
name = top;
position = "{358, 650}";
}
);
background = {
paths = (
{
closed = 1;
nodes = (
"-87 650 LINE",
"-87 634 LINE",
"-56 575 LINE",
"314 575 LINE",
"314 497 LINE",
"226 497 LINE SMOOTH",
"139 497 OFFCURVE",
"44 464 OFFCURVE",
"44 350 CURVE SMOOTH",
"44 237 OFFCURVE",
"197 121 OFFCURVE",
"334 121 CURVE SMOOTH",
"434 121 OFFCURVE",
"499 195 OFFCURVE",
"499 240 CURVE SMOOTH",
"499 299 OFFCURVE",
"443 364 OFFCURVE",
"351 364 CURVE SMOOTH",
"302 364 OFFCURVE",
"233 331 OFFCURVE",
"233 274 CURVE SMOOTH",
"233 248 OFFCURVE",
"241 224 OFFCURVE",
"256 198 CURVE",
"200 212 OFFCURVE",
"121 247 OFFCURVE",
"121 323 CURVE SMOOTH",
"121 397 OFFCURVE",
"183 422 OFFCURVE",
"250 422 CURVE SMOOTH",
"403 422 LINE",
"403 575 LINE",
"554 575 LINE",
"554 590 LINE",
"522 650 LINE"
);
},
{
closed = 1;
nodes = (
"419 -118 OFFCURVE",
"436 -141 OFFCURVE",
"436 -168 CURVE SMOOTH",
"436 -198 OFFCURVE",
"398 -232 OFFCURVE",
"305 -234 CURVE",
"302 -222 OFFCURVE",
"300 -207 OFFCURVE",
"300 -190 CURVE SMOOTH",
"300 -156 OFFCURVE",
"335 -118 OFFCURVE",
"385 -118 CURVE SMOOTH"
);
},
{
closed = 1;
nodes = (
"319 151 LINE",
"319 71 LINE",
"226 71 LINE SMOOTH",
"139 71 OFFCURVE",
"44 38 OFFCURVE",
"44 -75 CURVE SMOOTH",
"44 -188 OFFCURVE",
"197 -305 OFFCURVE",
"334 -305 CURVE SMOOTH",
"434 -305 OFFCURVE",
"499 -230 OFFCURVE",
"499 -185 CURVE SMOOTH",
"499 -127 OFFCURVE",
"443 -61 OFFCURVE",
"351 -61 CURVE SMOOTH",
"302 -61 OFFCURVE",
"233 -95 OFFCURVE",
"233 -151 CURVE SMOOTH",
"233 -178 OFFCURVE",
"241 -201 OFFCURVE",
"256 -227 CURVE",
"200 -214 OFFCURVE",
"121 -179 OFFCURVE",
"121 -102 CURVE SMOOTH",
"121 -28 OFFCURVE",
"183 -4 OFFCURVE",
"250 -4 CURVE SMOOTH",
"398 -4 LINE",
"398 151 LINE"
);
},
{
closed = 1;
nodes = (
"419 307 OFFCURVE",
"436 285 OFFCURVE",
"436 258 CURVE SMOOTH",
"436 227 OFFCURVE",
"398 193 OFFCURVE",
"305 191 CURVE",
"302 204 OFFCURVE",
"300 219 OFFCURVE",
"300 235 CURVE SMOOTH",
"300 269 OFFCURVE",
"335 307 OFFCURVE",
"385 307 CURVE SMOOTH"
);
},
{
closed = 1;
nodes = (
"314 149 LINE",
"314 75 LINE",
"203 71 OFFCURVE",
"69 21 OFFCURVE",
"69 -105 CURVE SMOOTH",
"69 -202 OFFCURVE",
"152 -305 OFFCURVE",
"302 -305 CURVE SMOOTH",
"369 -305 OFFCURVE",
"436 -295 OFFCURVE",
"529 -249 CURVE",
"487 -167 LINE",
"393 -220 OFFCURVE",
"322 -228 OFFCURVE",
"268 -228 CURVE SMOOTH",
"191 -228 OFFCURVE",
"123 -197 OFFCURVE",
"123 -135 CURVE SMOOTH",
"123 -41 OFFCURVE",
"259 -9 OFFCURVE",
"403 -7 CURVE",
"403 149 LINE"
);
}
);
};
layerId = "39185045-6A8C-415A-8312-7B8F11386A4C";
name = Regular;
paths = (
{
closed = 1;
nodes = (
"-31 650 LINE",
"-31 634 LINE",
"0 575 LINE",
"314 575 LINE",
"314 501 LINE",
"203 497 OFFCURVE",
"69 447 OFFCURVE",
"69 320 CURVE SMOOTH",
"69 224 OFFCURVE",
"152 121 OFFCURVE",
"302 121 CURVE SMOOTH",
"369 121 OFFCURVE",
"436 131 OFFCURVE",
"529 177 CURVE",
"487 259 LINE",
"393 206 OFFCURVE",
"322 197 OFFCURVE",
"268 197 CURVE SMOOTH",
"191 197 OFFCURVE",
"123 228 OFFCURVE",
"123 291 CURVE SMOOTH",
"123 385 OFFCURVE",
"259 417 OFFCURVE",
"403 419 CURVE",
"403 575 LINE",
"554 575 LINE",
"554 590 LINE",
"522 650 LINE"
);
},
{
closed = 1;
nodes = (
"319 151 LINE",
"319 75 LINE",
"203 72 OFFCURVE",
"69 21 OFFCURVE",
"69 -105 CURVE SMOOTH",
"69 -202 OFFCURVE",
"152 -305 OFFCURVE",
"302 -305 CURVE SMOOTH",
"369 -305 OFFCURVE",
"436 -295 OFFCURVE",
"529 -249 CURVE",
"487 -167 LINE",
"393 -220 OFFCURVE",
"322 -228 OFFCURVE",
"268 -228 CURVE SMOOTH",
"191 -228 OFFCURVE",
"123 -197 OFFCURVE",
"123 -135 CURVE SMOOTH",
"123 -41 OFFCURVE",
"262 -9 OFFCURVE",
"398 -7 CURVE",
"398 151 LINE"
);
}
);
width = 554;
}
);
},
{
glyphname = "tt_ttha-deva";
lastChange = "2014-06-27 12:40:52 +0100";
layers = (
{
anchors = (
{
name = bottom;
position = "{369, -305}";
},
{
name = top;
position = "{358, 650}";
}
);
background = {
paths = (
{
closed = 1;
nodes = (
"-31 650 LINE",
"-31 634 LINE",
"0 575 LINE",
"314 575 LINE",
"314 501 LINE",
"203 497 OFFCURVE",
"69 447 OFFCURVE",
"69 320 CURVE SMOOTH",
"69 224 OFFCURVE",
"152 121 OFFCURVE",
"302 121 CURVE SMOOTH",
"369 121 OFFCURVE",
"436 131 OFFCURVE",
"529 177 CURVE",
"487 259 LINE",
"393 206 OFFCURVE",
"322 197 OFFCURVE",
"268 197 CURVE SMOOTH",
"191 197 OFFCURVE",
"123 228 OFFCURVE",
"123 291 CURVE SMOOTH",
"123 385 OFFCURVE",
"259 417 OFFCURVE",
"403 419 CURVE",
"403 575 LINE",
"554 575 LINE",
"554 590 LINE",
"522 650 LINE"
);
},
{
closed = 1;
nodes = (
"319 151 LINE",
"319 75 LINE",
"203 72 OFFCURVE",
"69 21 OFFCURVE",
"69 -105 CURVE SMOOTH",
"69 -202 OFFCURVE",
"152 -305 OFFCURVE",
"302 -305 CURVE SMOOTH",
"369 -305 OFFCURVE",
"436 -295 OFFCURVE",
"529 -249 CURVE",
"487 -167 LINE",
"393 -220 OFFCURVE",
"322 -228 OFFCURVE",
"268 -228 CURVE SMOOTH",
"191 -228 OFFCURVE",
"123 -197 OFFCURVE",
"123 -135 CURVE SMOOTH",
"123 -41 OFFCURVE",
"262 -9 OFFCURVE",
"398 -7 CURVE",
"398 151 LINE"
);
}
);
};
layerId = "39185045-6A8C-415A-8312-7B8F11386A4C";
name = Regular;
paths = (
{
closed = 1;
nodes = (
"-31 650 LINE",
"-31 634 LINE",
"0 575 LINE",
"314 575 LINE",
"314 501 LINE",
"203 497 OFFCURVE",
"69 447 OFFCURVE",
"69 320 CURVE SMOOTH",
"69 224 OFFCURVE",
"152 121 OFFCURVE",
"302 121 CURVE SMOOTH",
"369 121 OFFCURVE",
"436 131 OFFCURVE",
"529 177 CURVE",
"487 259 LINE",
"393 206 OFFCURVE",
"322 197 OFFCURVE",
"268 197 CURVE SMOOTH",
"191 197 OFFCURVE",
"123 228 OFFCURVE",
"123 291 CURVE SMOOTH",
"123 385 OFFCURVE",
"259 417 OFFCURVE",
"403 419 CURVE",
"403 575 LINE",
"554 575 LINE",
"554 590 LINE",
"522 650 LINE"
);
},
{
closed = 1;
nodes = (
"402 -20 OFFCURVE",
"455 -53 OFFCURVE",
"455 -94 CURVE SMOOTH",
"455 -163 OFFCURVE",
"402 -228 OFFCURVE",
"245 -228 CURVE SMOOTH",
"195 -228 OFFCURVE",
"118 -200 OFFCURVE",
"118 -131 CURVE SMOOTH",
"118 -44 OFFCURVE",
"260 -15 OFFCURVE",
"366 -8 CURVE"
);
},
{
closed = 1;
nodes = (
"312 69 LINE",
"172 55 OFFCURVE",
"65 20 OFFCURVE",
"65 -102 CURVE SMOOTH",
"65 -206 OFFCURVE",
"155 -305 OFFCURVE",
"277 -305 CURVE SMOOTH",
"445 -305 OFFCURVE",
"528 -224 OFFCURVE",
"528 -126 CURVE SMOOTH",
"528 -46 OFFCURVE",
"461 -3 OFFCURVE",
"393 40 CURVE",
"337 71 LINE"
);
},
{
closed = 1;
nodes = (
"319 2 LINE",
"398 2 LINE",
"398 151 LINE",
"319 151 LINE"
);
}
);
width = 554;
}
);
},
{
glyphname = "tt_ya-deva";
lastChange = "2014-06-27 10:25:37 +0100";
layers = (
{
anchors = (
{
name = bottom;
position = "{955, 0}";
},
{
name = top;
position = "{955, 650}";
}
);
layerId = "39185045-6A8C-415A-8312-7B8F11386A4C";
name = Regular;
paths = (
{
closed = 1;
nodes = (
"1108 575 LINE",
"1108 590 LINE",
"1077 650 LINE",
"-31 650 LINE",
"-31 634 LINE",
"0 575 LINE",
"380 575 LINE",
"380 473 LINE",
"226 471 OFFCURVE",
"69 437 OFFCURVE",
"69 265 CURVE SMOOTH",
"69 151 OFFCURVE",
"163 37 OFFCURVE",
"292 37 CURVE SMOOTH",
"350 37 OFFCURVE",
"416 48 OFFCURVE",
"493 85 CURVE",
"452 164 LINE",
"373 123 OFFCURVE",
"306 114 OFFCURVE",
"259 114 CURVE SMOOTH",
"204 114 OFFCURVE",
"123 142 OFFCURVE",
"123 227 CURVE SMOOTH",
"123 371 OFFCURVE",
"283 395 OFFCURVE",
"448 398 CURVE SMOOTH",
"599 398 LINE SMOOTH",
"651 398 OFFCURVE",
"667 372 OFFCURVE",
"667 346 CURVE SMOOTH",
"667 310 OFFCURVE",
"593 278 OFFCURVE",
"524 260 CURVE",
"566 148 OFFCURVE",
"648 58 OFFCURVE",
"757 58 CURVE SMOOTH",
"818 58 OFFCURVE",
"871 86 OFFCURVE",
"909 113 CURVE",
"912 111 LINE",
"909 0 LINE",
"983 -42 LINE",
"998 -42 LINE",
"998 575 LINE"
);
},
{
closed = 1;
nodes = (
"663 137 OFFCURVE",
"632 162 OFFCURVE",
"611 208 CURVE",
"674 234 OFFCURVE",
"739 264 OFFCURVE",
"739 317 CURVE SMOOTH",
"739 381 OFFCURVE",
"634 473 OFFCURVE",
"549 473 CURVE SMOOTH",
"468 473 LINE",
"468 575 LINE",
"911 575 LINE",
"911 226 LINE",
"874 185 OFFCURVE",
"794 137 OFFCURVE",
"717 137 CURVE SMOOTH"
);
}
);
width = 1108;
}
);
},
{
glyphname = "tt_va-deva";
lastChange = "2014-06-27 12:44:33 +0100";
layers = (
{
anchors = (
{
name = bottom;
position = "{432, -284}";
},
{
name = top;
position = "{358, 650}";
}
);
background = {
paths = (
{
closed = 1;
nodes = (
"-31 650 LINE",
"-31 634 LINE",
"0 575 LINE",
"314 575 LINE",
"314 501 LINE",
"203 497 OFFCURVE",
"69 447 OFFCURVE",
"69 320 CURVE SMOOTH",
"69 224 OFFCURVE",
"152 121 OFFCURVE",
"302 121 CURVE SMOOTH",
"369 121 OFFCURVE",
"436 131 OFFCURVE",
"529 177 CURVE",
"487 259 LINE",
"393 206 OFFCURVE",
"322 197 OFFCURVE",
"268 197 CURVE SMOOTH",
"191 197 OFFCURVE",
"123 228 OFFCURVE",
"123 291 CURVE SMOOTH",
"123 385 OFFCURVE",
"259 417 OFFCURVE",
"403 419 CURVE",
"403 575 LINE",
"554 575 LINE",
"554 590 LINE",
"522 650 LINE"
);
},
{
closed = 1;
nodes = (
"348 164 LINE",
"348 -24 LINE",
"346 -24 LINE",
"324 4 OFFCURVE",
"264 62 OFFCURVE",
"209 62 CURVE SMOOTH",
"153 62 OFFCURVE",
"78 17 OFFCURVE",
"78 -99 CURVE SMOOTH",
"78 -188 OFFCURVE",
"164 -240 OFFCURVE",
"216 -240 CURVE SMOOTH",
"251 -240 OFFCURVE",
"306 -206 OFFCURVE",
"346 -170 CURVE",
"348 -172 LINE",
"348 -284 LINE",
"412 -321 LINE",
"427 -321 LINE",
"427 165 LINE"
);
},
{
closed = 1;
nodes = (
"270 -23 OFFCURVE",
"319 -47 OFFCURVE",
"340 -70 CURVE",
"340 -72 LINE",
"301 -121 OFFCURVE",
"222 -169 OFFCURVE",
"171 -169 CURVE SMOOTH",
"141 -169 OFFCURVE",
"118 -154 OFFCURVE",
"118 -126 CURVE SMOOTH",
"118 -69 OFFCURVE",
"179 -23 OFFCURVE",
"241 -23 CURVE SMOOTH"
);
}
);
};
layerId = "39185045-6A8C-415A-8312-7B8F11386A4C";
name = Regular;
paths = (
{
closed = 1;
nodes = (
"-31 650 LINE",
"-31 634 LINE",
"0 575 LINE",
"314 575 LINE",
"314 501 LINE",
"203 497 OFFCURVE",
"69 447 OFFCURVE",
"69 320 CURVE SMOOTH",
"69 224 OFFCURVE",
"152 121 OFFCURVE",
"302 121 CURVE SMOOTH",
"369 121 OFFCURVE",
"436 131 OFFCURVE",
"529 177 CURVE",
"487 259 LINE",
"393 206 OFFCURVE",
"322 197 OFFCURVE",
"268 197 CURVE SMOOTH",
"191 197 OFFCURVE",
"123 228 OFFCURVE",
"123 291 CURVE SMOOTH",
"123 385 OFFCURVE",
"259 417 OFFCURVE",
"403 419 CURVE",
"403 575 LINE",
"554 575 LINE",
"554 590 LINE",
"522 650 LINE"
);
},
{
closed = 1;
nodes = (
"388 164 LINE",
"388 -24 LINE",
"386 -24 LINE",
"360 1 OFFCURVE",
"292 57 OFFCURVE",
"229 57 CURVE SMOOTH",
"165 57 OFFCURVE",
"78 12 OFFCURVE",
"78 -99 CURVE SMOOTH",
"78 -188 OFFCURVE",
"156 -235 OFFCURVE",
"226 -235 CURVE SMOOTH",
"277 -235 OFFCURVE",
"335 -201 OFFCURVE",
"386 -165 CURVE",
"388 -167 LINE",
"388 -284 LINE",
"452 -321 LINE",
"467 -321 LINE",
"467 165 LINE"
);
},
{
closed = 1;
nodes = (
"296 -23 OFFCURVE",
"355 -47 OFFCURVE",
"380 -70 CURVE",
"380 -72 LINE",
"337 -121 OFFCURVE",
"258 -169 OFFCURVE",
"191 -169 CURVE SMOOTH",
"149 -169 OFFCURVE",
"118 -154 OFFCURVE",
"118 -121 CURVE SMOOTH",
"118 -64 OFFCURVE",
"189 -23 OFFCURVE",
"261 -23 CURVE SMOOTH"
);
}
);
width = 554;
}
);
},
